<svg version="1.1" viewBox="0.0 0.0 960.0 540.0" fill="none" stroke="none" stroke-linecap="square" stroke-miterlimit="10" xmlns:xlink="http://www.w3.org/1999/xlink" xmlns="http://www.w3.org/2000/svg"><clipPath id="g77fa5779fd_0_553.0"><path d="m0 0l960.0 0l0 540.0l-960.0 0l0 -540.0z" clip-rule="nonzero"/></clipPath><g clip-path="url(#g77fa5779fd_0_553.0)"><path fill="#23241f" d="m0 0l960.0 0l0 540.0l-960.0 0z" fill-rule="evenodd"/><path fill="#ffab40" d="m179.74278 90.84806l0 0c0 -8.140923 6.599518 -14.740448 14.740448 -14.740448l190.14116 0c3.9093933 0 7.6586914 1.553009 10.423065 4.317375c2.7643738 2.7643738 4.317383 6.5136642 4.317383 10.423073l0 58.960045c0 8.14093 -6.5995483 14.740448 -14.740448 14.740448l-190.14116 0l0 0c-8.14093 0 -14.740448 -6.599518 -14.740448 -14.740448z" fill-rule="evenodd"/><path stroke="#ffab40" stroke-width="4.0" stroke-linejoin="round" stroke-linecap="butt" d="m179.74278 90.84806l0 0c0 -8.140923 6.599518 -14.740448 14.740448 -14.740448l190.14116 0c3.9093933 0 7.6586914 1.553009 10.423065 4.317375c2.7643738 2.7643738 4.317383 6.5136642 4.317383 10.423073l0 58.960045c0 8.14093 -6.5995483 14.740448 -14.740448 14.740448l-190.14116 0l0 0c-8.14093 0 -14.740448 -6.599518 -14.740448 -14.740448z" fill-rule="evenodd"/><path fill="#23241f" d="m265.61328 127.303085l4.96875 -15.734375l2.328125 0l-6.140625 18.359375l-2.40625 0l-6.140625 -18.359375l2.484375 0l4.90625 15.734375zm17.728088 -11.40625l0 12.265625l3.953125 0l0 1.765625l-10.515625 0l0 -1.765625l4.328125 0l0 -10.5l-4.203125 0l0 -1.765625l6.4375 0zm-1.78125 -6.578125q0.75 0 1.1875 0.453125q0.453125 0.453125 0.453125 1.109375q0 0.6875 -0.453125 1.140625q-0.4375 0.453125 -1.1875 0.453125q-0.703125 0 -1.15625 -0.453125q-0.453125 -0.453125 -0.453125 -1.140625q0 -0.65625 0.453125 -1.109375q0.453125 -0.453125 1.15625 -0.453125zm12.431183 14.390625q0.0625 1.625 0.625 2.65625q0.5625 1.03125 1.484375 1.515625q0.921875 0.484375 2.0 0.484375q1.078125 0 1.953125 -0.3125q0.875 -0.328125 1.78125 -0.953125l1.0625 1.484375q-0.984375 0.765625 -2.25 1.21875q-1.25 0.4375 -2.578125 0.4375q-2.03125 0 -3.484375 -0.921875q-1.4375 -0.921875 -2.1875 -2.5625q-0.75 -1.65625 -0.75 -3.828125q0 -2.125 0.75 -3.78125q0.765625 -1.65625 2.140625 -2.59375q1.375 -0.953125 3.234375 -0.953125q1.78125 0 3.0625 0.84375q1.28125 0.828125 1.953125 2.375q0.6875 1.53125 0.6875 3.65625q0 0.359375 -0.015625 0.671875q0 0.3125 -0.03125 0.5625l-9.4375 0zm3.8125 -6.265625q-1.5625 0 -2.609375 1.109375q-1.046875 1.09375 -1.1875 3.421875l7.3125 0q-0.03125 -2.25 -0.984375 -3.390625q-0.9375 -1.140625 -2.53125 -1.140625zm20.821838 12.484375l-3.171875 0l-1.8125 -10.296875l-1.96875 10.296875l-3.09375 0l-2.5625 -14.03125l2.296875 0l1.78125 12.640625l2.234375 -10.859375l2.65625 0l2.125 10.859375l1.78125 -12.640625l2.1875 0l-2.453125 14.03125z" fill-rule="nonzero"/></g></svg>