<svg version="1.1" viewBox="0.0 0.0 960.0 540.0" fill="none" stroke="none" stroke-linecap="square" stroke-miterlimit="10" xmlns:xlink="http://www.w3.org/1999/xlink" xmlns="http://www.w3.org/2000/svg"><clipPath id="g77fa5779fd_0_497.0"><path d="m0 0l960.0 0l0 540.0l-960.0 0l0 -540.0z" clip-rule="nonzero"/></clipPath><g clip-path="url(#g77fa5779fd_0_497.0)"><path fill="#23241f" d="m0 0l960.0 0l0 540.0l-960.0 0z" fill-rule="evenodd"/><path fill="#000000" fill-opacity="0.0" d="m672.0 164.54855l79.08661 105.44882" fill-rule="evenodd"/><path stroke="#f92672" stroke-width="4.0" stroke-linejoin="round" stroke-linecap="butt" d="m672.0 164.54855l64.686584 86.24881" fill-rule="evenodd"/><path fill="#f92672" stroke="#f92672" stroke-width="4.0" stroke-linecap="butt" d="m731.40106 254.76154l16.177002 10.557739l-5.605896 -18.486053z" fill-rule="evenodd"/><path fill="#000000" fill-opacity="0.0" d="m699.6221 173.05511l132.47241 0l0 88.44095l-132.47241 0z" fill-rule="evenodd"/><path fill="#eeeeee" d="m739.0205 216.07684q0 -0.640625 -0.25 -1.015625q-0.25 -0.375 -0.6875 -0.53125q-0.4375 -0.171875 -1.0 -0.171875l-1.1875 0l0 3.53125l1.140625 0q0.578125 0 1.015625 -0.15625q0.453125 -0.15625 0.703125 -0.546875q0.265625 -0.40625 0.265625 -1.109375zm1.125 0q0 0.953125 -0.421875 1.546875q-0.40625 0.578125 -1.125 0.84375q-0.71875 0.265625 -1.65625 0.265625l-1.046875 0l0 3.0625l-1.046875 0l0 -8.265625l2.109375 0q1.46875 0 2.328125 0.625q0.859375 0.625 0.859375 1.921875zm1.7781982 5.71875l0 -0.78125l0.984375 0l0 -4.765625l-0.984375 0l0 -0.765625l1.75 0l0.1875 1.484375q0.359375 -0.78125 0.875 -1.203125q0.53125 -0.421875 1.390625 -0.421875q0.265625 0 0.46875 0.046875q0.21875 0.03125 0.421875 0.09375l-0.28125 0.890625q-0.203125 -0.046875 -0.375 -0.078125q-0.15625 -0.03125 -0.359375 -0.03125q-0.734375 0 -1.265625 0.515625q-0.515625 0.515625 -0.8125 1.5625l0 2.671875l1.28125 0l0 0.78125l-3.28125 0zm4.125 -4.1875l0 -1.375l0.109375 -0.75l0.859375 0l-0.140625 2.125l-0.828125 0zm5.418762 -2.265625q0.890625 0 1.5 0.40625q0.609375 0.40625 0.90625 1.15625q0.296875 0.734375 0.296875 1.734375q0 0.953125 -0.3125 1.703125q-0.3125 0.75 -0.921875 1.171875q-0.59375 0.421875 -1.484375 0.421875q-0.875 0 -1.484375 -0.40625q-0.609375 -0.40625 -0.921875 -1.140625q-0.3125 -0.75 -0.3125 -1.75q0 -0.96875 0.3125 -1.703125q0.3125 -0.75 0.921875 -1.171875q0.609375 -0.421875 1.5 -0.421875zm0 0.828125q-0.8125 0 -1.234375 0.609375q-0.40625 0.59375 -0.40625 1.859375q0 1.25 0.40625 1.859375q0.40625 0.609375 1.21875 0.609375q0.828125 0 1.234375 -0.609375q0.40625 -0.609375 0.40625 -1.859375q0 -1.265625 -0.40625 -1.859375q-0.40625 -0.609375 -1.21875 -0.609375zm7.6531982 4.890625q0.46875 0 0.875 -0.15625q0.421875 -0.15625 0.765625 -0.390625l0.5 0.65625q-0.421875 0.359375 -1.0 0.5625q-0.578125 0.203125 -1.140625 0.203125q-0.9375 0 -1.609375 -0.40625q-0.65625 -0.40625 -1.015625 -1.140625q-0.34375 -0.734375 -0.34375 -1.71875q0 -0.953125 0.34375 -1.703125q0.359375 -0.765625 1.015625 -1.1875q0.671875 -0.4375 1.625 -0.4375q0.609375 0 1.125 0.1875q0.53125 0.1875 0.984375 0.546875l-0.5 0.671875q-0.390625 -0.28125 -0.796875 -0.421875q-0.40625 -0.140625 -0.828125 -0.140625q-0.8125 0 -1.34375 0.609375q-0.53125 0.609375 -0.53125 1.875q0 0.828125 0.234375 1.359375q0.25 0.53125 0.671875 0.78125q0.421875 0.25 0.96875 0.25zm5.1375732 -2.0625q0.03125 0.734375 0.28125 1.203125q0.25 0.453125 0.65625 0.671875q0.421875 0.21875 0.90625 0.21875q0.484375 0 0.875 -0.140625q0.40625 -0.140625 0.8125 -0.421875l0.46875 0.65625q-0.4375 0.34375 -1.015625 0.546875q-0.5625 0.203125 -1.15625 0.203125q-0.90625 0 -1.5625 -0.40625q-0.640625 -0.421875 -0.984375 -1.15625q-0.34375 -0.75 -0.34375 -1.734375q0 -0.953125 0.34375 -1.6875q0.34375 -0.75 0.953125 -1.171875q0.625 -0.4375 1.46875 -0.4375q0.796875 0 1.375 0.375q0.578125 0.375 0.875 1.078125q0.3125 0.6875 0.3125 1.640625q0 0.171875 0 0.3125q0 0.140625 -0.015625 0.25l-4.25 0zm1.71875 -2.828125q-0.703125 0 -1.1875 0.5q-0.46875 0.5 -0.53125 1.546875l3.296875 0q-0.015625 -1.015625 -0.453125 -1.53125q-0.421875 -0.515625 -1.125 -0.515625zm6.8406982 4.921875q0.71875 0 1.140625 -0.265625q0.421875 -0.265625 0.421875 -0.734375q0 -0.28125 -0.109375 -0.484375q-0.09375 -0.21875 -0.421875 -0.375q-0.328125 -0.171875 -1.0 -0.34375q-0.65625 -0.171875 -1.140625 -0.375q-0.46875 -0.21875 -0.75 -0.5625q-0.265625 -0.34375 -0.265625 -0.890625q0 -0.53125 0.296875 -0.90625q0.3125 -0.390625 0.84375 -0.59375q0.546875 -0.21875 1.265625 -0.21875q0.765625 0 1.328125 0.203125q0.5625 0.203125 0.96875 0.5l-0.453125 0.6875q-0.359375 -0.25 -0.796875 -0.40625q-0.421875 -0.171875 -1.03125 -0.171875q-0.75 0 -1.0625 0.234375q-0.3125 0.234375 -0.3125 0.59375q0 0.28125 0.15625 0.46875q0.15625 0.1875 0.515625 0.328125q0.375 0.140625 1.015625 0.3125q0.609375 0.171875 1.0625 0.40625q0.46875 0.21875 0.71875 0.59375q0.265625 0.375 0.265625 0.953125q0 0.671875 -0.390625 1.09375q-0.375 0.421875 -0.984375 0.609375q-0.609375 0.1875 -1.28125 0.1875q-0.859375 0 -1.46875 -0.25q-0.59375 -0.25 -1.015625 -0.609375l0.578125 -0.65625q0.375 0.296875 0.859375 0.484375q0.484375 0.1875 1.046875 0.1875zm7.200012 0q0.71875 0 1.140625 -0.265625q0.421875 -0.265625 0.421875 -0.734375q0 -0.28125 -0.109375 -0.484375q-0.09375 -0.21875 -0.421875 -0.375q-0.328125 -0.171875 -1.0 -0.34375q-0.65625 -0.171875 -1.140625 -0.375q-0.46875 -0.21875 -0.75 -0.5625q-0.265625 -0.34375 -0.265625 -0.890625q0 -0.53125 0.296875 -0.90625q0.3125 -0.390625 0.84375 -0.59375q0.546875 -0.21875 1.265625 -0.21875q0.765625 0 1.328125 0.203125q0.5625 0.203125 0.96875 0.5l-0.453125 0.6875q-0.359375 -0.25 -0.796875 -0.40625q-0.421875 -0.171875 -1.03125 -0.171875q-0.75 0 -1.0625 0.234375q-0.3125 0.234375 -0.3125 0.59375q0 0.28125 0.15625 0.46875q0.15625 0.1875 0.515625 0.328125q0.375 0.140625 1.015625 0.3125q0.609375 0.171875 1.0625 0.40625q0.46875 0.21875 0.71875 0.59375q0.265625 0.375 0.265625 0.953125q0 0.671875 -0.390625 1.09375q-0.375 0.421875 -0.984375 0.609375q-0.609375 0.1875 -1.28125 0.1875q-0.859375 0 -1.46875 -0.25q-0.59375 -0.25 -1.015625 -0.609375l0.578125 -0.65625q0.375 0.296875 0.859375 0.484375q0.484375 0.1875 1.046875 0.1875zm5.8406982 -2.09375q0.03125 0.734375 0.28125 1.203125q0.25 0.453125 0.65625 0.671875q0.421875 0.21875 0.90625 0.21875q0.484375 0 0.875 -0.140625q0.40625 -0.140625 0.8125 -0.421875l0.46875 0.65625q-0.4375 0.34375 -1.015625 0.546875q-0.5625 0.203125 -1.15625 0.203125q-0.90625 0 -1.5625 -0.40625q-0.640625 -0.421875 -0.984375 -1.15625q-0.34375 -0.75 -0.34375 -1.734375q0 -0.953125 0.34375 -1.6875q0.34375 -0.75 0.953125 -1.171875q0.625 -0.4375 1.46875 -0.4375q0.796875 0 1.375 0.375q0.578125 0.375 0.875 1.078125q0.3125 0.6875 0.3125 1.640625q0 0.171875 0 0.3125q0 0.140625 -0.015625 0.25l-4.25 0zm1.71875 -2.828125q-0.703125 0 -1.1875 0.5q-0.46875 0.5 -0.53125 1.546875l3.296875 0q-0.015625 -1.015625 -0.453125 -1.53125q-0.421875 -0.515625 -1.125 -0.515625zm8.465698 -3.359375l1.015625 0.125l0 8.859375l-0.890625 0l-0.09375 -0.828125q-0.359375 0.5 -0.8125 0.734375q-0.453125 0.234375 -0.984375 0.234375q-0.8125 0 -1.359375 -0.40625q-0.53125 -0.421875 -0.796875 -1.15625q-0.25 -0.75 -0.25 -1.734375q0 -0.9375 0.296875 -1.6875q0.296875 -0.75 0.84375 -1.171875q0.5625 -0.4375 1.34375 -0.4375q0.546875 0 0.953125 0.1875q0.421875 0.1875 0.734375 0.5625l0 -3.28125zm-1.421875 3.34375q-0.796875 0 -1.234375 0.625q-0.421875 0.609375 -0.421875 1.859375q0 0.828125 0.171875 1.375q0.1875 0.546875 0.515625 0.828125q0.34375 0.28125 0.84375 0.28125q0.53125 0 0.90625 -0.3125q0.390625 -0.3125 0.640625 -0.6875l0 -3.15625q-0.25 -0.390625 -0.625 -0.59375q-0.359375 -0.21875 -0.796875 -0.21875z" fill-rule="nonzero"/><path fill="#000000" fill-opacity="0.0" d="m399.35434 120.32809l162.83463 0" fill-rule="evenodd"/><path stroke="#f92672" stroke-width="4.0" stroke-linejoin="round" stroke-linecap="butt" d="m399.35434 120.32809l138.83463 0" fill-rule="evenodd"/><path fill="#f92672" stroke="#f92672" stroke-width="4.0" stroke-linecap="butt" d="m538.18896 126.93501l18.152405 -6.606926l-18.152405 -6.6069336z" fill-rule="evenodd"/><path fill="#000000" fill-opacity="0.0" d="m399.36484 76.10761l144.6929 0l0 88.44094l-144.6929 0z" fill-rule="evenodd"/><path fill="#eeeeee" d="m416.83893 102.58246l0 5.59375q0 0.828125 -0.34375 1.46875q-0.328125 0.640625 -0.953125 1.0q-0.609375 0.34375 -1.4375 0.34375q-0.859375 0 -1.46875 -0.359375q-0.609375 -0.359375 -0.9375 -0.984375q-0.3125 -0.640625 -0.3125 -1.46875l0 -5.59375l1.03125 0l0 5.625q0 0.9375 0.4375 1.40625q0.4375 0.46875 1.25 0.46875q0.796875 0 1.234375 -0.46875q0.453125 -0.46875 0.453125 -1.40625l0 -5.625l1.046875 0zm4.2312927 7.5625q0.71875 0 1.140625 -0.265625q0.421875 -0.265625 0.421875 -0.734375q0 -0.28125 -0.109375 -0.484375q-0.09375 -0.21875 -0.421875 -0.375q-0.328125 -0.171875 -1.0 -0.34375q-0.65625 -0.171875 -1.140625 -0.375q-0.46875 -0.21875 -0.75 -0.5625q-0.265625 -0.34375 -0.265625 -0.890625q0 -0.53125 0.296875 -0.90625q0.3125 -0.390625 0.84375 -0.59375q0.546875 -0.21875 1.265625 -0.21875q0.765625 0 1.328125 0.203125q0.5625 0.203125 0.96875 0.5l-0.453125 0.6875q-0.359375 -0.25 -0.796875 -0.40625q-0.421875 -0.171875 -1.03125 -0.171875q-0.75 0 -1.0625 0.234375q-0.3125 0.234375 -0.3125 0.59375q0 0.28125 0.15625 0.46875q0.15625 0.1875 0.515625 0.328125q0.375 0.140625 1.015625 0.3125q0.609375 0.171875 1.0625 0.40625q0.46875 0.21875 0.71875 0.59375q0.265625 0.375 0.265625 0.953125q0 0.671875 -0.390625 1.09375q-0.375 0.421875 -0.984375 0.609375q-0.609375 0.1875 -1.28125 0.1875q-0.859375 0 -1.46875 -0.25q-0.59375 -0.25 -1.015625 -0.609375l0.578125 -0.65625q0.375 0.296875 0.859375 0.484375q0.484375 0.1875 1.046875 0.1875zm5.8406982 -2.09375q0.03125 0.734375 0.28125 1.203125q0.25 0.453125 0.65625 0.671875q0.421875 0.21875 0.90625 0.21875q0.484375 0 0.875 -0.140625q0.40625 -0.140625 0.8125 -0.421875l0.46875 0.65625q-0.4375 0.34375 -1.015625 0.546875q-0.5625 0.203125 -1.15625 0.203125q-0.90625 0 -1.5625 -0.40625q-0.640625 -0.421875 -0.984375 -1.15625q-0.34375 -0.75 -0.34375 -1.734375q0 -0.953125 0.34375 -1.6875q0.34375 -0.75 0.953125 -1.171875q0.625 -0.4375 1.46875 -0.4375q0.796875 0 1.375 0.375q0.578125 0.375 0.875 1.078125q0.3125 0.6875 0.3125 1.640625q0 0.171875 0 0.3125q0 0.140625 -0.015625 0.25l-4.25 0zm1.71875 -2.828125q-0.703125 0 -1.1875 0.5q-0.46875 0.5 -0.53125 1.546875l3.296875 0q-0.015625 -1.015625 -0.453125 -1.53125q-0.421875 -0.515625 -1.125 -0.515625zm4.7469177 5.625l0 -0.78125l0.984375 0l0 -4.765625l-0.984375 0l0 -0.765625l1.75 0l0.1875 1.484375q0.359375 -0.78125 0.875 -1.203125q0.53125 -0.421875 1.390625 -0.421875q0.265625 0 0.46875 0.046875q0.21875 0.03125 0.421875 0.09375l-0.28125 0.890625q-0.203125 -0.046875 -0.375 -0.078125q-0.15625 -0.03125 -0.359375 -0.03125q-0.734375 0 -1.265625 0.515625q-0.515625 0.515625 -0.8125 1.5625l0 2.671875l1.28125 0l0 0.78125l-3.28125 0zm4.125 -4.1875l0 -1.375l0.109375 -0.75l0.859375 0l-0.140625 2.125l-0.828125 0zm13.415741 -2.125l0 5.515625l1.78125 0l0 0.796875l-4.734375 0l0 -0.796875l1.9375 0l0 -4.71875l-1.890625 0l0 -0.796875l2.90625 0zm-0.8125 -2.96875q0.34375 0 0.546875 0.203125q0.203125 0.203125 0.203125 0.5q0 0.3125 -0.203125 0.515625q-0.203125 0.203125 -0.546875 0.203125q-0.3125 0 -0.515625 -0.203125q-0.203125 -0.203125 -0.203125 -0.515625q0 -0.296875 0.203125 -0.5q0.203125 -0.203125 0.515625 -0.203125zm4.8094482 9.28125l0 -6.3125l0.859375 0l0.078125 0.875q0.390625 -0.484375 0.96875 -0.75q0.578125 -0.265625 1.125 -0.265625q0.921875 0 1.34375 0.5q0.421875 0.484375 0.421875 1.359375l0 4.59375l-1.0 0l0 -3.84375q0 -0.65625 -0.078125 -1.046875q-0.0625 -0.40625 -0.296875 -0.578125q-0.234375 -0.1875 -0.703125 -0.1875q-0.375 0 -0.703125 0.171875q-0.328125 0.15625 -0.59375 0.40625q-0.25 0.234375 -0.40625 0.46875l0 4.609375l-1.015625 0zm12.215668 -0.3125q-0.328125 0.203125 -0.796875 0.328125q-0.453125 0.125 -0.890625 0.125q-1.015625 0 -1.578125 -0.53125q-0.546875 -0.546875 -0.546875 -1.375l0 -3.765625l-1.453125 0l0 -0.78125l1.453125 0l0 -1.4375l1.0 -0.125l0 1.5625l2.1875 0l-0.109375 0.78125l-2.078125 0l0 3.75q0 0.53125 0.28125 0.8125q0.28125 0.265625 0.9375 0.265625q0.34375 0 0.640625 -0.078125q0.3125 -0.09375 0.5625 -0.21875l0.390625 0.6875zm2.9813232 -2.484375q0.03125 0.734375 0.28125 1.203125q0.25 0.453125 0.65625 0.671875q0.421875 0.21875 0.90625 0.21875q0.484375 0 0.875 -0.140625q0.40625 -0.140625 0.8125 -0.421875l0.46875 0.65625q-0.4375 0.34375 -1.015625 0.546875q-0.5625 0.203125 -1.15625 0.203125q-0.90625 0 -1.5625 -0.40625q-0.640625 -0.421875 -0.984375 -1.15625q-0.34375 -0.75 -0.34375 -1.734375q0 -0.953125 0.34375 -1.6875q0.34375 -0.75 0.953125 -1.171875q0.625 -0.4375 1.46875 -0.4375q0.796875 0 1.375 0.375q0.578125 0.375 0.875 1.078125q0.3125 0.6875 0.3125 1.640625q0 0.171875 0 0.3125q0 0.140625 -0.015625 0.25l-4.25 0zm1.71875 -2.828125q-0.703125 0 -1.1875 0.5q-0.46875 0.5 -0.53125 1.546875l3.296875 0q-0.015625 -1.015625 -0.453125 -1.53125q-0.421875 -0.515625 -1.125 -0.515625zm4.7469177 5.625l0 -0.78125l0.984375 0l0 -4.765625l-0.984375 0l0 -0.765625l1.75 0l0.1875 1.484375q0.359375 -0.78125 0.875 -1.203125q0.53125 -0.421875 1.390625 -0.421875q0.265625 0 0.46875 0.046875q0.21875 0.03125 0.421875 0.09375l-0.28125 0.890625q-0.203125 -0.046875 -0.375 -0.078125q-0.15625 -0.03125 -0.359375 -0.03125q-0.734375 0 -1.265625 0.515625q-0.515625 0.515625 -0.8125 1.5625l0 2.671875l1.28125 0l0 0.78125l-3.28125 0zm4.125 -4.1875l0 -1.375l0.109375 -0.75l0.859375 0l-0.140625 2.125l-0.828125 0zm7.5438232 2.8125q0 0.375 0.125 0.546875q0.125 0.171875 0.390625 0.265625l-0.25 0.703125q-0.40625 -0.0625 -0.71875 -0.265625q-0.296875 -0.203125 -0.4375 -0.625q-0.34375 0.4375 -0.859375 0.671875q-0.5 0.21875 -1.125 0.21875q-0.953125 0 -1.5 -0.53125q-0.53125 -0.546875 -0.53125 -1.421875q0 -0.984375 0.75 -1.5q0.765625 -0.515625 2.203125 -0.515625l0.9375 0l0 -0.53125q0 -0.6875 -0.40625 -0.96875q-0.390625 -0.28125 -1.109375 -0.28125q-0.3125 0 -0.734375 0.078125q-0.40625 0.0625 -0.90625 0.234375l-0.265625 -0.75q0.59375 -0.21875 1.09375 -0.3125q0.515625 -0.09375 0.96875 -0.09375q1.1875 0 1.78125 0.546875q0.59375 0.546875 0.59375 1.5l0 3.03125zm-2.609375 0.75q0.46875 0 0.890625 -0.234375q0.421875 -0.25 0.703125 -0.671875l0 -1.625l-0.921875 0q-1.03125 0 -1.46875 0.359375q-0.421875 0.359375 -0.421875 0.96875q0 0.59375 0.296875 0.90625q0.3125 0.296875 0.921875 0.296875zm8.137543 -0.109375q0.46875 0 0.875 -0.15625q0.421875 -0.15625 0.765625 -0.390625l0.5 0.65625q-0.421875 0.359375 -1.0 0.5625q-0.578125 0.203125 -1.140625 0.203125q-0.9375 0 -1.609375 -0.40625q-0.65625 -0.40625 -1.015625 -1.140625q-0.34375 -0.734375 -0.34375 -1.71875q0 -0.953125 0.34375 -1.703125q0.359375 -0.765625 1.015625 -1.1875q0.671875 -0.4375 1.625 -0.4375q0.609375 0 1.125 0.1875q0.53125 0.1875 0.984375 0.546875l-0.5 0.671875q-0.390625 -0.28125 -0.796875 -0.421875q-0.40625 -0.140625 -0.828125 -0.140625q-0.8125 0 -1.34375 0.609375q-0.53125 0.609375 -0.53125 1.875q0 0.828125 0.234375 1.359375q0.25 0.53125 0.671875 0.78125q0.421875 0.25 0.96875 0.25zm9.356323 0.421875q-0.328125 0.203125 -0.796875 0.328125q-0.453125 0.125 -0.890625 0.125q-1.015625 0 -1.578125 -0.53125q-0.546875 -0.546875 -0.546875 -1.375l0 -3.765625l-1.453125 0l0 -0.78125l1.453125 0l0 -1.4375l1.0 -0.125l0 1.5625l2.1875 0l-0.109375 0.78125l-2.078125 0l0 3.75q0 0.53125 0.28125 0.8125q0.28125 0.265625 0.9375 0.265625q0.34375 0 0.640625 -0.078125q0.3125 -0.09375 0.5625 -0.21875l0.390625 0.6875zm5.3875427 -6.0l0 5.515625l1.78125 0l0 0.796875l-4.734375 0l0 -0.796875l1.9375 0l0 -4.71875l-1.890625 0l0 -0.796875l2.90625 0zm-0.8125 -2.96875q0.34375 0 0.546875 0.203125q0.203125 0.203125 0.203125 0.5q0 0.3125 -0.203125 0.515625q-0.203125 0.203125 -0.546875 0.203125q-0.3125 0 -0.515625 -0.203125q-0.203125 -0.203125 -0.203125 -0.515625q0 -0.296875 0.203125 -0.5q0.203125 -0.203125 0.515625 -0.203125zm7.2156677 2.828125q0.890625 0 1.5 0.40625q0.609375 0.40625 0.90625 1.15625q0.296875 0.734375 0.296875 1.734375q0 0.953125 -0.3125 1.703125q-0.3125 0.75 -0.921875 1.171875q-0.59375 0.421875 -1.484375 0.421875q-0.875 0 -1.484375 -0.40625q-0.609375 -0.40625 -0.921875 -1.140625q-0.3125 -0.75 -0.3125 -1.75q0 -0.96875 0.3125 -1.703125q0.3125 -0.75 0.921875 -1.171875q0.609375 -0.421875 1.5 -0.421875zm0 0.828125q-0.8125 0 -1.234375 0.609375q-0.40625 0.59375 -0.40625 1.859375q0 1.25 0.40625 1.859375q0.40625 0.609375 1.21875 0.609375q0.828125 0 1.234375 -0.609375q0.40625 -0.609375 0.40625 -1.859375q0 -1.265625 -0.40625 -1.859375q-0.40625 -0.609375 -1.21875 -0.609375zm4.7938232 5.625l0 -6.3125l0.859375 0l0.078125 0.875q0.390625 -0.484375 0.96875 -0.75q0.578125 -0.265625 1.125 -0.265625q0.921875 0 1.34375 0.5q0.421875 0.484375 0.421875 1.359375l0 4.59375l-1.0 0l0 -3.84375q0 -0.65625 -0.078125 -1.046875q-0.0625 -0.40625 -0.296875 -0.578125q-0.234375 -0.1875 -0.703125 -0.1875q-0.375 0 -0.703125 0.171875q-0.328125 0.15625 -0.59375 0.40625q-0.25 0.234375 -0.40625 0.46875l0 4.609375l-1.015625 0zm9.356323 -0.703125q0.71875 0 1.140625 -0.265625q0.421875 -0.265625 0.421875 -0.734375q0 -0.28125 -0.109375 -0.484375q-0.09375 -0.21875 -0.421875 -0.375q-0.328125 -0.171875 -1.0 -0.34375q-0.65625 -0.171875 -1.140625 -0.375q-0.46875 -0.21875 -0.75 -0.5625q-0.265625 -0.34375 -0.265625 -0.890625q0 -0.53125 0.296875 -0.90625q0.3125 -0.390625 0.84375 -0.59375q0.546875 -0.21875 1.265625 -0.21875q0.765625 0 1.328125 0.203125q0.5625 0.203125 0.96875 0.5l-0.453125 0.6875q-0.359375 -0.25 -0.796875 -0.40625q-0.421875 -0.171875 -1.03125 -0.171875q-0.75 0 -1.0625 0.234375q-0.3125 0.234375 -0.3125 0.59375q0 0.28125 0.15625 0.46875q0.15625 0.1875 0.515625 0.328125q0.375 0.140625 1.015625 0.3125q0.609375 0.171875 1.0625 0.40625q0.46875 0.21875 0.71875 0.59375q0.265625 0.375 0.265625 0.953125q0 0.671875 -0.390625 1.09375q-0.375 0.421875 -0.984375 0.609375q-0.609375 0.1875 -1.28125 0.1875q-0.859375 0 -1.46875 -0.25q-0.59375 -0.25 -1.015625 -0.609375l0.578125 -0.65625q0.375 0.296875 0.859375 0.484375q0.484375 0.1875 1.046875 0.1875z" fill-rule="nonzero"/><path fill="#eeeeee" d="m447.89542 129.86371l1.015625 0.125l0 8.859375l-0.890625 0l-0.09375 -0.828125q-0.359375 0.5 -0.8125 0.734375q-0.453125 0.234375 -0.984375 0.234375q-0.8125 0 -1.359375 -0.40625q-0.53125 -0.421875 -0.796875 -1.15625q-0.25 -0.75 -0.25 -1.734375q0 -0.9375 0.296875 -1.6875q0.296875 -0.75 0.84375 -1.171875q0.5625 -0.4375 1.34375 -0.4375q0.546875 0 0.953125 0.1875q0.421875 0.1875 0.734375 0.5625l0 -3.28125zm-1.421875 3.34375q-0.796875 0 -1.234375 0.625q-0.421875 0.609375 -0.421875 1.859375q0 0.828125 0.171875 1.375q0.1875 0.546875 0.515625 0.828125q0.34375 0.28125 0.84375 0.28125q0.53125 0 0.90625 -0.3125q0.390625 -0.3125 0.640625 -0.6875l0 -3.15625q-0.25 -0.390625 -0.625 -0.59375q-0.359375 -0.21875 -0.796875 -0.21875zm8.043823 -0.671875l0 5.515625l1.78125 0l0 0.796875l-4.734375 0l0 -0.796875l1.9375 0l0 -4.71875l-1.890625 0l0 -0.796875l2.90625 0zm-0.8125 -2.96875q0.34375 0 0.546875 0.203125q0.203125 0.203125 0.203125 0.5q0 0.3125 -0.203125 0.515625q-0.203125 0.203125 -0.546875 0.203125q-0.3125 0 -0.515625 -0.203125q-0.203125 -0.203125 -0.203125 -0.515625q0 -0.296875 0.203125 -0.5q0.203125 -0.203125 0.515625 -0.203125zm6.9656677 8.578125q0.71875 0 1.140625 -0.265625q0.421875 -0.265625 0.421875 -0.734375q0 -0.28125 -0.109375 -0.484375q-0.09375 -0.21875 -0.421875 -0.375q-0.328125 -0.171875 -1.0 -0.34375q-0.65625 -0.171875 -1.140625 -0.375q-0.46875 -0.21875 -0.75 -0.5625q-0.265625 -0.34375 -0.265625 -0.890625q0 -0.53125 0.296875 -0.90625q0.3125 -0.390625 0.84375 -0.59375q0.546875 -0.21875 1.265625 -0.21875q0.765625 0 1.328125 0.203125q0.5625 0.203125 0.96875 0.5l-0.453125 0.6875q-0.359375 -0.25 -0.796875 -0.40625q-0.421875 -0.171875 -1.03125 -0.171875q-0.75 0 -1.0625 0.234375q-0.3125 0.234375 -0.3125 0.59375q0 0.28125 0.15625 0.46875q0.15625 0.1875 0.515625 0.328125q0.375 0.140625 1.015625 0.3125q0.609375 0.171875 1.0625 0.40625q0.46875 0.21875 0.71875 0.59375q0.265625 0.375 0.265625 0.953125q0 0.671875 -0.390625 1.09375q-0.375 0.421875 -0.984375 0.609375q-0.609375 0.1875 -1.28125 0.1875q-0.859375 0 -1.46875 -0.25q-0.59375 -0.25 -1.015625 -0.609375l0.578125 -0.65625q0.375 0.296875 0.859375 0.484375q0.484375 0.1875 1.046875 0.1875zm7.8719482 -5.75q0.84375 0 1.34375 0.40625q0.5 0.40625 0.71875 1.15625q0.21875 0.734375 0.21875 1.734375q0 0.953125 -0.265625 1.703125q-0.265625 0.734375 -0.8125 1.171875q-0.53125 0.421875 -1.359375 0.421875q-1.03125 0 -1.65625 -0.734375l0 3.015625l-1.015625 0.125l0 -8.859375l0.859375 0l0.078125 0.875q0.359375 -0.484375 0.84375 -0.75q0.484375 -0.265625 1.046875 -0.265625zm-0.234375 0.8125q-0.53125 0 -0.9375 0.3125q-0.390625 0.3125 -0.640625 0.703125l0 3.125q0.234375 0.375 0.609375 0.59375q0.375 0.203125 0.828125 0.203125q0.796875 0 1.1875 -0.59375q0.390625 -0.609375 0.390625 -1.875q0 -0.828125 -0.15625 -1.375q-0.15625 -0.546875 -0.46875 -0.8125q-0.3125 -0.28125 -0.8125 -0.28125zm9.137543 4.265625q0 0.375 0.125 0.546875q0.125 0.171875 0.390625 0.265625l-0.25 0.703125q-0.40625 -0.0625 -0.71875 -0.265625q-0.296875 -0.203125 -0.4375 -0.625q-0.34375 0.4375 -0.859375 0.671875q-0.5 0.21875 -1.125 0.21875q-0.953125 0 -1.5 -0.53125q-0.53125 -0.546875 -0.53125 -1.421875q0 -0.984375 0.75 -1.5q0.765625 -0.515625 2.203125 -0.515625l0.9375 0l0 -0.53125q0 -0.6875 -0.40625 -0.96875q-0.390625 -0.28125 -1.109375 -0.28125q-0.3125 0 -0.734375 0.078125q-0.40625 0.0625 -0.90625 0.234375l-0.265625 -0.75q0.59375 -0.21875 1.09375 -0.3125q0.515625 -0.09375 0.96875 -0.09375q1.1875 0 1.78125 0.546875q0.59375 0.546875 0.59375 1.5l0 3.03125zm-2.609375 0.75q0.46875 0 0.890625 -0.234375q0.421875 -0.25 0.703125 -0.671875l0 -1.625l-0.921875 0q-1.03125 0 -1.46875 0.359375q-0.421875 0.359375 -0.421875 0.96875q0 0.59375 0.296875 0.90625q0.3125 0.296875 0.921875 0.296875zm10.293823 0.3125q-0.328125 0.203125 -0.796875 0.328125q-0.453125 0.125 -0.890625 0.125q-1.015625 0 -1.578125 -0.53125q-0.546875 -0.546875 -0.546875 -1.375l0 -3.765625l-1.453125 0l0 -0.78125l1.453125 0l0 -1.4375l1.0 -0.125l0 1.5625l2.1875 0l-0.109375 0.78125l-2.078125 0l0 3.75q0 0.53125 0.28125 0.8125q0.28125 0.265625 0.9375 0.265625q0.34375 0 0.640625 -0.078125q0.3125 -0.09375 0.5625 -0.21875l0.390625 0.6875zm5.0437927 -0.421875q0.46875 0 0.875 -0.15625q0.421875 -0.15625 0.765625 -0.390625l0.5 0.65625q-0.421875 0.359375 -1.0 0.5625q-0.578125 0.203125 -1.140625 0.203125q-0.9375 0 -1.609375 -0.40625q-0.65625 -0.40625 -1.015625 -1.140625q-0.34375 -0.734375 -0.34375 -1.71875q0 -0.953125 0.34375 -1.703125q0.359375 -0.765625 1.015625 -1.1875q0.671875 -0.4375 1.625 -0.4375q0.609375 0 1.125 0.1875q0.53125 0.1875 0.984375 0.546875l-0.5 0.671875q-0.390625 -0.28125 -0.796875 -0.421875q-0.40625 -0.140625 -0.828125 -0.140625q-0.8125 0 -1.34375 0.609375q-0.53125 0.609375 -0.53125 1.875q0 0.828125 0.234375 1.359375q0.25 0.53125 0.671875 0.78125q0.421875 0.25 0.96875 0.25zm5.3563232 -8.21875l0 3.5q0.375 -0.5 0.90625 -0.75q0.546875 -0.25 1.109375 -0.25q0.921875 0 1.34375 0.5q0.421875 0.484375 0.421875 1.359375l0 4.59375l-1.0 0l0 -4.5625q0 -0.578125 -0.265625 -0.828125q-0.265625 -0.265625 -0.828125 -0.265625q-0.359375 0 -0.6875 0.171875q-0.328125 0.15625 -0.59375 0.390625q-0.25 0.234375 -0.40625 0.484375l0 4.609375l-1.015625 0l0 -8.84375l1.015625 -0.109375z" fill-rule="nonzero"/><path fill="#000000" fill-opacity="0.0" d="m751.084 358.44095l-161.25983 85.98425" fill-rule="evenodd"/><path stroke="#f92672" stroke-width="4.0" stroke-linejoin="round" stroke-linecap="butt" d="m751.084 358.44095l-140.08221 74.69229" fill-rule="evenodd"/><path fill="#f92672" stroke="#f92672" stroke-width="4.0" stroke-linecap="butt" d="m607.8932 427.30325l-12.909119 14.370636l19.12622 -2.7106934z" fill-rule="evenodd"/><path fill="#000000" fill-opacity="0.0" d="m623.5696 382.04987l144.69287 0l0 88.44095l-144.69287 0z" fill-rule="evenodd"/><path fill="#eeeeee" d="m669.8751 422.52472l0.46875 8.265625l-1.0 0l-0.25 -4.3125q-0.015625 -0.4375 -0.046875 -0.890625q-0.015625 -0.453125 -0.015625 -0.859375q0 -0.421875 0 -0.734375q0 -0.328125 0 -0.515625l-1.40625 5.828125l-1.03125 0l-1.5 -5.828125q0 0.171875 0 0.515625q0.015625 0.34375 0.015625 0.765625q0.015625 0.421875 0 0.875q-0.015625 0.453125 -0.03125 0.828125l-0.21875 4.328125l-0.984375 0l0.46875 -8.265625l1.453125 0l1.34375 5.65625l1.28125 -5.65625l1.453125 0zm4.4500732 1.8125q0.890625 0 1.5 0.40625q0.609375 0.40625 0.90625 1.15625q0.296875 0.734375 0.296875 1.734375q0 0.953125 -0.3125 1.703125q-0.3125 0.75 -0.921875 1.171875q-0.59375 0.421875 -1.484375 0.421875q-0.875 0 -1.484375 -0.40625q-0.609375 -0.40625 -0.921875 -1.140625q-0.3125 -0.75 -0.3125 -1.75q0 -0.96875 0.3125 -1.703125q0.3125 -0.75 0.921875 -1.171875q0.609375 -0.421875 1.5 -0.421875zm0 0.828125q-0.8125 0 -1.234375 0.609375q-0.40625 0.59375 -0.40625 1.859375q0 1.25 0.40625 1.859375q0.40625 0.609375 1.21875 0.609375q0.828125 0 1.234375 -0.609375q0.40625 -0.609375 0.40625 -1.859375q0 -1.265625 -0.40625 -1.859375q-0.40625 -0.609375 -1.21875 -0.609375zm8.575073 -3.359375l1.015625 0.125l0 8.859375l-0.890625 0l-0.09375 -0.828125q-0.359375 0.5 -0.8125 0.734375q-0.453125 0.234375 -0.984375 0.234375q-0.8125 0 -1.359375 -0.40625q-0.53125 -0.421875 -0.796875 -1.15625q-0.25 -0.75 -0.25 -1.734375q0 -0.9375 0.296875 -1.6875q0.296875 -0.75 0.84375 -1.171875q0.5625 -0.4375 1.34375 -0.4375q0.546875 0 0.953125 0.1875q0.421875 0.1875 0.734375 0.5625l0 -3.28125zm-1.421875 3.34375q-0.796875 0 -1.234375 0.625q-0.421875 0.609375 -0.421875 1.859375q0 0.828125 0.171875 1.375q0.1875 0.546875 0.515625 0.828125q0.34375 0.28125 0.84375 0.28125q0.53125 0 0.90625 -0.3125q0.390625 -0.3125 0.640625 -0.6875l0 -3.15625q-0.25 -0.390625 -0.625 -0.59375q-0.359375 -0.21875 -0.796875 -0.21875zm8.043762 -0.671875l0 5.515625l1.78125 0l0 0.796875l-4.734375 0l0 -0.796875l1.9375 0l0 -4.71875l-1.890625 0l0 -0.796875l2.90625 0zm-0.8125 -2.96875q0.34375 0 0.546875 0.203125q0.203125 0.203125 0.203125 0.5q0 0.3125 -0.203125 0.515625q-0.203125 0.203125 -0.546875 0.203125q-0.3125 0 -0.515625 -0.203125q-0.203125 -0.203125 -0.203125 -0.515625q0 -0.296875 0.203125 -0.5q0.203125 -0.203125 0.515625 -0.203125zm8.543823 0.296875q0.515625 0 0.921875 0.09375q0.421875 0.078125 0.78125 0.25l-0.3125 0.75q-0.3125 -0.140625 -0.65625 -0.203125q-0.34375 -0.0625 -0.703125 -0.0625q-0.65625 0 -1.0 0.265625q-0.328125 0.25 -0.328125 0.78125l0 1.28125l2.140625 0l-0.109375 0.796875l-2.03125 0l0 5.03125l-1.0 0l0 -5.03125l-1.515625 0l0 -0.796875l1.515625 0l0 -1.265625q0 -0.578125 0.296875 -1.0q0.296875 -0.4375 0.8125 -0.65625q0.53125 -0.234375 1.1875 -0.234375zm8.731323 2.671875l-2.234375 6.359375q-0.21875 0.640625 -0.5625 1.171875q-0.328125 0.53125 -0.875 0.875q-0.546875 0.359375 -1.375 0.4375l-0.15625 -0.796875q0.65625 -0.109375 1.03125 -0.328125q0.375 -0.21875 0.59375 -0.578125q0.21875 -0.34375 0.390625 -0.828125l-0.328125 0l-2.21875 -6.3125l1.078125 0l1.8125 5.546875l1.796875 -5.546875l1.046875 0zm5.1375732 0l0 5.515625l1.78125 0l0 0.796875l-4.734375 0l0 -0.796875l1.9375 0l0 -4.71875l-1.890625 0l0 -0.796875l2.90625 0zm-0.8125 -2.96875q0.34375 0 0.546875 0.203125q0.203125 0.203125 0.203125 0.5q0 0.3125 -0.203125 0.515625q-0.203125 0.203125 -0.546875 0.203125q-0.3125 0 -0.515625 -0.203125q-0.203125 -0.203125 -0.203125 -0.515625q0 -0.296875 0.203125 -0.5q0.203125 -0.203125 0.515625 -0.203125zm4.809387 9.28125l0 -6.3125l0.859375 0l0.078125 0.875q0.390625 -0.484375 0.96875 -0.75q0.578125 -0.265625 1.125 -0.265625q0.921875 0 1.34375 0.5q0.421875 0.484375 0.421875 1.359375l0 4.59375l-1.0 0l0 -3.84375q0 -0.65625 -0.078125 -1.046875q-0.0625 -0.40625 -0.296875 -0.578125q-0.234375 -0.1875 -0.703125 -0.1875q-0.375 0 -0.703125 0.171875q-0.328125 0.15625 -0.59375 0.40625q-0.25 0.234375 -0.40625 0.46875l0 4.609375l-1.015625 0zm12.340698 -6.984375l0.3125 0.9375q-0.40625 0.125 -0.859375 0.15625q-0.453125 0.03125 -0.984375 0.03125q0.546875 0.25 0.8125 0.65625q0.28125 0.390625 0.28125 0.9375q0 0.625 -0.28125 1.109375q-0.28125 0.484375 -0.8125 0.765625q-0.53125 0.265625 -1.28125 0.265625q-0.328125 0 -0.546875 -0.015625q-0.203125 -0.03125 -0.390625 -0.09375q-0.15625 0.09375 -0.25 0.265625q-0.09375 0.15625 -0.09375 0.34375q0 0.234375 0.171875 0.390625q0.1875 0.140625 0.6875 0.140625l1.125 0q0.640625 0 1.140625 0.234375q0.515625 0.21875 0.796875 0.609375q0.296875 0.375 0.296875 0.875q0 0.921875 -0.796875 1.421875q-0.78125 0.5 -2.21875 0.5q-1.0 0 -1.59375 -0.21875q-0.578125 -0.203125 -0.828125 -0.625q-0.25 -0.421875 -0.25 -1.0625l0.921875 0q0 0.375 0.140625 0.609375q0.140625 0.234375 0.515625 0.34375q0.375 0.125 1.09375 0.125q0.6875 0 1.125 -0.125q0.453125 -0.109375 0.65625 -0.34375q0.21875 -0.21875 0.21875 -0.5625q0 -0.453125 -0.40625 -0.6875q-0.40625 -0.21875 -1.015625 -0.21875l-1.140625 0q-0.8125 0 -1.203125 -0.359375q-0.375 -0.359375 -0.375 -0.828125q0 -0.3125 0.171875 -0.59375q0.171875 -0.296875 0.515625 -0.515625q-0.546875 -0.28125 -0.8125 -0.703125q-0.25 -0.4375 -0.25 -1.046875q0 -0.640625 0.3125 -1.125q0.328125 -0.5 0.890625 -0.78125q0.578125 -0.28125 1.328125 -0.28125q0.796875 -0.015625 1.28125 -0.078125q0.5 -0.0625 0.859375 -0.171875q0.359375 -0.125 0.734375 -0.28125zm-2.875 1.265625q-0.765625 0 -1.140625 0.421875q-0.359375 0.40625 -0.359375 1.03125q0 0.640625 0.375 1.0625q0.375 0.40625 1.140625 0.40625q0.671875 0 1.015625 -0.375q0.359375 -0.390625 0.359375 -1.09375q0 -0.71875 -0.359375 -1.078125q-0.34375 -0.375 -1.03125 -0.375z" fill-rule="nonzero"/><path fill="#ffab40" d="m179.74278 90.84806l0 0c0 -8.140923 6.599518 -14.740448 14.740448 -14.740448l190.14116 0c3.9093933 0 7.6586914 1.553009 10.423065 4.317375c2.7643738 2.7643738 4.317383 6.5136642 4.317383 10.423073l0 58.960045c0 8.14093 -6.5995483 14.740448 -14.740448 14.740448l-190.14116 0l0 0c-8.14093 0 -14.740448 -6.599518 -14.740448 -14.740448z" fill-rule="evenodd"/><path stroke="#ffab40" stroke-width="4.0" stroke-linejoin="round" stroke-linecap="butt" d="m179.74278 90.84806l0 0c0 -8.140923 6.599518 -14.740448 14.740448 -14.740448l190.14116 0c3.9093933 0 7.6586914 1.553009 10.423065 4.317375c2.7643738 2.7643738 4.317383 6.5136642 4.317383 10.423073l0 58.960045c0 8.14093 -6.5995483 14.740448 -14.740448 14.740448l-190.14116 0l0 0c-8.14093 0 -14.740448 -6.599518 -14.740448 -14.740448z" fill-rule="evenodd"/><path fill="#23241f" d="m265.61328 127.303085l4.96875 -15.734375l2.328125 0l-6.140625 18.359375l-2.40625 0l-6.140625 -18.359375l2.484375 0l4.90625 15.734375zm17.728088 -11.40625l0 12.265625l3.953125 0l0 1.765625l-10.515625 0l0 -1.765625l4.328125 0l0 -10.5l-4.203125 0l0 -1.765625l6.4375 0zm-1.78125 -6.578125q0.75 0 1.1875 0.453125q0.453125 0.453125 0.453125 1.109375q0 0.6875 -0.453125 1.140625q-0.4375 0.453125 -1.1875 0.453125q-0.703125 0 -1.15625 -0.453125q-0.453125 -0.453125 -0.453125 -1.140625q0 -0.65625 0.453125 -1.109375q0.453125 -0.453125 1.15625 -0.453125zm12.431183 14.390625q0.0625 1.625 0.625 2.65625q0.5625 1.03125 1.484375 1.515625q0.921875 0.484375 2.0 0.484375q1.078125 0 1.953125 -0.3125q0.875 -0.328125 1.78125 -0.953125l1.0625 1.484375q-0.984375 0.765625 -2.25 1.21875q-1.25 0.4375 -2.578125 0.4375q-2.03125 0 -3.484375 -0.921875q-1.4375 -0.921875 -2.1875 -2.5625q-0.75 -1.65625 -0.75 -3.828125q0 -2.125 0.75 -3.78125q0.765625 -1.65625 2.140625 -2.59375q1.375 -0.953125 3.234375 -0.953125q1.78125 0 3.0625 0.84375q1.28125 0.828125 1.953125 2.375q0.6875 1.53125 0.6875 3.65625q0 0.359375 -0.015625 0.671875q0 0.3125 -0.03125 0.5625l-9.4375 0zm3.8125 -6.265625q-1.5625 0 -2.609375 1.109375q-1.046875 1.09375 -1.1875 3.421875l7.3125 0q-0.03125 -2.25 -0.984375 -3.390625q-0.9375 -1.140625 -2.53125 -1.140625zm20.821838 12.484375l-3.171875 0l-1.8125 -10.296875l-1.96875 10.296875l-3.09375 0l-2.5625 -14.03125l2.296875 0l1.78125 12.640625l2.234375 -10.859375l2.65625 0l2.125 10.859375l1.78125 -12.640625l2.1875 0l-2.453125 14.03125z" fill-rule="nonzero"/><path fill="#ffab40" d="m562.18896 90.84806l0 0c0 -8.140923 6.5995483 -14.740448 14.7404785 -14.740448l190.14111 0c3.9094238 0 7.6586914 1.553009 10.423096 4.317375c2.7643433 2.7643738 4.317383 6.5136642 4.317383 10.423073l0 58.960045c0 8.14093 -6.5995483 14.740448 -14.7404785 14.740448l-190.14111 0l0 0c-8.14093 0 -14.7404785 -6.599518 -14.7404785 -14.740448z" fill-rule="evenodd"/><path stroke="#ffab40" stroke-width="4.0" stroke-linejoin="round" stroke-linecap="butt" d="m562.18896 90.84806l0 0c0 -8.140923 6.5995483 -14.740448 14.7404785 -14.740448l190.14111 0c3.9094238 0 7.6586914 1.553009 10.423096 4.317375c2.7643433 2.7643738 4.317383 6.5136642 4.317383 10.423073l0 58.960045c0 8.14093 -6.5995483 14.740448 -14.7404785 14.740448l-190.14111 0l0 0c-8.14093 0 -14.7404785 -6.599518 -14.7404785 -14.740448z" fill-rule="evenodd"/><path fill="#23241f" d="m627.58453 125.25621l-7.265625 0l-1.46875 4.671875l-2.28125 0l5.96875 -18.359375l2.953125 0l5.984375 18.359375l-2.4375 0l-1.453125 -4.671875zm-6.671875 -1.921875l6.0625 0l-3.015625 -9.8125l-3.046875 9.8125zm20.118713 4.96875q1.0625 0 1.96875 -0.34375q0.921875 -0.34375 1.6875 -0.890625l1.09375 1.46875q-0.921875 0.796875 -2.21875 1.25q-1.28125 0.453125 -2.53125 0.453125q-2.078125 0 -3.5625 -0.90625q-1.46875 -0.90625 -2.25 -2.53125q-0.765625 -1.640625 -0.765625 -3.828125q0 -2.109375 0.78125 -3.78125q0.78125 -1.671875 2.25 -2.625q1.46875 -0.96875 3.578125 -0.96875q1.34375 0 2.515625 0.40625q1.1875 0.40625 2.171875 1.21875l-1.09375 1.5q-0.890625 -0.625 -1.796875 -0.9375q-0.890625 -0.328125 -1.828125 -0.328125q-1.8125 0 -2.984375 1.359375q-1.171875 1.359375 -1.171875 4.15625q0 1.859375 0.53125 3.046875q0.546875 1.171875 1.484375 1.734375q0.953125 0.546875 2.140625 0.546875zm20.806213 0.921875q-0.734375 0.46875 -1.765625 0.734375q-1.015625 0.28125 -2.0 0.28125q-2.265625 0 -3.5 -1.1875q-1.21875 -1.1875 -1.21875 -3.0625l0 -8.359375l-3.21875 0l0 -1.734375l3.21875 0l0 -3.1875l2.234375 -0.265625l0 3.453125l4.859375 0l-0.265625 1.734375l-4.59375 0l0 8.34375q0 1.171875 0.625 1.78125q0.625 0.609375 2.0625 0.609375q0.78125 0 1.4375 -0.1875q0.671875 -0.1875 1.25 -0.46875l0.875 1.515625zm11.946838 -13.328125l0 12.265625l3.953125 0l0 1.765625l-10.515625 0l0 -1.765625l4.328125 0l0 -10.5l-4.203125 0l0 -1.765625l6.4375 0zm-1.78125 -6.578125q0.75 0 1.1875 0.453125q0.453125 0.453125 0.453125 1.109375q0 0.6875 -0.453125 1.140625q-0.4375 0.453125 -1.1875 0.453125q-0.703125 0 -1.15625 -0.453125q-0.453125 -0.453125 -0.453125 -1.140625q0 -0.65625 0.453125 -1.109375q0.453125 -0.453125 1.15625 -0.453125zm16.024902 6.28125q1.984375 0 3.3125 0.90625q1.34375 0.890625 2.015625 2.53125q0.671875 1.640625 0.671875 3.859375q0 2.15625 -0.703125 3.8125q-0.6875 1.640625 -2.03125 2.59375q-1.328125 0.9375 -3.296875 0.9375q-1.96875 0 -3.328125 -0.90625q-1.34375 -0.90625 -2.03125 -2.546875q-0.6875 -1.65625 -0.6875 -3.859375q0 -2.171875 0.6875 -3.8125q0.703125 -1.65625 2.046875 -2.578125q1.359375 -0.9375 3.34375 -0.9375zm0 1.828125q-1.828125 0 -2.75 1.34375q-0.921875 1.328125 -0.921875 4.15625q0 2.78125 0.90625 4.125q0.921875 1.34375 2.734375 1.34375q1.8125 0 2.71875 -1.34375q0.921875 -1.34375 0.921875 -4.15625q0 -2.796875 -0.90625 -4.125q-0.90625 -1.34375 -2.703125 -1.34375zm10.634338 12.5l0 -14.03125l1.90625 0l0.1875 1.9375q0.84375 -1.078125 2.125 -1.65625q1.296875 -0.578125 2.5 -0.578125q2.078125 0 3.015625 1.09375q0.9375 1.09375 0.9375 3.03125l0 10.203125l-2.234375 0l0 -8.546875q0 -1.4375 -0.171875 -2.3125q-0.15625 -0.890625 -0.671875 -1.296875q-0.5 -0.40625 -1.5625 -0.40625q-0.828125 0 -1.5625 0.359375q-0.71875 0.359375 -1.28125 0.90625q-0.5625 0.53125 -0.9375 1.078125l0 10.21875l-2.25 0zm20.774963 -1.546875q1.609375 0 2.546875 -0.609375q0.9375 -0.609375 0.9375 -1.609375q0 -0.640625 -0.234375 -1.109375q-0.234375 -0.46875 -0.953125 -0.84375q-0.71875 -0.375 -2.203125 -0.75q-1.453125 -0.359375 -2.53125 -0.828125q-1.078125 -0.46875 -1.671875 -1.234375q-0.578125 -0.765625 -0.578125 -1.96875q0 -1.1875 0.671875 -2.046875q0.671875 -0.859375 1.859375 -1.3125q1.203125 -0.46875 2.796875 -0.46875q1.6875 0 2.9375 0.453125q1.265625 0.4375 2.15625 1.09375l-1.0 1.515625q-0.796875 -0.546875 -1.765625 -0.890625q-0.953125 -0.359375 -2.3125 -0.359375q-1.640625 0 -2.34375 0.515625q-0.6875 0.515625 -0.6875 1.328125q0 0.609375 0.328125 1.015625q0.34375 0.40625 1.15625 0.734375q0.828125 0.328125 2.25 0.71875q1.375 0.359375 2.390625 0.859375q1.015625 0.5 1.59375 1.328125q0.578125 0.828125 0.578125 2.140625q0 1.484375 -0.859375 2.421875q-0.859375 0.921875 -2.21875 1.34375q-1.34375 0.421875 -2.84375 0.421875q-1.90625 0 -3.25 -0.546875q-1.34375 -0.5625 -2.25 -1.359375l1.28125 -1.46875q0.828125 0.671875 1.890625 1.09375q1.078125 0.421875 2.328125 0.421875z" fill-rule="nonzero"/><path fill="#ffab40" d="m641.27295 284.74045l0 0c0 -8.14093 6.5995483 -14.740448 14.7404785 -14.740448l190.14111 0c3.9094238 0 7.6587524 1.553009 10.423096 4.317383c2.7643433 2.7643738 4.317383 6.513672 4.317383 10.423065l0 58.960052c0 8.14093 -6.5995483 14.740448 -14.7404785 14.740448l-190.14111 0l0 0c-8.14093 0 -14.7404785 -6.599518 -14.7404785 -14.740448z" fill-rule="evenodd"/><path stroke="#ffab40" stroke-width="4.0" stroke-linejoin="round" stroke-linecap="butt" d="m641.27295 284.74045l0 0c0 -8.14093 6.5995483 -14.740448 14.7404785 -14.740448l190.14111 0c3.9094238 0 7.6587524 1.553009 10.423096 4.317383c2.7643433 2.7643738 4.317383 6.513672 4.317383 10.423065l0 58.960052c0 8.14093 -6.5995483 14.740448 -14.7404785 14.740448l-190.14111 0l0 0c-8.14093 0 -14.7404785 -6.599518 -14.7404785 -14.740448z" fill-rule="evenodd"/><path fill="#23241f" d="m709.43414 310.61734q0 1.375 -0.59375 2.40625q-0.59375 1.015625 -1.609375 1.6875q-1.015625 0.65625 -2.28125 0.96875l5.4375 8.140625l-2.765625 0l-5.015625 -7.875l-2.46875 0l0 7.875l-2.328125 0l0 -18.359375l4.71875 0q3.40625 0 5.15625 1.3125q1.75 1.296875 1.75 3.84375zm-2.484375 0q0 -1.78125 -1.015625 -2.546875q-1.0 -0.765625 -3.140625 -0.765625l-2.65625 0l0 6.828125l2.65625 0q1.96875 0 3.0625 -0.796875q1.09375 -0.8125 1.09375 -2.71875zm8.587463 6.984375q0.0625 1.625 0.625 2.65625q0.5625 1.03125 1.484375 1.515625q0.921875 0.484375 2.0 0.484375q1.078125 0 1.953125 -0.3125q0.875 -0.328125 1.78125 -0.953125l1.0625 1.484375q-0.984375 0.765625 -2.25 1.21875q-1.25 0.4375 -2.578125 0.4375q-2.03125 0 -3.484375 -0.921875q-1.4375 -0.921875 -2.1875 -2.5625q-0.75 -1.65625 -0.75 -3.828125q0 -2.125 0.75 -3.78125q0.765625 -1.65625 2.140625 -2.59375q1.375 -0.953125 3.234375 -0.953125q1.78125 0 3.0625 0.84375q1.28125 0.828125 1.953125 2.375q0.6875 1.53125 0.6875 3.65625q0 0.359375 -0.015625 0.671875q0 0.3125 -0.03125 0.5625l-9.4375 0zm3.8125 -6.265625q-1.5625 0 -2.609375 1.109375q-1.046875 1.09375 -1.1875 3.421875l7.3125 0q-0.03125 -2.25 -0.984375 -3.390625q-0.9375 -1.140625 -2.53125 -1.140625zm18.821838 -7.484375l2.234375 0.28125l0 19.6875l-1.953125 0l-0.21875 -1.859375q-0.78125 1.125 -1.8125 1.65625q-1.015625 0.515625 -2.171875 0.515625q-1.828125 0 -3.015625 -0.921875q-1.1875 -0.921875 -1.765625 -2.5625q-0.5625 -1.65625 -0.5625 -3.828125q0 -2.109375 0.65625 -3.765625q0.65625 -1.65625 1.875 -2.609375q1.234375 -0.953125 2.96875 -0.953125q1.21875 0 2.140625 0.421875q0.921875 0.421875 1.625 1.234375l0 -7.296875zm-3.171875 7.4375q-1.765625 0 -2.71875 1.375q-0.9375 1.375 -0.9375 4.15625q0 1.8125 0.390625 3.046875q0.390625 1.21875 1.140625 1.84375q0.75 0.609375 1.84375 0.609375q1.203125 0 2.046875 -0.671875q0.84375 -0.6875 1.40625 -1.546875l0 -7.015625q-0.578125 -0.84375 -1.390625 -1.3125q-0.8125 -0.484375 -1.78125 -0.484375zm13.009338 -1.5l0 9.9375q0 1.390625 0.5625 2.0q0.578125 0.609375 1.796875 0.609375q1.15625 0 2.1875 -0.65625q1.03125 -0.65625 1.609375 -1.5625l0 -10.328125l2.234375 0l0 14.03125l-1.90625 0l-0.1875 -1.890625q-0.828125 1.0625 -2.046875 1.640625q-1.203125 0.5625 -2.4375 0.5625q-2.046875 0 -3.0625 -1.078125q-1.0 -1.09375 -1.0 -3.0625l0 -10.203125l2.25 0zm20.087402 12.40625q1.0625 0 1.96875 -0.34375q0.921875 -0.34375 1.6875 -0.890625l1.09375 1.46875q-0.921875 0.796875 -2.21875 1.25q-1.28125 0.453125 -2.53125 0.453125q-2.078125 0 -3.5625 -0.90625q-1.46875 -0.90625 -2.25 -2.53125q-0.765625 -1.640625 -0.765625 -3.828125q0 -2.109375 0.78125 -3.78125q0.78125 -1.671875 2.25 -2.625q1.46875 -0.96875 3.578125 -0.96875q1.34375 0 2.515625 0.40625q1.1875 0.40625 2.171875 1.21875l-1.09375 1.5q-0.890625 -0.625 -1.796875 -0.9375q-0.890625 -0.328125 -1.828125 -0.328125q-1.8125 0 -2.984375 1.359375q-1.171875 1.359375 -1.171875 4.15625q0 1.859375 0.53125 3.046875q0.546875 1.171875 1.484375 1.734375q0.953125 0.546875 2.140625 0.546875zm11.415588 -4.59375q0.0625 1.625 0.625 2.65625q0.5625 1.03125 1.484375 1.515625q0.921875 0.484375 2.0 0.484375q1.078125 0 1.953125 -0.3125q0.875 -0.328125 1.78125 -0.953125l1.0625 1.484375q-0.984375 0.765625 -2.25 1.21875q-1.25 0.4375 -2.578125 0.4375q-2.03125 0 -3.484375 -0.921875q-1.4375 -0.921875 -2.1875 -2.5625q-0.75 -1.65625 -0.75 -3.828125q0 -2.125 0.75 -3.78125q0.765625 -1.65625 2.140625 -2.59375q1.375 -0.953125 3.234375 -0.953125q1.78125 0 3.0625 0.84375q1.28125 0.828125 1.953125 2.375q0.6875 1.53125 0.6875 3.65625q0 0.359375 -0.015625 0.671875q0 0.3125 -0.03125 0.5625l-9.4375 0zm3.8125 -6.265625q-1.5625 0 -2.609375 1.109375q-1.046875 1.09375 -1.1875 3.421875l7.3125 0q-0.03125 -2.25 -0.984375 -3.390625q-0.9375 -1.140625 -2.53125 -1.140625zm10.556213 12.484375l0 -1.71875l2.1875 0l0 -10.59375l-2.1875 0l0 -1.71875l3.890625 0l0.421875 3.3125q0.8125 -1.734375 1.96875 -2.671875q1.15625 -0.953125 3.0625 -0.953125q0.578125 0 1.03125 0.09375q0.46875 0.078125 0.953125 0.21875l-0.65625 2.0q-0.4375 -0.125 -0.796875 -0.1875q-0.359375 -0.0625 -0.828125 -0.0625q-1.609375 0 -2.765625 1.15625q-1.15625 1.140625 -1.859375 3.46875l0 5.9375l2.859375 0l0 1.71875l-7.28125 0zm9.171875 -9.296875l0 -3.046875l0.21875 -1.6875l1.9375 0l-0.3125 4.734375l-1.84375 0z" fill-rule="nonzero"/></g></svg>