<svg version="1.1" viewBox="0.0 0.0 960.0 540.0" fill="none" stroke="none" stroke-linecap="square" stroke-miterlimit="10" xmlns:xlink="http://www.w3.org/1999/xlink" xmlns="http://www.w3.org/2000/svg"><clipPath id="g77fa5779fd_0_602.0"><path d="m0 0l960.0 0l0 540.0l-960.0 0l0 -540.0z" clip-rule="nonzero"/></clipPath><g clip-path="url(#g77fa5779fd_0_602.0)"><path fill="#23241f" d="m0 0l960.0 0l0 540.0l-960.0 0z" fill-rule="evenodd"/><path fill="#000000" fill-opacity="0.0" d="m343.28873 270.0l58.362183 0" fill-rule="evenodd"/><path stroke="#f92672" stroke-width="4.0" stroke-linejoin="round" stroke-linecap="butt" d="m343.28873 270.0l34.362183 0" fill-rule="evenodd"/><path fill="#f92672" stroke="#f92672" stroke-width="4.0" stroke-linecap="butt" d="m377.6509 276.60693l18.152405 -6.6069336l-18.152405 -6.6069336z" fill-rule="evenodd"/><path fill="#0d3640" d="m182.37534 105.10236l0 0c0 -0.0027389526 0.0022125244 -0.004966736 0.0049591064 -0.004966736l595.61707 0.004966736c0.0013427734 0 0.0025634766 5.187988E-4 0.003540039 0.001449585c9.1552734E-4 9.3078613E-4 0.0014038086 0.0021972656 0.0014038086 0.0035095215l-0.0049438477 42.04229c0 0.0027313232 -0.0021972656 0.0049591064 -0.0049438477 0.0049591064l-595.61707 -0.0049591064l0 0c-0.002746582 0 -0.0049743652 -0.0022277832 -0.0049743652 -0.0049743652z" fill-rule="evenodd"/><path stroke="#595959" stroke-width="1.0" stroke-linejoin="round" stroke-linecap="butt" d="m182.37534 105.10236l0 0c0 -0.0027389526 0.0022125244 -0.004966736 0.0049591064 -0.004966736l595.61707 0.004966736c0.0013427734 0 0.0025634766 5.187988E-4 0.003540039 0.001449585c9.1552734E-4 9.3078613E-4 0.0014038086 0.0021972656 0.0014038086 0.0035095215l-0.0049438477 42.04229c0 0.0027313232 -0.0021972656 0.0049591064 -0.0049438477 0.0049591064l-595.61707 -0.0049591064l0 0c-0.002746582 0 -0.0049743652 -0.0022277832 -0.0049743652 -0.0049743652z" fill-rule="evenodd"/><path fill="#eee8d5" d="m199.73471 136.03848q-2.171875 0 -3.78125 -1.046875q-1.609375 -1.0625 -2.484375 -3.171875q-0.875 -2.109375 -0.875 -5.28125q0 -2.375 0.625 -4.140625q0.640625 -1.765625 1.71875 -2.953125q1.09375 -1.1875 2.46875 -1.765625q1.375 -0.59375 2.859375 -0.59375q1.796875 0 2.984375 0.515625q1.1875 0.5 2.265625 1.484375l-1.40625 1.453125q-0.828125 -0.78125 -1.765625 -1.15625q-0.921875 -0.375 -2.0625 -0.375q-1.0 0 -1.9375 0.390625q-0.9375 0.390625 -1.671875 1.265625q-0.734375 0.875 -1.171875 2.3125q-0.4375 1.4375 -0.4375 3.5625q0 2.65625 0.546875 4.328125q0.5625 1.65625 1.640625 2.4375q1.09375 0.78125 2.6875 0.78125q0.96875 0 1.828125 -0.21875q0.859375 -0.234375 1.671875 -0.65625l0 -5.59375l-3.609375 0l-0.28125 -1.921875l6.1875 0l0 8.734375q-1.25 0.671875 -2.65625 1.140625q-1.390625 0.46875 -3.34375 0.46875zm13.306198 -16.765625l0 6.171875l6.796875 0l0 1.90625l-6.796875 0l0 6.515625l8.328125 0l0 1.859375l-10.65625 0l0 -18.359375l10.421875 0l-0.265625 1.90625l-7.828125 0zm19.431198 0.09375l0 16.359375l-2.3125 0l0 -16.359375l-5.734375 0l0 -2.0l13.859375 0l-0.25 2.0l-5.5625 0zm27.799896 -3.546875l0 7.796875q0.828125 -1.109375 2.03125 -1.65625q1.203125 -0.5625 2.4375 -0.5625q2.0625 0 3.0 1.09375q0.953125 1.09375 0.953125 3.03125l0 10.203125l-2.234375 0l0 -10.140625q0 -1.265625 -0.59375 -1.84375q-0.59375 -0.578125 -1.84375 -0.578125q-0.796875 0 -1.515625 0.359375q-0.71875 0.359375 -1.296875 0.890625q-0.5625 0.53125 -0.9375 1.09375l0 10.21875l-2.25 0l0 -19.65625l2.25 -0.25zm24.899933 19.203125q-0.734375 0.46875 -1.765625 0.734375q-1.015625 0.28125 -2.0 0.28125q-2.265625 0 -3.5 -1.1875q-1.21875 -1.1875 -1.21875 -3.0625l0 -8.359375l-3.21875 0l0 -1.734375l3.21875 0l0 -3.1875l2.234375 -0.265625l0 3.453125l4.859375 0l-0.265625 1.734375l-4.59375 0l0 8.34375q0 1.171875 0.625 1.78125q0.625 0.609375 2.0625 0.609375q0.78125 0 1.4375 -0.1875q0.671875 -0.1875 1.25 -0.46875l0.875 1.515625zm15.993713 0q-0.734375 0.46875 -1.765625 0.734375q-1.015625 0.28125 -2.0 0.28125q-2.265625 0 -3.5 -1.1875q-1.21875 -1.1875 -1.21875 -3.0625l0 -8.359375l-3.21875 0l0 -1.734375l3.21875 0l0 -3.1875l2.234375 -0.265625l0 3.453125l4.859375 0l-0.265625 1.734375l-4.59375 0l0 8.34375q0 1.171875 0.625 1.78125q0.625 0.609375 2.0625 0.609375q0.78125 0 1.4375 -0.1875q0.671875 -0.1875 1.25 -0.46875l0.875 1.515625zm11.118683 -13.625q1.875 0 2.984375 0.90625q1.109375 0.90625 1.59375 2.5625q0.5 1.640625 0.5 3.828125q0 2.125 -0.59375 3.78125q-0.59375 1.65625 -1.796875 2.609375q-1.1875 0.953125 -3.015625 0.953125q-2.3125 0 -3.703125 -1.625l0 6.6875l-2.25 0.28125l0 -19.6875l1.90625 0l0.1875 1.953125q0.78125 -1.078125 1.84375 -1.65625q1.078125 -0.59375 2.34375 -0.59375zm-0.53125 1.796875q-1.15625 0 -2.046875 0.703125q-0.890625 0.703125 -1.453125 1.546875l0 6.96875q0.546875 0.8125 1.375 1.28125q0.828125 0.46875 1.828125 0.46875q1.75 0 2.625 -1.328125q0.890625 -1.328125 0.890625 -4.140625q0 -1.84375 -0.359375 -3.0625q-0.34375 -1.21875 -1.046875 -1.828125q-0.703125 -0.609375 -1.8125 -0.609375zm15.024963 10.984375q1.609375 0 2.546875 -0.609375q0.9375 -0.609375 0.9375 -1.609375q0 -0.640625 -0.234375 -1.109375q-0.234375 -0.46875 -0.953125 -0.84375q-0.71875 -0.375 -2.203125 -0.75q-1.453125 -0.359375 -2.53125 -0.828125q-1.078125 -0.46875 -1.671875 -1.234375q-0.578125 -0.765625 -0.578125 -1.96875q0 -1.1875 0.671875 -2.046875q0.671875 -0.859375 1.859375 -1.3125q1.203125 -0.46875 2.796875 -0.46875q1.6875 0 2.9375 0.453125q1.265625 0.4375 2.15625 1.09375l-1.0 1.515625q-0.796875 -0.546875 -1.765625 -0.890625q-0.953125 -0.359375 -2.3125 -0.359375q-1.640625 0 -2.34375 0.515625q-0.6875 0.515625 -0.6875 1.328125q0 0.609375 0.328125 1.015625q0.34375 0.40625 1.15625 0.734375q0.828125 0.328125 2.25 0.71875q1.375 0.359375 2.390625 0.859375q1.015625 0.5 1.59375 1.328125q0.578125 0.828125 0.578125 2.140625q0 1.484375 -0.859375 2.421875q-0.859375 0.921875 -2.21875 1.34375q-1.34375 0.421875 -2.84375 0.421875q-1.90625 0 -3.25 -0.546875q-1.34375 -0.5625 -2.25 -1.359375l1.28125 -1.46875q0.828125 0.671875 1.890625 1.09375q1.078125 0.421875 2.328125 0.421875zm14.368683 -0.3125q0 -0.875 0.609375 -1.515625q0.625 -0.640625 1.53125 -0.640625q0.9375 0 1.546875 0.640625q0.625 0.640625 0.625 1.515625q0 0.90625 -0.625 1.546875q-0.609375 0.625 -1.546875 0.625q-0.90625 0 -1.53125 -0.625q-0.609375 -0.640625 -0.609375 -1.546875zm0 -9.609375q0 -0.90625 0.609375 -1.53125q0.625 -0.625 1.53125 -0.625q0.9375 0 1.546875 0.625q0.625 0.625 0.625 1.53125q0 0.875 -0.625 1.53125q-0.609375 0.640625 -1.546875 0.640625q-0.90625 0 -1.53125 -0.640625q-0.609375 -0.65625 -0.609375 -1.53125zm14.378021 14.21875l-1.8125 -0.796875l11.40625 -23.53125l1.78125 0.875l-11.375 23.453125zm14.0 0l-1.8125 -0.796875l11.40625 -23.53125l1.78125 0.875l-11.375 23.453125zm16.587463 -2.75l0 -1.71875l2.1875 0l0 -10.59375l-2.1875 0l0 -1.71875l3.890625 0l0.421875 3.3125q0.8125 -1.734375 1.96875 -2.671875q1.15625 -0.953125 3.0625 -0.953125q0.578125 0 1.03125 0.09375q0.46875 0.078125 0.953125 0.21875l-0.65625 2.0q-0.4375 -0.125 -0.796875 -0.1875q-0.359375 -0.0625 -0.828125 -0.0625q-1.609375 0 -2.765625 1.15625q-1.15625 1.140625 -1.859375 3.46875l0 5.9375l2.859375 0l0 1.71875l-7.28125 0zm9.171875 -9.296875l0 -3.046875l0.21875 -1.6875l1.9375 0l-0.3125 4.734375l-1.84375 0zm8.446808 3.078125q0.0625 1.625 0.625 2.65625q0.5625 1.03125 1.484375 1.515625q0.921875 0.484375 2.0 0.484375q1.078125 0 1.953125 -0.3125q0.875 -0.328125 1.78125 -0.953125l1.0625 1.484375q-0.984375 0.765625 -2.25 1.21875q-1.25 0.4375 -2.578125 0.4375q-2.03125 0 -3.484375 -0.921875q-1.4375 -0.921875 -2.1875 -2.5625q-0.75 -1.65625 -0.75 -3.828125q0 -2.125 0.75 -3.78125q0.765625 -1.65625 2.140625 -2.59375q1.375 -0.953125 3.234375 -0.953125q1.78125 0 3.0625 0.84375q1.28125 0.828125 1.953125 2.375q0.6875 1.53125 0.6875 3.65625q0 0.359375 -0.015625 0.671875q0 0.3125 -0.03125 0.5625l-9.4375 0zm3.8125 -6.265625q-1.5625 0 -2.609375 1.109375q-1.046875 1.09375 -1.1875 3.421875l7.3125 0q-0.03125 -2.25 -0.984375 -3.390625q-0.9375 -1.140625 -2.53125 -1.140625zm15.040588 -1.84375q1.265625 0 2.234375 0.46875q0.96875 0.46875 1.6875 1.359375l0.1875 -1.53125l1.90625 0l0 19.6875l-2.234375 -0.28125l0 -7.140625q-0.765625 1.078125 -1.78125 1.578125q-1.015625 0.5 -2.171875 0.5q-1.875 0 -3.015625 -0.90625q-1.140625 -0.90625 -1.65625 -2.546875q-0.5 -1.65625 -0.5 -3.859375q0 -2.109375 0.609375 -3.765625q0.609375 -1.65625 1.8125 -2.609375q1.203125 -0.953125 2.921875 -0.953125zm0.5625 1.796875q-1.734375 0 -2.625 1.375q-0.875 1.375 -0.875 4.15625q0 1.8125 0.359375 3.03125q0.359375 1.203125 1.0625 1.8125q0.71875 0.59375 1.8125 0.59375q1.171875 0 2.03125 -0.640625q0.875 -0.65625 1.453125 -1.515625l0 -7.015625q-0.546875 -0.84375 -1.390625 -1.3125q-0.828125 -0.484375 -1.828125 -0.484375zm10.946808 12.53125l0 -1.71875l2.1875 0l0 -10.59375l-2.1875 0l0 -1.71875l3.890625 0l0.421875 3.3125q0.8125 -1.734375 1.96875 -2.671875q1.15625 -0.953125 3.0625 -0.953125q0.578125 0 1.03125 0.09375q0.46875 0.078125 0.953125 0.21875l-0.65625 2.0q-0.4375 -0.125 -0.796875 -0.1875q-0.359375 -0.0625 -0.828125 -0.0625q-1.609375 0 -2.765625 1.15625q-1.15625 1.140625 -1.859375 3.46875l0 5.9375l2.859375 0l0 1.71875l-7.28125 0zm9.171875 -9.296875l0 -3.046875l0.21875 -1.6875l1.9375 0l-0.3125 4.734375l-1.84375 0zm8.446838 3.078125q0.0625 1.625 0.625 2.65625q0.5625 1.03125 1.484375 1.515625q0.921875 0.484375 2.0 0.484375q1.078125 0 1.953125 -0.3125q0.875 -0.328125 1.78125 -0.953125l1.0625 1.484375q-0.984375 0.765625 -2.25 1.21875q-1.25 0.4375 -2.578125 0.4375q-2.03125 0 -3.484375 -0.921875q-1.4375 -0.921875 -2.1875 -2.5625q-0.75 -1.65625 -0.75 -3.828125q0 -2.125 0.75 -3.78125q0.765625 -1.65625 2.140625 -2.59375q1.375 -0.953125 3.234375 -0.953125q1.78125 0 3.0625 0.84375q1.28125 0.828125 1.953125 2.375q0.6875 1.53125 0.6875 3.65625q0 0.359375 -0.015625 0.671875q0 0.3125 -0.03125 0.5625l-9.4375 0zm3.8125 -6.265625q-1.5625 0 -2.609375 1.109375q-1.046875 1.09375 -1.1875 3.421875l7.3125 0q-0.03125 -2.25 -0.984375 -3.390625q-0.9375 -1.140625 -2.53125 -1.140625zm15.196838 10.9375q1.609375 0 2.546875 -0.609375q0.9375 -0.609375 0.9375 -1.609375q0 -0.640625 -0.234375 -1.109375q-0.234375 -0.46875 -0.953125 -0.84375q-0.71875 -0.375 -2.203125 -0.75q-1.453125 -0.359375 -2.53125 -0.828125q-1.078125 -0.46875 -1.671875 -1.234375q-0.578125 -0.765625 -0.578125 -1.96875q0 -1.1875 0.671875 -2.046875q0.671875 -0.859375 1.859375 -1.3125q1.203125 -0.46875 2.796875 -0.46875q1.6875 0 2.9375 0.453125q1.265625 0.4375 2.15625 1.09375l-1.0 1.515625q-0.796875 -0.546875 -1.765625 -0.890625q-0.953125 -0.359375 -2.3125 -0.359375q-1.640625 0 -2.34375 0.515625q-0.6875 0.515625 -0.6875 1.328125q0 0.609375 0.328125 1.015625q0.34375 0.40625 1.15625 0.734375q0.828125 0.328125 2.25 0.71875q1.375 0.359375 2.390625 0.859375q1.015625 0.5 1.59375 1.328125q0.578125 0.828125 0.578125 2.140625q0 1.484375 -0.859375 2.421875q-0.859375 0.921875 -2.21875 1.34375q-1.34375 0.421875 -2.84375 0.421875q-1.90625 0 -3.25 -0.546875q-1.34375 -0.5625 -2.25 -1.359375l1.28125 -1.46875q0.828125 0.671875 1.890625 1.09375q1.078125 0.421875 2.328125 0.421875zm14.181213 -0.5q0 -0.65625 0.296875 -1.1875q0.3125 -0.53125 0.828125 -0.84375q0.53125 -0.3125 1.203125 -0.3125q0.6875 0 1.21875 0.3125q0.53125 0.3125 0.828125 0.84375q0.3125 0.53125 0.3125 1.1875q0 0.640625 -0.3125 1.1875q-0.296875 0.546875 -0.828125 0.859375q-0.53125 0.3125 -1.21875 0.3125q-0.671875 0 -1.203125 -0.3125q-0.515625 -0.3125 -0.828125 -0.859375q-0.296875 -0.546875 -0.296875 -1.1875zm20.134338 -11.984375l0 12.265625l3.953125 0l0 1.765625l-10.515625 0l0 -1.765625l4.328125 0l0 -10.5l-4.203125 0l0 -1.765625l6.4375 0zm-1.78125 -6.578125q0.75 0 1.1875 0.453125q0.453125 0.453125 0.453125 1.109375q0 0.6875 -0.453125 1.140625q-0.4375 0.453125 -1.1875 0.453125q-0.703125 0 -1.15625 -0.453125q-0.453125 -0.453125 -0.453125 -1.140625q0 -0.65625 0.453125 -1.109375q0.453125 -0.453125 1.15625 -0.453125zm10.665558 20.609375l0 -14.03125l1.90625 0l0.1875 1.9375q0.84375 -1.078125 2.125 -1.65625q1.296875 -0.578125 2.5 -0.578125q2.078125 0 3.015625 1.09375q0.9375 1.09375 0.9375 3.03125l0 10.203125l-2.234375 0l0 -8.546875q0 -1.4375 -0.171875 -2.3125q-0.15625 -0.890625 -0.671875 -1.296875q-0.5 -0.40625 -1.5625 -0.40625q-0.828125 0 -1.5625 0.359375q-0.71875 0.359375 -1.28125 0.90625q-0.5625 0.53125 -0.9375 1.078125l0 10.21875l-2.25 0zm16.540588 2.75l-1.8125 -0.796875l11.40625 -23.53125l1.78125 0.875l-11.375 23.453125zm25.509338 -5.8125q0 0.84375 0.265625 1.234375q0.28125 0.375 0.875 0.5625l-0.546875 1.578125q-0.90625 -0.125 -1.59375 -0.578125q-0.671875 -0.46875 -0.984375 -1.40625q-0.75 0.984375 -1.890625 1.484375q-1.125 0.5 -2.5 0.5q-2.109375 0 -3.328125 -1.1875q-1.203125 -1.1875 -1.203125 -3.15625q0 -2.171875 1.6875 -3.328125q1.703125 -1.15625 4.890625 -1.15625l2.0625 0l0 -1.171875q0 -1.515625 -0.890625 -2.140625q-0.875 -0.640625 -2.453125 -0.640625q-0.6875 0 -1.625 0.171875q-0.921875 0.15625 -2.015625 0.546875l-0.59375 -1.703125q1.296875 -0.46875 2.421875 -0.671875q1.140625 -0.203125 2.171875 -0.203125q2.625 0 3.9375 1.21875q1.3125 1.21875 1.3125 3.3125l0 6.734375zm-5.796875 1.65625q1.03125 0 1.96875 -0.515625q0.953125 -0.53125 1.5625 -1.46875l0 -3.609375l-2.015625 0q-2.328125 0 -3.28125 0.8125q-0.953125 0.796875 -0.953125 2.140625q0 1.296875 0.671875 1.96875q0.6875 0.671875 2.046875 0.671875zm18.009338 -12.921875q1.875 0 2.984375 0.90625q1.109375 0.90625 1.59375 2.5625q0.5 1.640625 0.5 3.828125q0 2.125 -0.59375 3.78125q-0.59375 1.65625 -1.796875 2.609375q-1.1875 0.953125 -3.015625 0.953125q-2.3125 0 -3.703125 -1.625l0 6.6875l-2.25 0.28125l0 -19.6875l1.90625 0l0.1875 1.953125q0.78125 -1.078125 1.84375 -1.65625q1.078125 -0.59375 2.34375 -0.59375zm-0.53125 1.796875q-1.15625 0 -2.046875 0.703125q-0.890625 0.703125 -1.453125 1.546875l0 6.96875q0.546875 0.8125 1.375 1.28125q0.828125 0.46875 1.828125 0.46875q1.75 0 2.625 -1.328125q0.890625 -1.328125 0.890625 -4.140625q0 -1.84375 -0.359375 -3.0625q-0.34375 -1.21875 -1.046875 -1.828125q-0.703125 -0.609375 -1.8125 -0.609375zm17.353088 -1.5l0 12.265625l3.953125 0l0 1.765625l-10.515625 0l0 -1.765625l4.328125 0l0 -10.5l-4.203125 0l0 -1.765625l6.4375 0zm-1.78125 -6.578125q0.75 0 1.1875 0.453125q0.453125 0.453125 0.453125 1.109375q0 0.6875 -0.453125 1.140625q-0.4375 0.453125 -1.1875 0.453125q-0.703125 0 -1.15625 -0.453125q-0.453125 -0.453125 -0.453125 -1.140625q0 -0.65625 0.453125 -1.109375q0.453125 -0.453125 1.15625 -0.453125zm11.212463 23.359375l-1.8125 -0.796875l11.40625 -23.53125l1.78125 0.875l-11.375 23.453125zm17.696838 -16.78125l0 9.9375q0 1.390625 0.5625 2.0q0.578125 0.609375 1.796875 0.609375q1.15625 0 2.1875 -0.65625q1.03125 -0.65625 1.609375 -1.5625l0 -10.328125l2.234375 0l0 14.03125l-1.90625 0l-0.1875 -1.890625q-0.828125 1.0625 -2.046875 1.640625q-1.203125 0.5625 -2.4375 0.5625q-2.046875 0 -3.0625 -1.078125q-1.0 -1.09375 -1.0 -3.0625l0 -10.203125l2.25 0zm18.524963 12.484375q1.609375 0 2.546875 -0.609375q0.9375 -0.609375 0.9375 -1.609375q0 -0.640625 -0.234375 -1.109375q-0.234375 -0.46875 -0.953125 -0.84375q-0.71875 -0.375 -2.203125 -0.75q-1.453125 -0.359375 -2.53125 -0.828125q-1.078125 -0.46875 -1.671875 -1.234375q-0.578125 -0.765625 -0.578125 -1.96875q0 -1.1875 0.671875 -2.046875q0.671875 -0.859375 1.859375 -1.3125q1.203125 -0.46875 2.796875 -0.46875q1.6875 0 2.9375 0.453125q1.265625 0.4375 2.15625 1.09375l-1.0 1.515625q-0.796875 -0.546875 -1.765625 -0.890625q-0.953125 -0.359375 -2.3125 -0.359375q-1.640625 0 -2.34375 0.515625q-0.6875 0.515625 -0.6875 1.328125q0 0.609375 0.328125 1.015625q0.34375 0.40625 1.15625 0.734375q0.828125 0.328125 2.25 0.71875q1.375 0.359375 2.390625 0.859375q1.015625 0.5 1.59375 1.328125q0.578125 0.828125 0.578125 2.140625q0 1.484375 -0.859375 2.421875q-0.859375 0.921875 -2.21875 1.34375q-1.34375 0.421875 -2.84375 0.421875q-1.90625 0 -3.25 -0.546875q-1.34375 -0.5625 -2.25 -1.359375l1.28125 -1.46875q0.828125 0.671875 1.890625 1.09375q1.078125 0.421875 2.328125 0.421875zm12.978088 -4.671875q0.0625 1.625 0.625 2.65625q0.5625 1.03125 1.484375 1.515625q0.921875 0.484375 2.0 0.484375q1.078125 0 1.953125 -0.3125q0.875 -0.328125 1.78125 -0.953125l1.0625 1.484375q-0.984375 0.765625 -2.25 1.21875q-1.25 0.4375 -2.578125 0.4375q-2.03125 0 -3.484375 -0.921875q-1.4375 -0.921875 -2.1875 -2.5625q-0.75 -1.65625 -0.75 -3.828125q0 -2.125 0.75 -3.78125q0.765625 -1.65625 2.140625 -2.59375q1.375 -0.953125 3.234375 -0.953125q1.78125 0 3.0625 0.84375q1.28125 0.828125 1.953125 2.375q0.6875 1.53125 0.6875 3.65625q0 0.359375 -0.015625 0.671875q0 0.3125 -0.03125 0.5625l-9.4375 0zm3.8125 -6.265625q-1.5625 0 -2.609375 1.109375q-1.046875 1.09375 -1.1875 3.421875l7.3125 0q-0.03125 -2.25 -0.984375 -3.390625q-0.9375 -1.140625 -2.53125 -1.140625zm10.556213 12.484375l0 -1.71875l2.1875 0l0 -10.59375l-2.1875 0l0 -1.71875l3.890625 0l0.421875 3.3125q0.8125 -1.734375 1.96875 -2.671875q1.15625 -0.953125 3.0625 -0.953125q0.578125 0 1.03125 0.09375q0.46875 0.078125 0.953125 0.21875l-0.65625 2.0q-0.4375 -0.125 -0.796875 -0.1875q-0.359375 -0.0625 -0.828125 -0.0625q-1.609375 0 -2.765625 1.15625q-1.15625 1.140625 -1.859375 3.46875l0 5.9375l2.859375 0l0 1.71875l-7.28125 0zm9.171875 -9.296875l0 -3.046875l0.21875 -1.6875l1.9375 0l-0.3125 4.734375l-1.84375 0zm11.462463 7.75q1.609375 0 2.546875 -0.609375q0.9375 -0.609375 0.9375 -1.609375q0 -0.640625 -0.234375 -1.109375q-0.234375 -0.46875 -0.953125 -0.84375q-0.71875 -0.375 -2.203125 -0.75q-1.453125 -0.359375 -2.53125 -0.828125q-1.078125 -0.46875 -1.671875 -1.234375q-0.578125 -0.765625 -0.578125 -1.96875q0 -1.1875 0.671875 -2.046875q0.671875 -0.859375 1.859375 -1.3125q1.203125 -0.46875 2.796875 -0.46875q1.6875 0 2.9375 0.453125q1.265625 0.4375 2.15625 1.09375l-1.0 1.515625q-0.796875 -0.546875 -1.765625 -0.890625q-0.953125 -0.359375 -2.3125 -0.359375q-1.640625 0 -2.34375 0.515625q-0.6875 0.515625 -0.6875 1.328125q0 0.609375 0.328125 1.015625q0.34375 0.40625 1.15625 0.734375q0.828125 0.328125 2.25 0.71875q1.375 0.359375 2.390625 0.859375q1.015625 0.5 1.59375 1.328125q0.578125 0.828125 0.578125 2.140625q0 1.484375 -0.859375 2.421875q-0.859375 0.921875 -2.21875 1.34375q-1.34375 0.421875 -2.84375 0.421875q-1.90625 0 -3.25 -0.546875q-1.34375 -0.5625 -2.25 -1.359375l1.28125 -1.46875q0.828125 0.671875 1.890625 1.09375q1.078125 0.421875 2.328125 0.421875z" fill-rule="nonzero"/><path fill="#eeeeee" d="m182.37534 254.61113l0 0c0 -3.1119843 2.5227509 -5.6347504 5.6347504 -5.6347504l149.64388 0c1.4944153 0 2.9276428 0.59365845 3.984375 1.6503754c1.0567322 1.0567169 1.6503906 2.4899445 1.6503906 3.984375l0 30.777756c0 3.111969 -2.522766 5.634735 -5.6347656 5.634735l-149.64388 0c-3.1119995 0 -5.6347504 -2.522766 -5.6347504 -5.634735z" fill-rule="evenodd"/><path stroke="#595959" stroke-width="1.0" stroke-linejoin="round" stroke-linecap="butt" d="m182.37534 254.61113l0 0c0 -3.1119843 2.5227509 -5.6347504 5.6347504 -5.6347504l149.64388 0c1.4944153 0 2.9276428 0.59365845 3.984375 1.6503754c1.0567322 1.0567169 1.6503906 2.4899445 1.6503906 3.984375l0 30.777756c0 3.111969 -2.522766 5.634735 -5.6347656 5.634735l-149.64388 0c-3.1119995 0 -5.6347504 -2.522766 -5.6347504 -5.634735z" fill-rule="evenodd"/><path fill="#000000" d="m203.04132 273.37314q0 1.09375 -0.5625 1.953125q-0.546875 0.84375 -1.59375 1.328125q-1.046875 0.484375 -2.546875 0.484375q-1.40625 0 -2.546875 -0.421875q-1.140625 -0.4375 -1.953125 -1.21875l0.953125 -1.09375q0.671875 0.625 1.53125 1.0q0.875 0.375 2.046875 0.375q0.78125 0 1.453125 -0.25q0.6875 -0.265625 1.109375 -0.796875q0.421875 -0.53125 0.421875 -1.34375q0 -0.625 -0.25 -1.0625q-0.234375 -0.4375 -0.859375 -0.765625q-0.609375 -0.34375 -1.703125 -0.671875q-1.265625 -0.375 -2.203125 -0.84375q-0.921875 -0.46875 -1.4375 -1.15625q-0.5 -0.703125 -0.5 -1.71875q0 -0.953125 0.53125 -1.703125q0.53125 -0.75 1.46875 -1.171875q0.9375 -0.421875 2.15625 -0.421875q1.328125 0 2.3125 0.375q0.984375 0.375 1.796875 1.09375l-0.953125 1.046875q-0.6875 -0.609375 -1.484375 -0.890625q-0.796875 -0.28125 -1.609375 -0.28125q-0.703125 0 -1.296875 0.21875q-0.578125 0.203125 -0.9375 0.625q-0.34375 0.40625 -0.34375 1.0625q0 0.546875 0.296875 0.953125q0.3125 0.390625 1.015625 0.734375q0.703125 0.328125 1.9375 0.6875q0.984375 0.28125 1.84375 0.71875q0.859375 0.4375 1.375 1.1875q0.53125 0.734375 0.53125 1.96875zm10.850006 3.046875q-0.5 0.34375 -1.21875 0.53125q-0.71875 0.1875 -1.40625 0.1875q-1.59375 0 -2.453125 -0.828125q-0.859375 -0.84375 -0.859375 -2.140625l0 -5.859375l-2.25 0l0 -1.21875l2.25 0l0 -2.21875l1.578125 -0.1875l0 2.40625l3.390625 0l-0.1875 1.21875l-3.203125 0l0 5.84375q0 0.8125 0.421875 1.25q0.4375 0.421875 1.453125 0.421875q0.546875 0 1.015625 -0.125q0.46875 -0.140625 0.859375 -0.34375l0.609375 1.0625zm10.428131 -1.640625q0 0.578125 0.1875 0.859375q0.203125 0.265625 0.609375 0.390625l-0.375 1.109375q-0.640625 -0.09375 -1.109375 -0.40625q-0.46875 -0.328125 -0.6875 -0.984375q-0.53125 0.6875 -1.328125 1.046875q-0.796875 0.34375 -1.75 0.34375q-1.484375 0 -2.328125 -0.828125q-0.84375 -0.84375 -0.84375 -2.203125q0 -1.53125 1.171875 -2.328125q1.1875 -0.8125 3.4375 -0.8125l1.4375 0l0 -0.828125q0 -1.0625 -0.625 -1.5q-0.609375 -0.453125 -1.71875 -0.453125q-0.484375 0 -1.140625 0.125q-0.640625 0.109375 -1.40625 0.375l-0.40625 -1.171875q0.890625 -0.34375 1.6875 -0.484375q0.796875 -0.140625 1.515625 -0.140625q1.84375 0 2.75 0.859375q0.921875 0.84375 0.921875 2.3125l0 4.71875zm-4.0625 1.15625q0.734375 0 1.390625 -0.359375q0.671875 -0.375 1.09375 -1.03125l0 -2.515625l-1.421875 0q-1.609375 0 -2.28125 0.5625q-0.671875 0.546875 -0.671875 1.5q0 0.90625 0.46875 1.375q0.484375 0.46875 1.421875 0.46875zm12.053131 -12.796875l0 11.359375q0 0.71875 0.453125 1.03125q0.453125 0.296875 1.171875 0.296875q0.4375 0 0.84375 -0.09375q0.40625 -0.09375 0.796875 -0.25l0.421875 1.140625q-0.390625 0.203125 -0.984375 0.359375q-0.59375 0.15625 -1.34375 0.15625q-1.3125 0 -2.125 -0.71875q-0.8125 -0.734375 -0.8125 -2.015625l0 -10.015625l-3.0 0l0 -1.25l4.578125 0zm8.600006 9.421875q0.046875 1.140625 0.4375 1.875q0.390625 0.71875 1.03125 1.0625q0.640625 0.328125 1.40625 0.328125q0.75 0 1.359375 -0.21875q0.609375 -0.234375 1.25 -0.671875l0.75 1.046875q-0.703125 0.53125 -1.578125 0.84375q-0.875 0.3125 -1.8125 0.3125q-1.421875 0 -2.4375 -0.640625q-1.0 -0.65625 -1.53125 -1.796875q-0.515625 -1.15625 -0.515625 -2.671875q0 -1.5 0.53125 -2.65625q0.53125 -1.15625 1.484375 -1.8125q0.96875 -0.671875 2.265625 -0.671875q1.25 0 2.140625 0.59375q0.890625 0.578125 1.375 1.65625q0.484375 1.078125 0.484375 2.5625q0 0.25 -0.015625 0.46875q0 0.21875 -0.03125 0.390625l-6.59375 0zm2.671875 -4.375q-1.09375 0 -1.828125 0.78125q-0.734375 0.765625 -0.84375 2.390625l5.125 0q-0.03125 -1.578125 -0.6875 -2.375q-0.65625 -0.796875 -1.765625 -0.796875z" fill-rule="nonzero"/><path fill="#eeeeee" d="m401.6378 254.61113l0 0c0 -3.1119843 2.522766 -5.6347504 5.6347656 -5.6347504l149.64389 0c1.4944458 0 2.9276123 0.59365845 3.984375 1.6503754c1.0567017 1.0567169 1.6503906 2.4899445 1.6503906 3.984375l0 30.777756c0 3.111969 -2.522766 5.634735 -5.6347656 5.634735l-149.64389 0c-3.1119995 0 -5.6347656 -2.522766 -5.6347656 -5.634735z" fill-rule="evenodd"/><path stroke="#595959" stroke-width="1.0" stroke-linejoin="round" stroke-linecap="butt" d="m401.6378 254.61113l0 0c0 -3.1119843 2.522766 -5.6347504 5.6347656 -5.6347504l149.64389 0c1.4944458 0 2.9276123 0.59365845 3.984375 1.6503754c1.0567017 1.0567169 1.6503906 2.4899445 1.6503906 3.984375l0 30.777756c0 3.111969 -2.522766 5.634735 -5.6347656 5.634735l-149.64389 0c-3.1119995 0 -5.6347656 -2.522766 -5.6347656 -5.634735z" fill-rule="evenodd"/><path fill="#000000" d="m420.9444 268.045q0 -1.0 -0.390625 -1.578125q-0.390625 -0.59375 -1.078125 -0.84375q-0.671875 -0.265625 -1.546875 -0.265625l-1.859375 0l0 5.484375l1.78125 0q0.90625 0 1.59375 -0.234375q0.703125 -0.25 1.09375 -0.859375q0.40625 -0.609375 0.40625 -1.703125zm1.734375 -0.03125q0 1.515625 -0.640625 2.421875q-0.640625 0.890625 -1.765625 1.3125q-1.109375 0.40625 -2.5625 0.40625l-1.640625 0l0 4.765625l-1.625 0l0 -12.84375l3.28125 0q2.296875 0 3.625 0.96875q1.328125 0.96875 1.328125 2.96875zm3.912506 4.546875q0.046875 1.140625 0.4375 1.875q0.390625 0.71875 1.03125 1.0625q0.640625 0.328125 1.40625 0.328125q0.75 0 1.359375 -0.21875q0.609375 -0.234375 1.25 -0.671875l0.75 1.046875q-0.703125 0.53125 -1.578125 0.84375q-0.875 0.3125 -1.8125 0.3125q-1.421875 0 -2.4375 -0.640625q-1.0 -0.65625 -1.53125 -1.796875q-0.515625 -1.15625 -0.515625 -2.671875q0 -1.5 0.53125 -2.65625q0.53125 -1.15625 1.484375 -1.8125q0.96875 -0.671875 2.265625 -0.671875q1.25 0 2.140625 0.59375q0.890625 0.578125 1.375 1.65625q0.484375 1.078125 0.484375 2.5625q0 0.25 -0.015625 0.46875q0 0.21875 -0.03125 0.390625l-6.59375 0zm2.671875 -4.375q-1.09375 0 -1.828125 0.78125q-0.734375 0.765625 -0.84375 2.390625l5.125 0q-0.03125 -1.578125 -0.6875 -2.375q-0.65625 -0.796875 -1.765625 -0.796875zm7.287506 8.734375l0 -9.828125l1.328125 0l0.125 1.375q0.59375 -0.765625 1.5 -1.171875q0.90625 -0.40625 1.75 -0.40625q1.4375 0 2.09375 0.765625q0.671875 0.765625 0.671875 2.125l0 7.140625l-1.578125 0l0 -5.984375q0 -1.0 -0.109375 -1.625q-0.109375 -0.625 -0.46875 -0.90625q-0.34375 -0.28125 -1.09375 -0.28125q-0.578125 0 -1.09375 0.25q-0.5 0.25 -0.90625 0.640625q-0.390625 0.375 -0.65625 0.75l0 7.15625l-1.5625 0zm17.068756 -13.96875l1.5625 0.1875l0 13.78125l-1.359375 0l-0.15625 -1.296875q-0.546875 0.78125 -1.265625 1.15625q-0.703125 0.359375 -1.515625 0.359375q-1.28125 0 -2.109375 -0.640625q-0.828125 -0.65625 -1.234375 -1.796875q-0.40625 -1.15625 -0.40625 -2.671875q0 -1.484375 0.453125 -2.640625q0.46875 -1.15625 1.328125 -1.828125q0.859375 -0.671875 2.078125 -0.671875q0.84375 0 1.484375 0.296875q0.640625 0.296875 1.140625 0.859375l0 -5.09375zm-2.21875 5.203125q-1.234375 0 -1.90625 0.96875q-0.65625 0.953125 -0.65625 2.90625q0 1.265625 0.265625 2.125q0.28125 0.859375 0.8125 1.296875q0.53125 0.421875 1.28125 0.421875q0.84375 0 1.4375 -0.46875q0.59375 -0.484375 0.984375 -1.09375l0 -4.90625q-0.40625 -0.59375 -0.96875 -0.921875q-0.5625 -0.328125 -1.25 -0.328125zm12.506256 -1.0625l0 8.59375l2.78125 0l0 1.234375l-7.375 0l0 -1.234375l3.03125 0l0 -7.34375l-2.9375 0l0 -1.25l4.5 0zm-1.25 -4.59375q0.53125 0 0.84375 0.328125q0.3125 0.3125 0.3125 0.765625q0 0.46875 -0.3125 0.796875q-0.3125 0.328125 -0.84375 0.328125q-0.484375 0 -0.8125 -0.328125q-0.3125 -0.328125 -0.3125 -0.796875q0 -0.453125 0.3125 -0.765625q0.328125 -0.328125 0.8125 -0.328125zm7.475006 14.421875l0 -9.828125l1.328125 0l0.125 1.375q0.59375 -0.765625 1.5 -1.171875q0.90625 -0.40625 1.75 -0.40625q1.4375 0 2.09375 0.765625q0.671875 0.765625 0.671875 2.125l0 7.140625l-1.578125 0l0 -5.984375q0 -1.0 -0.109375 -1.625q-0.109375 -0.625 -0.46875 -0.90625q-0.34375 -0.28125 -1.09375 -0.28125q-0.578125 0 -1.09375 0.25q-0.5 0.25 -0.90625 0.640625q-0.390625 0.375 -0.65625 0.75l0 7.15625l-1.5625 0zm19.178131 -10.875l0.484375 1.484375q-0.625 0.1875 -1.34375 0.234375q-0.703125 0.046875 -1.53125 0.046875q0.859375 0.390625 1.28125 1.015625q0.421875 0.625 0.421875 1.46875q0 0.96875 -0.4375 1.71875q-0.4375 0.75 -1.265625 1.1875q-0.8125 0.421875 -1.984375 0.421875q-0.5 0 -0.828125 -0.046875q-0.328125 -0.046875 -0.640625 -0.140625q-0.21875 0.15625 -0.375 0.421875q-0.140625 0.25 -0.140625 0.53125q0 0.359375 0.28125 0.59375q0.28125 0.234375 1.046875 0.234375l1.765625 0q0.984375 0 1.765625 0.359375q0.796875 0.34375 1.25 0.953125q0.453125 0.59375 0.453125 1.34375q0 1.453125 -1.234375 2.21875q-1.21875 0.78125 -3.453125 0.78125q-1.5625 0 -2.46875 -0.328125q-0.90625 -0.3125 -1.296875 -0.96875q-0.390625 -0.65625 -0.390625 -1.65625l1.421875 0q0 0.5625 0.21875 0.9375q0.234375 0.375 0.8125 0.546875q0.59375 0.1875 1.6875 0.1875q1.09375 0 1.765625 -0.1875q0.6875 -0.171875 1.015625 -0.53125q0.34375 -0.359375 0.34375 -0.890625q0 -0.703125 -0.640625 -1.0625q-0.640625 -0.34375 -1.578125 -0.34375l-1.765625 0q-1.265625 0 -1.875 -0.5625q-0.59375 -0.5625 -0.59375 -1.28125q0 -0.484375 0.265625 -0.921875q0.28125 -0.453125 0.8125 -0.796875q-0.84375 -0.453125 -1.25 -1.109375q-0.390625 -0.671875 -0.390625 -1.609375q0 -1.0 0.484375 -1.765625q0.5 -0.765625 1.375 -1.203125q0.890625 -0.4375 2.046875 -0.4375q1.25 -0.015625 2.015625 -0.109375q0.78125 -0.109375 1.328125 -0.28125q0.5625 -0.1875 1.140625 -0.453125zm-4.484375 1.984375q-1.171875 0 -1.75 0.640625q-0.5625 0.640625 -0.5625 1.625q0 1.0 0.578125 1.640625q0.578125 0.640625 1.78125 0.640625q1.046875 0 1.59375 -0.59375q0.546875 -0.609375 0.546875 -1.6875q0 -1.125 -0.546875 -1.6875q-0.546875 -0.578125 -1.640625 -0.578125z" fill-rule="nonzero"/><path fill="#eeeeee" d="m620.90027 212.56389l0 0c0 -3.1119843 2.522766 -5.6347504 5.6347656 -5.6347504l149.64386 0c1.4944458 0 2.9276733 0.59365845 3.984375 1.6503754c1.0567017 1.0567169 1.6503906 2.4899445 1.6503906 3.984375l0 30.77774c0 3.1119843 -2.522766 5.6347504 -5.6347656 5.6347504l-149.64386 0c-3.1119995 0 -5.6347656 -2.522766 -5.6347656 -5.6347504z" fill-rule="evenodd"/><path stroke="#f92672" stroke-width="4.0" stroke-linejoin="round" stroke-linecap="butt" d="m620.90027 212.56389l0 0c0 -3.1119843 2.522766 -5.6347504 5.6347656 -5.6347504l149.64386 0c1.4944458 0 2.9276733 0.59365845 3.984375 1.6503754c1.0567017 1.0567169 1.6503906 2.4899445 1.6503906 3.984375l0 30.77774c0 3.1119843 -2.522766 5.6347504 -5.6347656 5.6347504l-149.64386 0c-3.1119995 0 -5.6347656 -2.522766 -5.6347656 -5.6347504z" fill-rule="evenodd"/><path fill="#000000" d="m641.5662 231.32588q0 1.09375 -0.5625 1.953125q-0.546875 0.84375 -1.59375 1.328125q-1.046875 0.484375 -2.546875 0.484375q-1.40625 0 -2.546875 -0.421875q-1.140625 -0.4375 -1.953125 -1.21875l0.953125 -1.09375q0.671875 0.625 1.53125 1.0q0.875 0.375 2.046875 0.375q0.78125 0 1.453125 -0.25q0.6875 -0.265625 1.109375 -0.796875q0.421875 -0.53125 0.421875 -1.34375q0 -0.625 -0.25 -1.0625q-0.234375 -0.4375 -0.859375 -0.765625q-0.609375 -0.34375 -1.703125 -0.671875q-1.265625 -0.375 -2.203125 -0.84375q-0.921875 -0.46875 -1.4375 -1.15625q-0.5 -0.703125 -0.5 -1.71875q0 -0.953125 0.53125 -1.703125q0.53125 -0.75 1.46875 -1.171875q0.9375 -0.421875 2.15625 -0.421875q1.328125 0 2.3125 0.375q0.984375 0.375 1.796875 1.09375l-0.953125 1.046875q-0.6875 -0.609375 -1.484375 -0.890625q-0.796875 -0.28125 -1.609375 -0.28125q-0.703125 0 -1.296875 0.21875q-0.578125 0.203125 -0.9375 0.625q-0.34375 0.40625 -0.34375 1.0625q0 0.546875 0.296875 0.953125q0.3125 0.390625 1.015625 0.734375q0.703125 0.328125 1.9375 0.6875q0.984375 0.28125 1.84375 0.71875q0.859375 0.4375 1.375 1.1875q0.53125 0.734375 0.53125 1.96875zm4.6156616 -6.28125l0 6.96875q0 0.96875 0.40625 1.40625q0.40625 0.421875 1.25 0.421875q0.8125 0 1.53125 -0.453125q0.71875 -0.46875 1.125 -1.109375l0 -7.234375l1.5625 0l0 9.828125l-1.328125 0l-0.125 -1.328125q-0.578125 0.75 -1.4375 1.15625q-0.84375 0.390625 -1.71875 0.390625q-1.421875 0 -2.125 -0.765625q-0.703125 -0.765625 -0.703125 -2.125l0 -7.15625l1.5625 0zm14.068726 8.6875q0.734375 0 1.375 -0.234375q0.640625 -0.25 1.1875 -0.625l0.765625 1.03125q-0.640625 0.546875 -1.546875 0.875q-0.90625 0.3125 -1.78125 0.3125q-1.46875 0 -2.5 -0.625q-1.015625 -0.640625 -1.5625 -1.78125q-0.546875 -1.140625 -0.546875 -2.6875q0 -1.46875 0.546875 -2.640625q0.546875 -1.171875 1.578125 -1.84375q1.03125 -0.671875 2.5 -0.671875q0.953125 0 1.765625 0.296875q0.828125 0.28125 1.53125 0.84375l-0.765625 1.046875q-0.625 -0.4375 -1.265625 -0.65625q-0.625 -0.21875 -1.28125 -0.21875q-1.265625 0 -2.09375 0.953125q-0.8125 0.953125 -0.8125 2.890625q0 1.3125 0.375 2.140625q0.375 0.828125 1.03125 1.21875q0.65625 0.375 1.5 0.375zm11.193787 0q0.734375 0 1.375 -0.234375q0.640625 -0.25 1.1875 -0.625l0.765625 1.03125q-0.640625 0.546875 -1.546875 0.875q-0.90625 0.3125 -1.78125 0.3125q-1.46875 0 -2.5 -0.625q-1.015625 -0.640625 -1.5625 -1.78125q-0.546875 -1.140625 -0.546875 -2.6875q0 -1.46875 0.546875 -2.640625q0.546875 -1.171875 1.578125 -1.84375q1.03125 -0.671875 2.5 -0.671875q0.953125 0 1.765625 0.296875q0.828125 0.28125 1.53125 0.84375l-0.765625 1.046875q-0.625 -0.4375 -1.265625 -0.65625q-0.625 -0.21875 -1.28125 -0.21875q-1.265625 0 -2.09375 0.953125q-0.8125 0.953125 -0.8125 2.890625q0 1.3125 0.375 2.140625q0.375 0.828125 1.03125 1.21875q0.65625 0.375 1.5 0.375zm7.9906006 -3.21875q0.046875 1.140625 0.4375 1.875q0.390625 0.71875 1.03125 1.0625q0.640625 0.328125 1.40625 0.328125q0.75 0 1.359375 -0.21875q0.609375 -0.234375 1.25 -0.671875l0.75 1.046875q-0.703125 0.53125 -1.578125 0.84375q-0.875 0.3125 -1.8125 0.3125q-1.421875 0 -2.4375 -0.640625q-1.0 -0.65625 -1.53125 -1.796875q-0.515625 -1.15625 -0.515625 -2.671875q0 -1.5 0.53125 -2.65625q0.53125 -1.15625 1.484375 -1.8125q0.96875 -0.671875 2.265625 -0.671875q1.25 0 2.140625 0.59375q0.890625 0.578125 1.375 1.65625q0.484375 1.078125 0.484375 2.5625q0 0.25 -0.015625 0.46875q0 0.21875 -0.03125 0.390625l-6.59375 0zm2.671875 -4.375q-1.09375 0 -1.828125 0.78125q-0.734375 0.765625 -0.84375 2.390625l5.125 0q-0.03125 -1.578125 -0.6875 -2.375q-0.65625 -0.796875 -1.765625 -0.796875zm10.631287 7.65625q1.125 0 1.78125 -0.421875q0.65625 -0.4375 0.65625 -1.140625q0 -0.453125 -0.171875 -0.765625q-0.15625 -0.328125 -0.65625 -0.59375q-0.5 -0.265625 -1.546875 -0.53125q-1.015625 -0.25 -1.765625 -0.578125q-0.75 -0.328125 -1.171875 -0.859375q-0.40625 -0.53125 -0.40625 -1.375q0 -0.84375 0.46875 -1.4375q0.46875 -0.609375 1.296875 -0.921875q0.84375 -0.328125 1.953125 -0.328125q1.1875 0 2.0625 0.3125q0.890625 0.3125 1.5 0.765625l-0.6875 1.078125q-0.5625 -0.390625 -1.234375 -0.640625q-0.671875 -0.25 -1.609375 -0.25q-1.15625 0 -1.65625 0.359375q-0.484375 0.359375 -0.484375 0.9375q0 0.421875 0.234375 0.71875q0.25 0.28125 0.8125 0.515625q0.578125 0.21875 1.578125 0.484375q0.953125 0.25 1.65625 0.609375q0.71875 0.359375 1.125 0.9375q0.40625 0.578125 0.40625 1.484375q0 1.046875 -0.609375 1.703125q-0.59375 0.640625 -1.546875 0.9375q-0.9375 0.296875 -1.984375 0.296875q-1.34375 0 -2.28125 -0.390625q-0.9375 -0.390625 -1.5625 -0.9375l0.890625 -1.03125q0.578125 0.46875 1.328125 0.765625q0.75 0.296875 1.625 0.296875zm11.193726 0q1.125 0 1.78125 -0.421875q0.65625 -0.4375 0.65625 -1.140625q0 -0.453125 -0.171875 -0.765625q-0.15625 -0.328125 -0.65625 -0.59375q-0.5 -0.265625 -1.546875 -0.53125q-1.015625 -0.25 -1.765625 -0.578125q-0.75 -0.328125 -1.171875 -0.859375q-0.40625 -0.53125 -0.40625 -1.375q0 -0.84375 0.46875 -1.4375q0.46875 -0.609375 1.296875 -0.921875q0.84375 -0.328125 1.953125 -0.328125q1.1875 0 2.0625 0.3125q0.890625 0.3125 1.5 0.765625l-0.6875 1.078125q-0.5625 -0.390625 -1.234375 -0.640625q-0.671875 -0.25 -1.609375 -0.25q-1.15625 0 -1.65625 0.359375q-0.484375 0.359375 -0.484375 0.9375q0 0.421875 0.234375 0.71875q0.25 0.28125 0.8125 0.515625q0.578125 0.21875 1.578125 0.484375q0.953125 0.25 1.65625 0.609375q0.71875 0.359375 1.125 0.9375q0.40625 0.578125 0.40625 1.484375q0 1.046875 -0.609375 1.703125q-0.59375 0.640625 -1.546875 0.9375q-0.9375 0.296875 -1.984375 0.296875q-1.34375 0 -2.28125 -0.390625q-0.9375 -0.390625 -1.5625 -0.9375l0.890625 -1.03125q0.578125 0.46875 1.328125 0.765625q0.75 0.296875 1.625 0.296875z" fill-rule="nonzero"/><path fill="#eeeeee" d="m620.90027 296.6584l0 0c0 -3.1119995 2.522766 -5.6347656 5.6347656 -5.6347656l149.64386 0c1.4944458 0 2.9276733 0.59365845 3.984375 1.6503906c1.0567017 1.0567017 1.6503906 2.4899292 1.6503906 3.984375l0 30.77774c0 3.111969 -2.522766 5.634735 -5.6347656 5.634735l-149.64386 0c-3.1119995 0 -5.6347656 -2.522766 -5.6347656 -5.634735z" fill-rule="evenodd"/><path stroke="#595959" stroke-width="1.0" stroke-linejoin="round" stroke-linecap="butt" d="m620.90027 296.6584l0 0c0 -3.1119995 2.522766 -5.6347656 5.6347656 -5.6347656l149.64386 0c1.4944458 0 2.9276733 0.59365845 3.984375 1.6503906c1.0567017 1.0567017 1.6503906 2.4899292 1.6503906 3.984375l0 30.77774c0 3.111969 -2.522766 5.634735 -5.6347656 5.634735l-149.64386 0c-3.1119995 0 -5.6347656 -2.522766 -5.6347656 -5.634735z" fill-rule="evenodd"/><path fill="#000000" d="m635.51935 307.45163l0 4.328125l4.75 0l0 1.328125l-4.75 0l0 4.5625l5.828125 0l0 1.296875l-7.453125 0l0 -12.84375l7.296875 0l-0.1875 1.328125l-5.484375 0zm9.193787 11.515625l0 -1.203125l1.53125 0l0 -7.421875l-1.53125 0l0 -1.203125l2.71875 0l0.296875 2.328125q0.5625 -1.21875 1.375 -1.875q0.8125 -0.65625 2.140625 -0.65625q0.421875 0 0.734375 0.0625q0.328125 0.046875 0.65625 0.140625l-0.453125 1.40625q-0.3125 -0.078125 -0.5625 -0.125q-0.25 -0.046875 -0.578125 -0.046875q-1.125 0 -1.9375 0.8125q-0.8125 0.796875 -1.296875 2.421875l0 4.15625l2.0 0l0 1.203125l-5.09375 0zm6.421875 -6.5l0 -2.140625l0.15625 -1.1875l1.34375 0l-0.21875 3.328125l-1.28125 0zm4.7718506 6.5l0 -1.203125l1.53125 0l0 -7.421875l-1.53125 0l0 -1.203125l2.71875 0l0.296875 2.328125q0.5625 -1.21875 1.375 -1.875q0.8125 -0.65625 2.140625 -0.65625q0.421875 0 0.734375 0.0625q0.328125 0.046875 0.65625 0.140625l-0.453125 1.40625q-0.3125 -0.078125 -0.5625 -0.125q-0.25 -0.046875 -0.578125 -0.046875q-1.125 0 -1.9375 0.8125q-0.8125 0.796875 -1.296875 2.421875l0 4.15625l2.0 0l0 1.203125l-5.09375 0zm6.421875 -6.5l0 -2.140625l0.15625 -1.1875l1.34375 0l-0.21875 3.328125l-1.28125 0zm8.412537 -3.53125q1.390625 0 2.328125 0.640625q0.9375 0.625 1.40625 1.78125q0.484375 1.140625 0.484375 2.6875q0 1.5 -0.484375 2.671875q-0.484375 1.15625 -1.421875 1.8125q-0.9375 0.65625 -2.328125 0.65625q-1.375 0 -2.328125 -0.625q-0.9375 -0.640625 -1.421875 -1.796875q-0.46875 -1.15625 -0.46875 -2.6875q0 -1.53125 0.484375 -2.6875q0.484375 -1.15625 1.421875 -1.796875q0.953125 -0.65625 2.328125 -0.65625zm0 1.28125q-1.265625 0 -1.921875 0.9375q-0.640625 0.9375 -0.640625 2.921875q0 1.9375 0.640625 2.875q0.640625 0.9375 1.90625 0.9375q1.265625 0 1.90625 -0.9375q0.640625 -0.9375 0.640625 -2.90625q0 -1.953125 -0.640625 -2.890625q-0.625 -0.9375 -1.890625 -0.9375zm7.5531006 8.75l0 -1.203125l1.53125 0l0 -7.421875l-1.53125 0l0 -1.203125l2.71875 0l0.296875 2.328125q0.5625 -1.21875 1.375 -1.875q0.8125 -0.65625 2.140625 -0.65625q0.421875 0 0.734375 0.0625q0.328125 0.046875 0.65625 0.140625l-0.453125 1.40625q-0.3125 -0.078125 -0.5625 -0.125q-0.25 -0.046875 -0.578125 -0.046875q-1.125 0 -1.9375 0.8125q-0.8125 0.796875 -1.296875 2.421875l0 4.15625l2.0 0l0 1.203125l-5.09375 0zm6.421875 -6.5l0 -2.140625l0.15625 -1.1875l1.34375 0l-0.21875 3.328125l-1.28125 0z" fill-rule="nonzero"/><path fill="#000000" fill-opacity="0.0" d="m562.5512 270.0l17.31488 0l0 -42.04724l41.047302 0" fill-rule="evenodd"/><path stroke="#f92672" stroke-width="4.0" stroke-linejoin="round" stroke-linecap="butt" d="m562.5512 270.0l17.31488 0l0 -42.04724l17.047302 0" fill-rule="evenodd"/><path fill="#f92672" stroke="#f92672" stroke-width="4.0" stroke-linecap="butt" d="m596.9134 234.5597l18.152405 -6.6069336l-18.152405 -6.6069336z" fill-rule="evenodd"/><path fill="#0d3640" d="m184.28346 413.9344l0 0c0 -0.002746582 0.0022277832 -0.0049743652 0.0049591064 -0.0049743652l595.61707 0.0049743652c0.0012817383 0 0.0025634766 5.187988E-4 0.003479004 0.0014648438c9.765625E-4 9.1552734E-4 0.0014648438 0.002166748 0.0014648438 0.0035095215l-0.0049438477 42.042267c0 0.002746582 -0.0022583008 0.0049743652 -0.0049438477 0.0049743652l-595.6171 -0.0049743652l0 0c-0.002746582 0 -0.0049591064 -0.0022277832 -0.0049591064 -0.0049743652z" fill-rule="evenodd"/><path stroke="#595959" stroke-width="1.0" stroke-linejoin="round" stroke-linecap="butt" d="m184.28346 413.9344l0 0c0 -0.002746582 0.0022277832 -0.0049743652 0.0049591064 -0.0049743652l595.61707 0.0049743652c0.0012817383 0 0.0025634766 5.187988E-4 0.003479004 0.0014648438c9.765625E-4 9.1552734E-4 0.0014648438 0.002166748 0.0014648438 0.0035095215l-0.0049438477 42.042267c0 0.002746582 -0.0022583008 0.0049743652 -0.0049438477 0.0049743652l-595.6171 -0.0049743652l0 0c-0.002746582 0 -0.0049591064 -0.0022277832 -0.0049591064 -0.0049743652z" fill-rule="evenodd"/><path fill="#eee8d5" d="m205.65846 431.8705q0 -1.421875 -0.5625 -2.25q-0.5625 -0.84375 -1.546875 -1.203125q-0.96875 -0.375 -2.21875 -0.375l-2.65625 0l0 7.84375l2.5625 0q1.296875 0 2.28125 -0.359375q0.984375 -0.359375 1.5625 -1.21875q0.578125 -0.875 0.578125 -2.4375zm2.46875 -0.03125q0 2.15625 -0.921875 3.453125q-0.90625 1.28125 -2.5 1.875q-1.59375 0.578125 -3.671875 0.578125l-2.359375 0l0 6.8125l-2.3125 0l0 -18.359375l4.6875 0q3.28125 0 5.171875 1.390625q1.90625 1.375 1.90625 4.25zm3.9624481 12.71875l0 -1.71875l2.1875 0l0 -10.59375l-2.1875 0l0 -1.71875l3.890625 0l0.421875 3.3125q0.8125 -1.734375 1.96875 -2.671875q1.15625 -0.953125 3.0625 -0.953125q0.578125 0 1.03125 0.09375q0.46875 0.078125 0.953125 0.21875l-0.65625 2.0q-0.4375 -0.125 -0.796875 -0.1875q-0.359375 -0.0625 -0.828125 -0.0625q-1.609375 0 -2.765625 1.15625q-1.15625 1.140625 -1.859375 3.46875l0 5.9375l2.859375 0l0 1.71875l-7.28125 0zm9.171875 -9.296875l0 -3.046875l0.21875 -1.6875l1.9375 0l-0.3125 4.734375l-1.84375 0zm12.040573 -5.03125q1.984375 0 3.3125 0.90625q1.34375 0.890625 2.015625 2.53125q0.671875 1.640625 0.671875 3.859375q0 2.15625 -0.703125 3.8125q-0.6875 1.640625 -2.03125 2.59375q-1.328125 0.9375 -3.296875 0.9375q-1.96875 0 -3.328125 -0.90625q-1.34375 -0.90625 -2.03125 -2.546875q-0.6875 -1.65625 -0.6875 -3.859375q0 -2.171875 0.6875 -3.8125q0.703125 -1.65625 2.046875 -2.578125q1.359375 -0.9375 3.34375 -0.9375zm0 1.828125q-1.828125 0 -2.75 1.34375q-0.921875 1.328125 -0.921875 4.15625q0 2.78125 0.90625 4.125q0.921875 1.34375 2.734375 1.34375q1.8125 0 2.71875 -1.34375q0.921875 -1.34375 0.921875 -4.15625q0 -2.796875 -0.90625 -4.125q-0.90625 -1.34375 -2.703125 -1.34375zm19.884323 -1.828125q0.6875 0 1.296875 0.296875q0.625 0.296875 1.015625 1.140625q0.40625 0.828125 0.40625 2.4375l0 10.453125l-2.078125 0l0 -10.09375q0 -1.3125 -0.15625 -1.890625q-0.15625 -0.59375 -0.921875 -0.59375q-0.625 0 -1.25 0.390625q-0.609375 0.390625 -1.203125 1.28125l0 10.90625l-2.09375 0l0 -10.09375q0 -1.3125 -0.15625 -1.890625q-0.15625 -0.59375 -0.921875 -0.59375q-0.640625 0 -1.25 0.390625q-0.609375 0.390625 -1.203125 1.28125l0 10.90625l-2.0625 0l0 -14.03125l1.765625 0l0.125 1.625q0.578125 -0.8125 1.28125 -1.359375q0.71875 -0.5625 1.78125 -0.5625q0.796875 0 1.5 0.390625q0.703125 0.375 1.046875 1.46875q0.5625 -0.828125 1.28125 -1.34375q0.71875 -0.515625 1.796875 -0.515625zm13.853088 0.296875l0 12.265625l3.953125 0l0 1.765625l-10.515625 0l0 -1.765625l4.328125 0l0 -10.5l-4.203125 0l0 -1.765625l6.4375 0zm-1.78125 -6.578125q0.75 0 1.1875 0.453125q0.453125 0.453125 0.453125 1.109375q0 0.6875 -0.453125 1.140625q-0.4375 0.453125 -1.1875 0.453125q-0.703125 0 -1.15625 -0.453125q-0.453125 -0.453125 -0.453125 -1.140625q0 -0.65625 0.453125 -1.109375q0.453125 -0.453125 1.15625 -0.453125zm15.446808 19.0625q1.609375 0 2.546875 -0.609375q0.9375 -0.609375 0.9375 -1.609375q0 -0.640625 -0.234375 -1.109375q-0.234375 -0.46875 -0.953125 -0.84375q-0.71875 -0.375 -2.203125 -0.75q-1.453125 -0.359375 -2.53125 -0.828125q-1.078125 -0.46875 -1.671875 -1.234375q-0.578125 -0.765625 -0.578125 -1.96875q0 -1.1875 0.671875 -2.046875q0.671875 -0.859375 1.859375 -1.3125q1.203125 -0.46875 2.796875 -0.46875q1.6875 0 2.9375 0.453125q1.265625 0.4375 2.15625 1.09375l-1.0 1.515625q-0.796875 -0.546875 -1.765625 -0.890625q-0.953125 -0.359375 -2.3125 -0.359375q-1.640625 0 -2.34375 0.515625q-0.6875 0.515625 -0.6875 1.328125q0 0.609375 0.328125 1.015625q0.34375 0.40625 1.15625 0.734375q0.828125 0.328125 2.25 0.71875q1.375 0.359375 2.390625 0.859375q1.015625 0.5 1.59375 1.328125q0.578125 0.828125 0.578125 2.140625q0 1.484375 -0.859375 2.421875q-0.859375 0.921875 -2.21875 1.34375q-1.34375 0.421875 -2.84375 0.421875q-1.90625 0 -3.25 -0.546875q-1.34375 -0.5625 -2.25 -1.359375l1.28125 -1.46875q0.828125 0.671875 1.890625 1.09375q1.078125 0.421875 2.328125 0.421875zm12.978088 -4.671875q0.0625 1.625 0.625 2.65625q0.5625 1.03125 1.484375 1.515625q0.921875 0.484375 2.0 0.484375q1.078125 0 1.953125 -0.3125q0.875 -0.328125 1.78125 -0.953125l1.0625 1.484375q-0.984375 0.765625 -2.25 1.21875q-1.25 0.4375 -2.578125 0.4375q-2.03125 0 -3.484375 -0.921875q-1.4375 -0.921875 -2.1875 -2.5625q-0.75 -1.65625 -0.75 -3.828125q0 -2.125 0.75 -3.78125q0.765625 -1.65625 2.140625 -2.59375q1.375 -0.953125 3.234375 -0.953125q1.78125 0 3.0625 0.84375q1.28125 0.828125 1.953125 2.375q0.6875 1.53125 0.6875 3.65625q0 0.359375 -0.015625 0.671875q0 0.3125 -0.03125 0.5625l-9.4375 0zm3.8125 -6.265625q-1.5625 0 -2.609375 1.109375q-1.046875 1.09375 -1.1875 3.421875l7.3125 0q-0.03125 -2.25 -0.984375 -3.390625q-0.9375 -1.140625 -2.53125 -1.140625zm13.571808 10.625q0 -0.875 0.609375 -1.515625q0.625 -0.640625 1.53125 -0.640625q0.9375 0 1.546875 0.640625q0.625 0.640625 0.625 1.515625q0 0.90625 -0.625 1.546875q-0.609375 0.625 -1.546875 0.625q-0.90625 0 -1.53125 -0.625q-0.609375 -0.640625 -0.609375 -1.546875zm0 -9.609375q0 -0.90625 0.609375 -1.53125q0.625 -0.625 1.53125 -0.625q0.9375 0 1.546875 0.625q0.625 0.625 0.625 1.53125q0 0.875 -0.625 1.53125q-0.609375 0.640625 -1.546875 0.640625q-0.90625 0 -1.53125 -0.640625q-0.609375 -0.65625 -0.609375 -1.53125zm37.12802 -8.5q1.140625 0 2.046875 0.203125q0.921875 0.203125 1.75 0.5625l-0.71875 1.65625q-0.671875 -0.28125 -1.4375 -0.421875q-0.765625 -0.15625 -1.578125 -0.15625q-1.46875 0 -2.203125 0.578125q-0.734375 0.5625 -0.734375 1.75l0 2.859375l4.75 0l-0.234375 1.75l-4.515625 0l0 11.1875l-2.25 0l0 -11.1875l-3.34375 0l0 -1.75l3.34375 0l0 -2.796875q0 -1.3125 0.671875 -2.25q0.6875 -0.953125 1.84375 -1.46875q1.15625 -0.515625 2.609375 -0.515625zm9.946838 5.9375l0 9.9375q0 1.390625 0.5625 2.0q0.578125 0.609375 1.796875 0.609375q1.15625 0 2.1875 -0.65625q1.03125 -0.65625 1.609375 -1.5625l0 -10.328125l2.234375 0l0 14.03125l-1.90625 0l-0.1875 -1.890625q-0.828125 1.0625 -2.046875 1.640625q-1.203125 0.5625 -2.4375 0.5625q-2.046875 0 -3.0625 -1.078125q-1.0 -1.09375 -1.0 -3.0625l0 -10.203125l2.25 0zm19.212433 -5.65625l0 16.21875q0 1.046875 0.640625 1.484375q0.65625 0.421875 1.6875 0.421875q0.640625 0 1.203125 -0.125q0.578125 -0.140625 1.15625 -0.359375l0.59375 1.640625q-0.578125 0.265625 -1.421875 0.484375q-0.84375 0.234375 -1.90625 0.234375q-1.875 0 -3.03125 -1.03125q-1.15625 -1.046875 -1.15625 -2.859375l0 -14.328125l-4.3125 0l0 -1.78125l6.546875 0zm18.821838 -0.28125q1.140625 0 2.046875 0.203125q0.921875 0.203125 1.75 0.5625l-0.71875 1.65625q-0.671875 -0.28125 -1.4375 -0.421875q-0.765625 -0.15625 -1.578125 -0.15625q-1.46875 0 -2.203125 0.578125q-0.734375 0.5625 -0.734375 1.75l0 2.859375l4.75 0l-0.234375 1.75l-4.515625 0l0 11.1875l-2.25 0l0 -11.1875l-3.34375 0l0 -1.75l3.34375 0l0 -2.796875q0 -1.3125 0.671875 -2.25q0.6875 -0.953125 1.84375 -1.46875q1.15625 -0.515625 2.609375 -0.515625zm14.806183 5.9375l0 12.265625l3.953125 0l0 1.765625l-10.515625 0l0 -1.765625l4.328125 0l0 -10.5l-4.203125 0l0 -1.765625l6.4375 0zm-1.78125 -6.578125q0.75 0 1.1875 0.453125q0.453125 0.453125 0.453125 1.109375q0 0.6875 -0.453125 1.140625q-0.4375 0.453125 -1.1875 0.453125q-0.703125 0 -1.15625 -0.453125q-0.453125 -0.453125 -0.453125 -1.140625q0 -0.65625 0.453125 -1.109375q0.453125 -0.453125 1.15625 -0.453125zm16.134338 0.921875l0 16.21875q0 1.046875 0.640625 1.484375q0.65625 0.421875 1.6875 0.421875q0.640625 0 1.203125 -0.125q0.578125 -0.140625 1.15625 -0.359375l0.59375 1.640625q-0.578125 0.265625 -1.421875 0.484375q-0.84375 0.234375 -1.90625 0.234375q-1.875 0 -3.03125 -1.03125q-1.15625 -1.046875 -1.15625 -2.859375l0 -14.328125l-4.3125 0l0 -1.78125l6.546875 0zm15.993683 0l0 16.21875q0 1.046875 0.640625 1.484375q0.65625 0.421875 1.6875 0.421875q0.640625 0 1.203125 -0.125q0.578125 -0.140625 1.15625 -0.359375l0.59375 1.640625q-0.578125 0.265625 -1.421875 0.484375q-0.84375 0.234375 -1.90625 0.234375q-1.875 0 -3.03125 -1.03125q-1.15625 -1.046875 -1.15625 -2.859375l0 -14.328125l-4.3125 0l0 -1.78125l6.546875 0zm12.290588 13.46875q0.0625 1.625 0.625 2.65625q0.5625 1.03125 1.484375 1.515625q0.921875 0.484375 2.0 0.484375q1.078125 0 1.953125 -0.3125q0.875 -0.328125 1.78125 -0.953125l1.0625 1.484375q-0.984375 0.765625 -2.25 1.21875q-1.25 0.4375 -2.578125 0.4375q-2.03125 0 -3.484375 -0.921875q-1.4375 -0.921875 -2.1875 -2.5625q-0.75 -1.65625 -0.75 -3.828125q0 -2.125 0.75 -3.78125q0.765625 -1.65625 2.140625 -2.59375q1.375 -0.953125 3.234375 -0.953125q1.78125 0 3.0625 0.84375q1.28125 0.828125 1.953125 2.375q0.6875 1.53125 0.6875 3.65625q0 0.359375 -0.015625 0.671875q0 0.3125 -0.03125 0.5625l-9.4375 0zm3.8125 -6.265625q-1.5625 0 -2.609375 1.109375q-1.046875 1.09375 -1.1875 3.421875l7.3125 0q-0.03125 -2.25 -0.984375 -3.390625q-0.9375 -1.140625 -2.53125 -1.140625zm18.821838 -7.484375l2.234375 0.28125l0 19.6875l-1.953125 0l-0.21875 -1.859375q-0.78125 1.125 -1.8125 1.65625q-1.015625 0.515625 -2.171875 0.515625q-1.828125 0 -3.015625 -0.921875q-1.1875 -0.921875 -1.765625 -2.5625q-0.5625 -1.65625 -0.5625 -3.828125q0 -2.109375 0.65625 -3.765625q0.65625 -1.65625 1.875 -2.609375q1.234375 -0.953125 2.96875 -0.953125q1.21875 0 2.140625 0.421875q0.921875 0.421875 1.625 1.234375l0 -7.296875zm-3.171875 7.4375q-1.765625 0 -2.71875 1.375q-0.9375 1.375 -0.9375 4.15625q0 1.8125 0.390625 3.046875q0.390625 1.21875 1.140625 1.84375q0.75 0.609375 1.84375 0.609375q1.203125 0 2.046875 -0.671875q0.84375 -0.6875 1.40625 -1.546875l0 -7.015625q-0.578125 -0.84375 -1.390625 -1.3125q-0.8125 -0.484375 -1.78125 -0.484375z" fill-rule="nonzero"/></g></svg>