<svg version="1.1" viewBox="0.0 0.0 960.0 540.0" fill="none" stroke="none" stroke-linecap="square" stroke-miterlimit="10" xmlns:xlink="http://www.w3.org/1999/xlink" xmlns="http://www.w3.org/2000/svg"><clipPath id="g77fa5779fd_0_134.0"><path d="m0 0l960.0 0l0 540.0l-960.0 0l0 -540.0z" clip-rule="nonzero"/></clipPath><g clip-path="url(#g77fa5779fd_0_134.0)"><path fill="#ffffff" d="m0 0l960.0 0l0 540.0l-960.0 0z" fill-rule="evenodd"/><path fill="#eeeeee" d="m180.81364 45.354332l598.3622 0l0 90.70866l-598.3622 0z" fill-rule="evenodd"/><path stroke="#595959" stroke-width="1.0" stroke-linejoin="round" stroke-linecap="butt" d="m180.81364 45.354332l598.3622 0l0 90.70866l-598.3622 0z" fill-rule="evenodd"/><path fill="#eeeeee" d="m180.81364 145.72966l189.85826 0l0 348.9134l-189.85826 0z" fill-rule="evenodd"/><path stroke="#595959" stroke-width="1.0" stroke-linejoin="round" stroke-linecap="butt" d="m180.81364 145.72966l189.85826 0l0 348.9134l-189.85826 0z" fill-rule="evenodd"/><path fill="#eeeeee" d="m381.73752 145.72966l397.44882 0l0 348.9134l-397.44882 0z" fill-rule="evenodd"/><path stroke="#595959" stroke-width="1.0" stroke-linejoin="round" stroke-linecap="butt" d="m381.73752 145.72966l397.44882 0l0 348.9134l-397.44882 0z" fill-rule="evenodd"/><path fill="#000000" fill-opacity="0.0" d="m205.42258 45.354332l375.46457 0l0 90.70866l-375.46457 0z" fill-rule="evenodd"/><path fill="#000000" d="m228.5632 81.94929l1.046875 18.359375l-2.234375 0l-0.578125 -9.578125q-0.03125 -0.984375 -0.078125 -1.984375q-0.03125 -1.0 -0.046875 -1.90625q-0.015625 -0.921875 -0.015625 -1.640625q0 -0.71875 0 -1.125l-3.09375 12.9375l-2.3125 0l-3.328125 -12.9375q0.015625 0.390625 0.03125 1.140625q0.015625 0.75 0.015625 1.703125q0.015625 0.9375 -0.015625 1.9375q-0.015625 0.984375 -0.046875 1.84375l-0.5 9.609375l-2.171875 0l1.046875 -18.359375l3.21875 0l2.96875 12.578125l2.84375 -12.578125l3.25 0zm16.212448 4.328125l-4.9375 14.125q-0.484375 1.421875 -1.25 2.609375q-0.75 1.1875 -1.953125 1.96875q-1.203125 0.78125 -3.0625 0.96875l-0.34375 -1.78125q1.453125 -0.25 2.28125 -0.75q0.84375 -0.484375 1.328125 -1.265625q0.5 -0.765625 0.875 -1.84375l-0.75 0l-4.90625 -14.03125l2.390625 0l4.03125 12.328125l3.96875 -12.328125l2.328125 0zm29.096756 14.03125l0 -8.703125l-6.9375 0l0 8.703125l-2.3125 0l0 -18.359375l2.3125 0l0 7.765625l6.9375 0l0 -7.765625l2.296875 0l0 18.359375l-2.296875 0zm8.962463 -6.21875q0.0625 1.625 0.625 2.65625q0.5625 1.03125 1.484375 1.515625q0.921875 0.484375 2.0 0.484375q1.078125 0 1.953125 -0.3125q0.875 -0.328125 1.78125 -0.953125l1.0625 1.484375q-0.984375 0.765625 -2.25 1.21875q-1.25 0.4375 -2.578125 0.4375q-2.03125 0 -3.484375 -0.921875q-1.4375 -0.921875 -2.1875 -2.5625q-0.75 -1.65625 -0.75 -3.828125q0 -2.125 0.75 -3.78125q0.765625 -1.65625 2.140625 -2.59375q1.375 -0.953125 3.234375 -0.953125q1.78125 0 3.0625 0.84375q1.28125 0.828125 1.953125 2.375q0.6875 1.53125 0.6875 3.65625q0 0.359375 -0.015625 0.671875q0 0.3125 -0.03125 0.5625l-9.4375 0zm3.8125 -6.265625q-1.5625 0 -2.609375 1.109375q-1.046875 1.09375 -1.1875 3.421875l7.3125 0q-0.03125 -2.25 -0.984375 -3.390625q-0.9375 -1.140625 -2.53125 -1.140625zm20.478058 9.421875q0 0.84375 0.265625 1.234375q0.28125 0.375 0.875 0.5625l-0.546875 1.578125q-0.90625 -0.125 -1.59375 -0.578125q-0.671875 -0.46875 -0.984375 -1.40625q-0.75 0.984375 -1.890625 1.484375q-1.125 0.5 -2.5 0.5q-2.109375 0 -3.328125 -1.1875q-1.203125 -1.1875 -1.203125 -3.15625q0 -2.171875 1.6875 -3.328125q1.703125 -1.15625 4.890625 -1.15625l2.0625 0l0 -1.171875q0 -1.515625 -0.890625 -2.140625q-0.875 -0.640625 -2.453125 -0.640625q-0.6875 0 -1.625 0.171875q-0.921875 0.15625 -2.015625 0.546875l-0.59375 -1.703125q1.296875 -0.46875 2.421875 -0.671875q1.140625 -0.203125 2.171875 -0.203125q2.625 0 3.9375 1.21875q1.3125 1.21875 1.3125 3.3125l0 6.734375zm-5.796875 1.65625q1.03125 0 1.96875 -0.515625q0.953125 -0.53125 1.5625 -1.46875l0 -3.609375l-2.015625 0q-2.328125 0 -3.28125 0.8125q-0.953125 0.796875 -0.953125 2.140625q0 1.296875 0.671875 1.96875q0.6875 0.671875 2.046875 0.671875zm20.134338 -18.5625l2.234375 0.28125l0 19.6875l-1.953125 0l-0.21875 -1.859375q-0.78125 1.125 -1.8125 1.65625q-1.015625 0.515625 -2.171875 0.515625q-1.828125 0 -3.015625 -0.921875q-1.1875 -0.921875 -1.765625 -2.5625q-0.5625 -1.65625 -0.5625 -3.828125q0 -2.109375 0.65625 -3.765625q0.65625 -1.65625 1.875 -2.609375q1.234375 -0.953125 2.96875 -0.953125q1.21875 0 2.140625 0.421875q0.921875 0.421875 1.625 1.234375l0 -7.296875zm-3.171875 7.4375q-1.765625 0 -2.71875 1.375q-0.9375 1.375 -0.9375 4.15625q0 1.8125 0.390625 3.046875q0.390625 1.21875 1.140625 1.84375q0.75 0.609375 1.84375 0.609375q1.203125 0 2.046875 -0.671875q0.84375 -0.6875 1.40625 -1.546875l0 -7.015625q-0.578125 -0.84375 -1.390625 -1.3125q-0.8125 -0.484375 -1.78125 -0.484375zm12.524933 6.3125q0.0625 1.625 0.625 2.65625q0.5625 1.03125 1.484375 1.515625q0.921875 0.484375 2.0 0.484375q1.078125 0 1.953125 -0.3125q0.875 -0.328125 1.78125 -0.953125l1.0625 1.484375q-0.984375 0.765625 -2.25 1.21875q-1.25 0.4375 -2.578125 0.4375q-2.03125 0 -3.484375 -0.921875q-1.4375 -0.921875 -2.1875 -2.5625q-0.75 -1.65625 -0.75 -3.828125q0 -2.125 0.75 -3.78125q0.765625 -1.65625 2.140625 -2.59375q1.375 -0.953125 3.234375 -0.953125q1.78125 0 3.0625 0.84375q1.28125 0.828125 1.953125 2.375q0.6875 1.53125 0.6875 3.65625q0 0.359375 -0.015625 0.671875q0 0.3125 -0.03125 0.5625l-9.4375 0zm3.8125 -6.265625q-1.5625 0 -2.609375 1.109375q-1.046875 1.09375 -1.1875 3.421875l7.3125 0q-0.03125 -2.25 -0.984375 -3.390625q-0.9375 -1.140625 -2.53125 -1.140625zm10.556213 12.484375l0 -1.71875l2.1875 0l0 -10.59375l-2.1875 0l0 -1.71875l3.890625 0l0.421875 3.3125q0.8125 -1.734375 1.96875 -2.671875q1.15625 -0.953125 3.0625 -0.953125q0.578125 0 1.03125 0.09375q0.46875 0.078125 0.953125 0.21875l-0.65625 2.0q-0.4375 -0.125 -0.796875 -0.1875q-0.359375 -0.0625 -0.828125 -0.0625q-1.609375 0 -2.765625 1.15625q-1.15625 1.140625 -1.859375 3.46875l0 5.9375l2.859375 0l0 1.71875l-7.28125 0zm9.171875 -9.296875l0 -3.046875l0.21875 -1.6875l1.9375 0l-0.3125 4.734375l-1.84375 0z" fill-rule="nonzero"/><path fill="#000000" fill-opacity="0.0" d="m180.81364 145.72966l187.02364 0l0 348.9134l-187.02364 0z" fill-rule="evenodd"/><path fill="#000000" fill-opacity="0.0" d="m381.73752 145.73228l397.44882 0l0 40.220474l-397.44882 0z" fill-rule="evenodd"/><path fill="#000000" d="m404.2219 158.50877l-2.375 15.59375l-2.578125 0l-1.796875 -11.765625l-1.796875 11.765625l-2.640625 0l-2.1875 -15.59375l1.96875 0l1.65625 13.4375l1.875 -11.625l2.40625 0l1.78125 11.625l1.875 -13.4375l1.8125 0zm3.875122 10.296875q0.0625 1.390625 0.53125 2.265625q0.484375 0.875 1.265625 1.296875q0.78125 0.40625 1.703125 0.40625q0.90625 0 1.640625 -0.265625q0.75 -0.28125 1.53125 -0.8125l0.90625 1.265625q-0.84375 0.65625 -1.921875 1.03125q-1.0625 0.375 -2.1875 0.375q-1.734375 0 -2.953125 -0.78125q-1.21875 -0.78125 -1.859375 -2.171875q-0.640625 -1.40625 -0.640625 -3.265625q0 -1.8125 0.640625 -3.203125q0.640625 -1.40625 1.8125 -2.203125q1.171875 -0.8125 2.75 -0.8125q1.515625 0 2.59375 0.703125q1.09375 0.703125 1.671875 2.015625q0.59375 1.3125 0.59375 3.125q0 0.296875 -0.015625 0.5625q-0.015625 0.265625 -0.03125 0.46875l-8.03125 0zm3.25 -5.3125q-1.328125 0 -2.21875 0.9375q-0.890625 0.9375 -1.015625 2.90625l6.21875 0q-0.03125 -1.90625 -0.84375 -2.875q-0.796875 -0.96875 -2.140625 -0.96875zm13.500122 -6.125l0 13.78125q0 0.890625 0.546875 1.265625q0.546875 0.359375 1.421875 0.359375q0.546875 0 1.03125 -0.109375q0.484375 -0.109375 0.96875 -0.3125l0.515625 1.40625q-0.484375 0.234375 -1.203125 0.421875q-0.71875 0.1875 -1.625 0.1875q-1.59375 0 -2.578125 -0.875q-0.984375 -0.890625 -0.984375 -2.4375l0 -12.171875l-3.65625 0l0 -1.515625l5.5625 0zm14.343872 15.359375q0.890625 0 1.65625 -0.296875q0.78125 -0.296875 1.4375 -0.75l0.9375 1.25q-0.78125 0.65625 -1.890625 1.046875q-1.09375 0.390625 -2.140625 0.390625q-1.78125 0 -3.03125 -0.765625q-1.25 -0.765625 -1.90625 -2.15625q-0.65625 -1.390625 -0.65625 -3.25q0 -1.796875 0.65625 -3.21875q0.671875 -1.421875 1.921875 -2.234375q1.25 -0.8125 3.03125 -0.8125q1.15625 0 2.15625 0.34375q1.0 0.34375 1.828125 1.03125l-0.921875 1.265625q-0.765625 -0.53125 -1.53125 -0.796875q-0.75 -0.265625 -1.546875 -0.265625q-1.546875 0 -2.546875 1.15625q-0.984375 1.15625 -0.984375 3.53125q0 1.578125 0.453125 2.578125q0.453125 1.0 1.25 1.484375q0.8125 0.46875 1.828125 0.46875zm12.734497 -10.796875q1.6875 0 2.828125 0.765625q1.140625 0.75 1.703125 2.15625q0.578125 1.390625 0.578125 3.28125q0 1.828125 -0.59375 3.234375q-0.578125 1.390625 -1.71875 2.203125q-1.140625 0.796875 -2.8125 0.796875q-1.671875 0 -2.828125 -0.765625q-1.140625 -0.78125 -1.71875 -2.171875q-0.578125 -1.40625 -0.578125 -3.28125q0 -1.84375 0.578125 -3.25q0.59375 -1.40625 1.734375 -2.1875q1.15625 -0.78125 2.828125 -0.78125zm0 1.546875q-1.53125 0 -2.328125 1.140625q-0.78125 1.140625 -0.78125 3.53125q0 2.359375 0.765625 3.515625q0.78125 1.140625 2.328125 1.140625q1.546875 0 2.3125 -1.140625q0.78125 -1.15625 0.78125 -3.53125q0 -2.375 -0.78125 -3.515625q-0.765625 -1.140625 -2.296875 -1.140625zm16.921997 -1.546875q0.578125 0 1.09375 0.25q0.53125 0.25 0.875 0.96875q0.34375 0.703125 0.34375 2.078125l0 8.875l-1.765625 0l0 -8.578125q0 -1.125 -0.140625 -1.609375q-0.140625 -0.5 -0.78125 -0.5q-0.53125 0 -1.0625 0.328125q-0.53125 0.328125 -1.015625 1.09375l0 9.265625l-1.78125 0l0 -8.578125q0 -1.125 -0.140625 -1.609375q-0.140625 -0.5 -0.78125 -0.5q-0.5625 0 -1.078125 0.328125q-0.5 0.328125 -1.0 1.09375l0 9.265625l-1.765625 0l0 -11.921875l1.5 0l0.109375 1.375q0.484375 -0.6875 1.09375 -1.15625q0.609375 -0.46875 1.5 -0.46875q0.6875 0 1.28125 0.328125q0.609375 0.3125 0.890625 1.234375q0.484375 -0.703125 1.09375 -1.125q0.609375 -0.4375 1.53125 -0.4375zm7.218872 6.875q0.0625 1.390625 0.53125 2.265625q0.484375 0.875 1.265625 1.296875q0.78125 0.40625 1.703125 0.40625q0.90625 0 1.640625 -0.265625q0.75 -0.28125 1.53125 -0.8125l0.90625 1.265625q-0.84375 0.65625 -1.921875 1.03125q-1.0625 0.375 -2.1875 0.375q-1.734375 0 -2.953125 -0.78125q-1.21875 -0.78125 -1.859375 -2.171875q-0.640625 -1.40625 -0.640625 -3.265625q0 -1.8125 0.640625 -3.203125q0.640625 -1.40625 1.8125 -2.203125q1.171875 -0.8125 2.75 -0.8125q1.515625 0 2.59375 0.703125q1.09375 0.703125 1.671875 2.015625q0.59375 1.3125 0.59375 3.125q0 0.296875 -0.015625 0.5625q-0.015625 0.265625 -0.03125 0.46875l-8.03125 0zm3.25 -5.3125q-1.328125 0 -2.21875 0.9375q-0.890625 0.9375 -1.015625 2.90625l6.21875 0q-0.03125 -1.90625 -0.84375 -2.875q-0.796875 -0.96875 -2.140625 -0.96875zm13.375122 6.875q0.78125 0 1.296875 0.546875q0.53125 0.53125 0.53125 1.265625q0 0.421875 -0.09375 0.84375q-0.09375 0.40625 -0.34375 0.9375l-1.828125 4.203125l-1.71875 0l1.078125 -4.46875q-0.34375 -0.25 -0.546875 -0.65625q-0.1875 -0.40625 -0.1875 -0.859375q0 -0.75 0.515625 -1.28125q0.53125 -0.53125 1.296875 -0.53125z" fill-rule="nonzero"/><path fill="#000000" d="m522.3168 163.5244q0 -0.84375 -0.3125 -1.390625q-0.3125 -0.546875 -0.9375 -0.8125q-0.625 -0.265625 -1.578125 -0.265625l-1.28125 0l0 5.125l1.46875 0q0.828125 0 1.40625 -0.28125q0.59375 -0.28125 0.90625 -0.859375q0.328125 -0.59375 0.328125 -1.515625zm3.828125 -0.015625q0 1.828125 -0.78125 3.015625q-0.78125 1.1875 -2.1875 1.78125q-1.40625 0.578125 -3.265625 0.578125l-1.703125 0l0 5.21875l-3.703125 0l0 -15.703125l4.9375 0q3.1875 0 4.9375 1.28125q1.765625 1.265625 1.765625 3.828125zm12.250122 7.125q0 0.6875 0.1875 1.0q0.1875 0.296875 0.59375 0.453125l-0.734375 2.359375q-1.0625 -0.109375 -1.796875 -0.46875q-0.71875 -0.375 -1.140625 -1.125q-0.6875 0.828125 -1.765625 1.234375q-1.078125 0.40625 -2.203125 0.40625q-1.859375 0 -2.96875 -1.0625q-1.09375 -1.0625 -1.09375 -2.734375q0 -1.953125 1.53125 -3.015625q1.53125 -1.0625 4.328125 -1.0625l1.609375 0l0 -0.453125q0 -0.9375 -0.609375 -1.390625q-0.59375 -0.453125 -1.765625 -0.453125q-0.578125 0 -1.484375 0.171875q-0.90625 0.15625 -1.8125 0.453125l-0.828125 -2.375q1.171875 -0.4375 2.421875 -0.65625q1.265625 -0.234375 2.265625 -0.234375q2.6875 0 3.96875 1.09375q1.296875 1.09375 1.296875 3.15625l0 4.703125zm-5.625 1.296875q0.578125 0 1.203125 -0.34375q0.640625 -0.34375 0.96875 -0.984375l0 -1.953125l-0.875 0q-1.5 0 -2.203125 0.46875q-0.703125 0.453125 -0.703125 1.34375q0 0.6875 0.421875 1.078125q0.421875 0.390625 1.1875 0.390625zm12.671997 -8.625q0.5625 -0.75 1.359375 -1.1875q0.796875 -0.4375 1.71875 -0.4375q1.546875 0 2.53125 0.78125q0.984375 0.78125 1.4375 2.203125q0.46875 1.421875 0.46875 3.390625q0 1.859375 -0.546875 3.3125q-0.546875 1.453125 -1.625 2.296875q-1.078125 0.828125 -2.640625 0.828125q-1.890625 0 -2.984375 -1.484375l-0.125 1.09375l-3.171875 0l0 -16.8125l3.578125 -0.375l0 6.390625zm1.765625 8.578125q0.953125 0 1.5 -0.875q0.5625 -0.875 0.5625 -2.90625q0 -1.5 -0.234375 -2.3125q-0.234375 -0.828125 -0.65625 -1.140625q-0.421875 -0.328125 -1.0 -0.328125q-0.59375 0 -1.078125 0.375q-0.46875 0.359375 -0.859375 1.015625l0 5.078125q0.328125 0.53125 0.75 0.8125q0.421875 0.28125 1.015625 0.28125zm14.515747 -14.59375l0 13.03125q0 0.71875 0.40625 1.03125q0.421875 0.3125 1.140625 0.3125q0.46875 0 0.890625 -0.109375q0.4375 -0.109375 0.8125 -0.25l0.859375 2.390625q-0.609375 0.3125 -1.46875 0.546875q-0.859375 0.25 -2.0 0.25q-2.171875 0 -3.203125 -1.25q-1.015625 -1.265625 -1.015625 -3.359375l0 -10.140625l-3.546875 0l0 -2.453125l7.125 0zm14.671997 4.78125l0 9.578125l3.0625 0l0 2.453125l-10.046875 0l0 -2.453125l3.40625 0l0 -7.125l-3.296875 0l0 -2.453125l6.875 0zm-2.15625 -6.296875q0.921875 0 1.5 0.578125q0.59375 0.578125 0.59375 1.4375q0 0.859375 -0.59375 1.453125q-0.578125 0.578125 -1.5 0.578125q-0.953125 0 -1.546875 -0.578125q-0.59375 -0.59375 -0.59375 -1.453125q0 -0.859375 0.59375 -1.4375q0.59375 -0.578125 1.546875 -0.578125zm8.406372 18.328125l0 -12.03125l3.125 0l0.25 1.390625q0.796875 -0.90625 1.6875 -1.34375q0.90625 -0.4375 2.046875 -0.4375q1.53125 0 2.421875 0.9375q0.890625 0.9375 0.890625 2.640625l0 8.84375l-3.59375 0l0 -7.8125q0 -0.734375 -0.109375 -1.15625q-0.09375 -0.4375 -0.34375 -0.625q-0.25 -0.1875 -0.703125 -0.1875q-0.359375 0 -0.71875 0.171875q-0.359375 0.15625 -0.703125 0.46875q-0.34375 0.296875 -0.671875 0.71875l0 8.421875l-3.578125 0z" fill-rule="nonzero"/><path fill="#000000" d="m602.4581 158.50877l-0.203125 10.453125l-1.703125 0l-0.234375 -10.453125l2.140625 0zm-1.03125 12.8125q0.65625 0 1.078125 0.453125q0.4375 0.4375 0.4375 1.0625q0 0.625 -0.4375 1.078125q-0.421875 0.453125 -1.078125 0.453125q-0.65625 0 -1.09375 -0.453125q-0.421875 -0.453125 -0.421875 -1.078125q0 -0.625 0.421875 -1.0625q0.4375 -0.453125 1.09375 -0.453125z" fill-rule="nonzero"/><path fill="#000000" fill-opacity="0.0" d="m391.7533 200.02625l127.27557 0l0 28.818893l-127.27557 0z" fill-rule="evenodd"/><path fill="#000000" d="m407.86267 222.96132q-1.859375 0 -3.21875 -0.890625q-1.359375 -0.90625 -2.109375 -2.6875q-0.75 -1.796875 -0.75 -4.5q0 -2.015625 0.53125 -3.515625q0.546875 -1.5 1.46875 -2.5q0.921875 -1.015625 2.09375 -1.515625q1.171875 -0.5 2.4375 -0.5q1.515625 0 2.53125 0.4375q1.015625 0.4375 1.921875 1.265625l-1.1875 1.234375q-0.71875 -0.671875 -1.5 -0.984375q-0.78125 -0.3125 -1.765625 -0.3125q-0.84375 0 -1.640625 0.328125q-0.796875 0.328125 -1.421875 1.078125q-0.625 0.734375 -1.0 1.953125q-0.359375 1.21875 -0.359375 3.03125q0 2.265625 0.46875 3.6875q0.46875 1.40625 1.390625 2.078125q0.921875 0.65625 2.28125 0.65625q0.8125 0 1.546875 -0.1875q0.734375 -0.203125 1.421875 -0.5625l0 -4.765625l-3.0625 0l-0.25 -1.625l5.265625 0l0 7.4375q-1.0625 0.5625 -2.25 0.96875q-1.1875 0.390625 -2.84375 0.390625zm17.296997 -2.875q0 0.71875 0.234375 1.046875q0.25 0.328125 0.75 0.484375l-0.46875 1.34375q-0.765625 -0.109375 -1.34375 -0.5q-0.578125 -0.390625 -0.84375 -1.1875q-0.640625 0.828125 -1.609375 1.265625q-0.953125 0.421875 -2.125 0.421875q-1.796875 0 -2.828125 -1.0q-1.03125 -1.015625 -1.03125 -2.6875q0 -1.84375 1.4375 -2.828125q1.4375 -0.984375 4.15625 -0.984375l1.765625 0l0 -1.0q0 -1.296875 -0.765625 -1.828125q-0.75 -0.546875 -2.078125 -0.546875q-0.59375 0 -1.390625 0.15625q-0.78125 0.140625 -1.71875 0.46875l-0.5 -1.453125q1.109375 -0.40625 2.0625 -0.5625q0.96875 -0.171875 1.84375 -0.171875q2.234375 0 3.34375 1.03125q1.109375 1.03125 1.109375 2.8125l0 5.71875zm-4.921875 1.421875q0.890625 0 1.6875 -0.4375q0.8125 -0.453125 1.328125 -1.25l0 -3.078125l-1.71875 0q-1.96875 0 -2.78125 0.6875q-0.8125 0.671875 -0.8125 1.828125q0 1.109375 0.5625 1.6875q0.578125 0.5625 1.734375 0.5625zm14.625122 -15.546875l0 13.78125q0 0.890625 0.546875 1.265625q0.546875 0.359375 1.421875 0.359375q0.546875 0 1.03125 -0.109375q0.484375 -0.109375 0.96875 -0.3125l0.515625 1.40625q-0.484375 0.234375 -1.203125 0.421875q-0.71875 0.1875 -1.625 0.1875q-1.59375 0 -2.578125 -0.875q-0.984375 -0.890625 -0.984375 -2.4375l0 -12.171875l-3.65625 0l0 -1.515625l5.5625 0zm13.593872 0l0 13.78125q0 0.890625 0.546875 1.265625q0.546875 0.359375 1.421875 0.359375q0.546875 0 1.03125 -0.109375q0.484375 -0.109375 0.96875 -0.3125l0.515625 1.40625q-0.484375 0.234375 -1.203125 0.421875q-0.71875 0.1875 -1.625 0.1875q-1.59375 0 -2.578125 -0.875q-0.984375 -0.890625 -0.984375 -2.4375l0 -12.171875l-3.65625 0l0 -1.515625l5.5625 0zm10.437622 11.4375q0.0625 1.390625 0.53125 2.265625q0.484375 0.875 1.265625 1.296875q0.78125 0.40625 1.703125 0.40625q0.90625 0 1.640625 -0.265625q0.75 -0.28125 1.53125 -0.8125l0.90625 1.265625q-0.84375 0.65625 -1.921875 1.03125q-1.0625 0.375 -2.1875 0.375q-1.734375 0 -2.953125 -0.78125q-1.21875 -0.78125 -1.859375 -2.171875q-0.640625 -1.40625 -0.640625 -3.265625q0 -1.8125 0.640625 -3.203125q0.640625 -1.40625 1.8125 -2.203125q1.171875 -0.8125 2.75 -0.8125q1.515625 0 2.59375 0.703125q1.09375 0.703125 1.671875 2.015625q0.59375 1.3125 0.59375 3.125q0 0.296875 -0.015625 0.5625q-0.015625 0.265625 -0.03125 0.46875l-8.03125 0zm3.25 -5.3125q-1.328125 0 -2.21875 0.9375q-0.890625 0.9375 -1.015625 2.90625l6.21875 0q-0.03125 -1.90625 -0.84375 -2.875q-0.796875 -0.96875 -2.140625 -0.96875zm8.968872 10.609375l0 -1.46875l1.859375 0l0 -9.0l-1.859375 0l0 -1.453125l3.3125 0l0.34375 2.8125q0.6875 -1.46875 1.671875 -2.265625q1.0 -0.8125 2.609375 -0.8125q0.5 0 0.890625 0.078125q0.390625 0.0625 0.796875 0.1875l-0.546875 1.6875q-0.375 -0.09375 -0.6875 -0.140625q-0.296875 -0.0625 -0.703125 -0.0625q-1.359375 0 -2.359375 0.984375q-0.984375 0.96875 -1.5625 2.9375l0 5.046875l2.421875 0l0 1.46875l-6.1875 0zm7.796875 -7.890625l0 -2.59375l0.1875 -1.4375l1.640625 0l-0.265625 4.03125l-1.5625 0zm15.609497 -4.03125l-4.1875 12.0q-0.421875 1.21875 -1.0625 2.21875q-0.640625 1.015625 -1.671875 1.671875q-1.015625 0.671875 -2.59375 0.828125l-0.296875 -1.515625q1.234375 -0.21875 1.9375 -0.640625q0.71875 -0.40625 1.125 -1.0625q0.421875 -0.65625 0.75 -1.578125l-0.640625 0l-4.171875 -11.921875l2.046875 0l3.421875 10.46875l3.375 -10.46875l1.96875 0z" fill-rule="nonzero"/><path fill="#f3f3f3" d="m405.9239 242.91864l110.01575 0l0 28.818878l-110.01575 0z" fill-rule="evenodd"/><path stroke="#000000" stroke-width="1.0" stroke-linejoin="round" stroke-linecap="butt" d="m405.9239 242.91864l110.01575 0l0 28.818878l-110.01575 0z" fill-rule="evenodd"/><path fill="#000000" d="m424.1895 251.40433l0 1.296875l-2.84375 0l0 10.25l2.84375 0l0 1.296875l-7.34375 0l0 -1.296875l2.859375 0l0 -10.25l-2.859375 0l0 -1.296875l7.34375 0zm11.600006 12.34375q-0.5 0.34375 -1.21875 0.53125q-0.71875 0.1875 -1.40625 0.1875q-1.59375 0 -2.453125 -0.828125q-0.859375 -0.84375 -0.859375 -2.140625l0 -5.859375l-2.25 0l0 -1.21875l2.25 0l0 -2.21875l1.578125 -0.1875l0 2.40625l3.390625 0l-0.1875 1.21875l-3.203125 0l0 5.84375q0 0.8125 0.421875 1.25q0.4375 0.421875 1.453125 0.421875q0.546875 0 1.015625 -0.125q0.46875 -0.140625 0.859375 -0.34375l0.609375 1.0625zm4.631256 -3.859375q0.046875 1.140625 0.4375 1.875q0.390625 0.71875 1.03125 1.0625q0.640625 0.328125 1.40625 0.328125q0.75 0 1.359375 -0.21875q0.609375 -0.234375 1.25 -0.671875l0.75 1.046875q-0.703125 0.53125 -1.578125 0.84375q-0.875 0.3125 -1.8125 0.3125q-1.421875 0 -2.4375 -0.640625q-1.0 -0.65625 -1.53125 -1.796875q-0.515625 -1.15625 -0.515625 -2.671875q0 -1.5 0.53125 -2.65625q0.53125 -1.15625 1.484375 -1.8125q0.96875 -0.671875 2.265625 -0.671875q1.25 0 2.140625 0.59375q0.890625 0.578125 1.375 1.65625q0.484375 1.078125 0.484375 2.5625q0 0.25 -0.015625 0.46875q0 0.21875 -0.03125 0.390625l-6.59375 0zm2.671875 -4.375q-1.09375 0 -1.828125 0.78125q-0.734375 0.765625 -0.84375 2.390625l5.125 0q-0.03125 -1.578125 -0.6875 -2.375q-0.65625 -0.796875 -1.765625 -0.796875zm13.756256 -1.296875q0.484375 0 0.90625 0.203125q0.4375 0.203125 0.71875 0.796875q0.28125 0.59375 0.28125 1.71875l0 7.3125l-1.453125 0l0 -7.0625q0 -0.921875 -0.109375 -1.328125q-0.109375 -0.421875 -0.640625 -0.421875q-0.4375 0 -0.875 0.28125q-0.4375 0.28125 -0.84375 0.90625l0 7.625l-1.46875 0l0 -7.0625q0 -0.921875 -0.109375 -1.328125q-0.109375 -0.421875 -0.640625 -0.421875q-0.46875 0 -0.890625 0.28125q-0.421875 0.28125 -0.828125 0.90625l0 7.625l-1.453125 0l0 -9.828125l1.234375 0l0.09375 1.140625q0.40625 -0.5625 0.90625 -0.953125q0.5 -0.390625 1.234375 -0.390625q0.5625 0 1.046875 0.265625q0.5 0.265625 0.734375 1.03125q0.390625 -0.578125 0.890625 -0.9375q0.515625 -0.359375 1.265625 -0.359375z" fill-rule="nonzero"/><path fill="#f3f3f3" d="m644.98425 242.91864l110.01575 0l0 28.818878l-110.01575 0z" fill-rule="evenodd"/><path stroke="#000000" stroke-width="1.0" stroke-linejoin="round" stroke-linecap="butt" d="m644.98425 242.91864l110.01575 0l0 28.818878l-110.01575 0z" fill-rule="evenodd"/><path fill="#000000" d="m663.2499 251.40433l0 1.296875l-2.84375 0l0 10.25l2.84375 0l0 1.296875l-7.34375 0l0 -1.296875l2.859375 0l0 -10.25l-2.859375 0l0 -1.296875l7.34375 0zm11.599976 12.34375q-0.5 0.34375 -1.21875 0.53125q-0.71875 0.1875 -1.40625 0.1875q-1.59375 0 -2.453125 -0.828125q-0.859375 -0.84375 -0.859375 -2.140625l0 -5.859375l-2.25 0l0 -1.21875l2.25 0l0 -2.21875l1.578125 -0.1875l0 2.40625l3.390625 0l-0.1875 1.21875l-3.203125 0l0 5.84375q0 0.8125 0.421875 1.25q0.4375 0.421875 1.453125 0.421875q0.546875 0 1.015625 -0.125q0.46875 -0.140625 0.859375 -0.34375l0.609375 1.0625zm4.6312866 -3.859375q0.046875 1.140625 0.4375 1.875q0.390625 0.71875 1.03125 1.0625q0.640625 0.328125 1.40625 0.328125q0.75 0 1.359375 -0.21875q0.609375 -0.234375 1.25 -0.671875l0.75 1.046875q-0.703125 0.53125 -1.578125 0.84375q-0.875 0.3125 -1.8125 0.3125q-1.421875 0 -2.4375 -0.640625q-1.0 -0.65625 -1.53125 -1.796875q-0.515625 -1.15625 -0.515625 -2.671875q0 -1.5 0.53125 -2.65625q0.53125 -1.15625 1.484375 -1.8125q0.96875 -0.671875 2.265625 -0.671875q1.25 0 2.140625 0.59375q0.890625 0.578125 1.375 1.65625q0.484375 1.078125 0.484375 2.5625q0 0.25 -0.015625 0.46875q0 0.21875 -0.03125 0.390625l-6.59375 0zm2.671875 -4.375q-1.09375 0 -1.828125 0.78125q-0.734375 0.765625 -0.84375 2.390625l5.125 0q-0.03125 -1.578125 -0.6875 -2.375q-0.65625 -0.796875 -1.765625 -0.796875zm13.756226 -1.296875q0.484375 0 0.90625 0.203125q0.4375 0.203125 0.71875 0.796875q0.28125 0.59375 0.28125 1.71875l0 7.3125l-1.453125 0l0 -7.0625q0 -0.921875 -0.109375 -1.328125q-0.109375 -0.421875 -0.640625 -0.421875q-0.4375 0 -0.875 0.28125q-0.4375 0.28125 -0.84375 0.90625l0 7.625l-1.46875 0l0 -7.0625q0 -0.921875 -0.109375 -1.328125q-0.109375 -0.421875 -0.640625 -0.421875q-0.46875 0 -0.890625 0.28125q-0.421875 0.28125 -0.828125 0.90625l0 7.625l-1.453125 0l0 -9.828125l1.234375 0l0.09375 1.140625q0.40625 -0.5625 0.90625 -0.953125q0.5 -0.390625 1.234375 -0.390625q0.5625 0 1.046875 0.265625q0.5 0.265625 0.734375 1.03125q0.390625 -0.578125 0.890625 -0.9375q0.515625 -0.359375 1.265625 -0.359375z" fill-rule="nonzero"/><path fill="#f3f3f3" d="m525.45404 242.91864l110.01575 0l0 28.818878l-110.01575 0z" fill-rule="evenodd"/><path stroke="#000000" stroke-width="1.0" stroke-linejoin="round" stroke-linecap="butt" d="m525.45404 242.91864l110.01575 0l0 28.818878l-110.01575 0z" fill-rule="evenodd"/><path fill="#000000" d="m543.71967 251.40433l0 1.296875l-2.84375 0l0 10.25l2.84375 0l0 1.296875l-7.34375 0l0 -1.296875l2.859375 0l0 -10.25l-2.859375 0l0 -1.296875l7.34375 0zm11.600037 12.34375q-0.5 0.34375 -1.21875 0.53125q-0.71875 0.1875 -1.40625 0.1875q-1.59375 0 -2.453125 -0.828125q-0.859375 -0.84375 -0.859375 -2.140625l0 -5.859375l-2.25 0l0 -1.21875l2.25 0l0 -2.21875l1.578125 -0.1875l0 2.40625l3.390625 0l-0.1875 1.21875l-3.203125 0l0 5.84375q0 0.8125 0.421875 1.25q0.4375 0.421875 1.453125 0.421875q0.546875 0 1.015625 -0.125q0.46875 -0.140625 0.859375 -0.34375l0.609375 1.0625zm4.6312256 -3.859375q0.046875 1.140625 0.4375 1.875q0.390625 0.71875 1.03125 1.0625q0.640625 0.328125 1.40625 0.328125q0.75 0 1.359375 -0.21875q0.609375 -0.234375 1.25 -0.671875l0.75 1.046875q-0.703125 0.53125 -1.578125 0.84375q-0.875 0.3125 -1.8125 0.3125q-1.421875 0 -2.4375 -0.640625q-1.0 -0.65625 -1.53125 -1.796875q-0.515625 -1.15625 -0.515625 -2.671875q0 -1.5 0.53125 -2.65625q0.53125 -1.15625 1.484375 -1.8125q0.96875 -0.671875 2.265625 -0.671875q1.25 0 2.140625 0.59375q0.890625 0.578125 1.375 1.65625q0.484375 1.078125 0.484375 2.5625q0 0.25 -0.015625 0.46875q0 0.21875 -0.03125 0.390625l-6.59375 0zm2.671875 -4.375q-1.09375 0 -1.828125 0.78125q-0.734375 0.765625 -0.84375 2.390625l5.125 0q-0.03125 -1.578125 -0.6875 -2.375q-0.65625 -0.796875 -1.765625 -0.796875zm13.756287 -1.296875q0.484375 0 0.90625 0.203125q0.4375 0.203125 0.71875 0.796875q0.28125 0.59375 0.28125 1.71875l0 7.3125l-1.453125 0l0 -7.0625q0 -0.921875 -0.109375 -1.328125q-0.109375 -0.421875 -0.640625 -0.421875q-0.4375 0 -0.875 0.28125q-0.4375 0.28125 -0.84375 0.90625l0 7.625l-1.46875 0l0 -7.0625q0 -0.921875 -0.109375 -1.328125q-0.109375 -0.421875 -0.640625 -0.421875q-0.46875 0 -0.890625 0.28125q-0.421875 0.28125 -0.828125 0.90625l0 7.625l-1.453125 0l0 -9.828125l1.234375 0l0.09375 1.140625q0.40625 -0.5625 0.90625 -0.953125q0.5 -0.390625 1.234375 -0.390625q0.5625 0 1.046875 0.265625q0.5 0.265625 0.734375 1.03125q0.390625 -0.578125 0.890625 -0.9375q0.515625 -0.359375 1.265625 -0.359375z" fill-rule="nonzero"/><path fill="#f3f3f3" d="m405.9239 280.71652l110.01575 0l0 28.818909l-110.01575 0z" fill-rule="evenodd"/><path stroke="#000000" stroke-width="1.0" stroke-linejoin="round" stroke-linecap="butt" d="m405.9239 280.71652l110.01575 0l0 28.818909l-110.01575 0z" fill-rule="evenodd"/><path fill="#000000" d="m424.1895 289.20224l0 1.296875l-2.84375 0l0 10.25l2.84375 0l0 1.296875l-7.34375 0l0 -1.296875l2.859375 0l0 -10.25l-2.859375 0l0 -1.296875l7.34375 0zm11.600006 12.34375q-0.5 0.34375 -1.21875 0.53125q-0.71875 0.1875 -1.40625 0.1875q-1.59375 0 -2.453125 -0.828125q-0.859375 -0.84375 -0.859375 -2.140625l0 -5.859375l-2.25 0l0 -1.21875l2.25 0l0 -2.21875l1.578125 -0.1875l0 2.40625l3.390625 0l-0.1875 1.21875l-3.203125 0l0 5.84375q0 0.8125 0.421875 1.25q0.4375 0.421875 1.453125 0.421875q0.546875 0 1.015625 -0.125q0.46875 -0.140625 0.859375 -0.34375l0.609375 1.0625zm4.631256 -3.859375q0.046875 1.140625 0.4375 1.875q0.390625 0.71875 1.03125 1.0625q0.640625 0.328125 1.40625 0.328125q0.75 0 1.359375 -0.21875q0.609375 -0.234375 1.25 -0.671875l0.75 1.046875q-0.703125 0.53125 -1.578125 0.84375q-0.875 0.3125 -1.8125 0.3125q-1.421875 0 -2.4375 -0.640625q-1.0 -0.65625 -1.53125 -1.796875q-0.515625 -1.15625 -0.515625 -2.671875q0 -1.5 0.53125 -2.65625q0.53125 -1.15625 1.484375 -1.8125q0.96875 -0.671875 2.265625 -0.671875q1.25 0 2.140625 0.59375q0.890625 0.578125 1.375 1.65625q0.484375 1.078125 0.484375 2.5625q0 0.25 -0.015625 0.46875q0 0.21875 -0.03125 0.390625l-6.59375 0zm2.671875 -4.375q-1.09375 0 -1.828125 0.78125q-0.734375 0.765625 -0.84375 2.390625l5.125 0q-0.03125 -1.578125 -0.6875 -2.375q-0.65625 -0.796875 -1.765625 -0.796875zm13.756256 -1.296875q0.484375 0 0.90625 0.203125q0.4375 0.203125 0.71875 0.796875q0.28125 0.59375 0.28125 1.71875l0 7.3125l-1.453125 0l0 -7.0625q0 -0.921875 -0.109375 -1.328125q-0.109375 -0.421875 -0.640625 -0.421875q-0.4375 0 -0.875 0.28125q-0.4375 0.28125 -0.84375 0.90625l0 7.625l-1.46875 0l0 -7.0625q0 -0.921875 -0.109375 -1.328125q-0.109375 -0.421875 -0.640625 -0.421875q-0.46875 0 -0.890625 0.28125q-0.421875 0.28125 -0.828125 0.90625l0 7.625l-1.453125 0l0 -9.828125l1.234375 0l0.09375 1.140625q0.40625 -0.5625 0.90625 -0.953125q0.5 -0.390625 1.234375 -0.390625q0.5625 0 1.046875 0.265625q0.5 0.265625 0.734375 1.03125q0.390625 -0.578125 0.890625 -0.9375q0.515625 -0.359375 1.265625 -0.359375z" fill-rule="nonzero"/><path fill="#f3f3f3" d="m644.98425 280.71652l110.01575 0l0 28.818909l-110.01575 0z" fill-rule="evenodd"/><path stroke="#000000" stroke-width="1.0" stroke-linejoin="round" stroke-linecap="butt" d="m644.98425 280.71652l110.01575 0l0 28.818909l-110.01575 0z" fill-rule="evenodd"/><path fill="#000000" d="m663.2499 289.20224l0 1.296875l-2.84375 0l0 10.25l2.84375 0l0 1.296875l-7.34375 0l0 -1.296875l2.859375 0l0 -10.25l-2.859375 0l0 -1.296875l7.34375 0zm11.599976 12.34375q-0.5 0.34375 -1.21875 0.53125q-0.71875 0.1875 -1.40625 0.1875q-1.59375 0 -2.453125 -0.828125q-0.859375 -0.84375 -0.859375 -2.140625l0 -5.859375l-2.25 0l0 -1.21875l2.25 0l0 -2.21875l1.578125 -0.1875l0 2.40625l3.390625 0l-0.1875 1.21875l-3.203125 0l0 5.84375q0 0.8125 0.421875 1.25q0.4375 0.421875 1.453125 0.421875q0.546875 0 1.015625 -0.125q0.46875 -0.140625 0.859375 -0.34375l0.609375 1.0625zm4.6312866 -3.859375q0.046875 1.140625 0.4375 1.875q0.390625 0.71875 1.03125 1.0625q0.640625 0.328125 1.40625 0.328125q0.75 0 1.359375 -0.21875q0.609375 -0.234375 1.25 -0.671875l0.75 1.046875q-0.703125 0.53125 -1.578125 0.84375q-0.875 0.3125 -1.8125 0.3125q-1.421875 0 -2.4375 -0.640625q-1.0 -0.65625 -1.53125 -1.796875q-0.515625 -1.15625 -0.515625 -2.671875q0 -1.5 0.53125 -2.65625q0.53125 -1.15625 1.484375 -1.8125q0.96875 -0.671875 2.265625 -0.671875q1.25 0 2.140625 0.59375q0.890625 0.578125 1.375 1.65625q0.484375 1.078125 0.484375 2.5625q0 0.25 -0.015625 0.46875q0 0.21875 -0.03125 0.390625l-6.59375 0zm2.671875 -4.375q-1.09375 0 -1.828125 0.78125q-0.734375 0.765625 -0.84375 2.390625l5.125 0q-0.03125 -1.578125 -0.6875 -2.375q-0.65625 -0.796875 -1.765625 -0.796875zm13.756226 -1.296875q0.484375 0 0.90625 0.203125q0.4375 0.203125 0.71875 0.796875q0.28125 0.59375 0.28125 1.71875l0 7.3125l-1.453125 0l0 -7.0625q0 -0.921875 -0.109375 -1.328125q-0.109375 -0.421875 -0.640625 -0.421875q-0.4375 0 -0.875 0.28125q-0.4375 0.28125 -0.84375 0.90625l0 7.625l-1.46875 0l0 -7.0625q0 -0.921875 -0.109375 -1.328125q-0.109375 -0.421875 -0.640625 -0.421875q-0.46875 0 -0.890625 0.28125q-0.421875 0.28125 -0.828125 0.90625l0 7.625l-1.453125 0l0 -9.828125l1.234375 0l0.09375 1.140625q0.40625 -0.5625 0.90625 -0.953125q0.5 -0.390625 1.234375 -0.390625q0.5625 0 1.046875 0.265625q0.5 0.265625 0.734375 1.03125q0.390625 -0.578125 0.890625 -0.9375q0.515625 -0.359375 1.265625 -0.359375z" fill-rule="nonzero"/><path fill="#f3f3f3" d="m525.45404 280.71652l110.01575 0l0 28.818909l-110.01575 0z" fill-rule="evenodd"/><path stroke="#000000" stroke-width="1.0" stroke-linejoin="round" stroke-linecap="butt" d="m525.45404 280.71652l110.01575 0l0 28.818909l-110.01575 0z" fill-rule="evenodd"/><path fill="#000000" d="m543.71967 289.20224l0 1.296875l-2.84375 0l0 10.25l2.84375 0l0 1.296875l-7.34375 0l0 -1.296875l2.859375 0l0 -10.25l-2.859375 0l0 -1.296875l7.34375 0zm11.600037 12.34375q-0.5 0.34375 -1.21875 0.53125q-0.71875 0.1875 -1.40625 0.1875q-1.59375 0 -2.453125 -0.828125q-0.859375 -0.84375 -0.859375 -2.140625l0 -5.859375l-2.25 0l0 -1.21875l2.25 0l0 -2.21875l1.578125 -0.1875l0 2.40625l3.390625 0l-0.1875 1.21875l-3.203125 0l0 5.84375q0 0.8125 0.421875 1.25q0.4375 0.421875 1.453125 0.421875q0.546875 0 1.015625 -0.125q0.46875 -0.140625 0.859375 -0.34375l0.609375 1.0625zm4.6312256 -3.859375q0.046875 1.140625 0.4375 1.875q0.390625 0.71875 1.03125 1.0625q0.640625 0.328125 1.40625 0.328125q0.75 0 1.359375 -0.21875q0.609375 -0.234375 1.25 -0.671875l0.75 1.046875q-0.703125 0.53125 -1.578125 0.84375q-0.875 0.3125 -1.8125 0.3125q-1.421875 0 -2.4375 -0.640625q-1.0 -0.65625 -1.53125 -1.796875q-0.515625 -1.15625 -0.515625 -2.671875q0 -1.5 0.53125 -2.65625q0.53125 -1.15625 1.484375 -1.8125q0.96875 -0.671875 2.265625 -0.671875q1.25 0 2.140625 0.59375q0.890625 0.578125 1.375 1.65625q0.484375 1.078125 0.484375 2.5625q0 0.25 -0.015625 0.46875q0 0.21875 -0.03125 0.390625l-6.59375 0zm2.671875 -4.375q-1.09375 0 -1.828125 0.78125q-0.734375 0.765625 -0.84375 2.390625l5.125 0q-0.03125 -1.578125 -0.6875 -2.375q-0.65625 -0.796875 -1.765625 -0.796875zm13.756287 -1.296875q0.484375 0 0.90625 0.203125q0.4375 0.203125 0.71875 0.796875q0.28125 0.59375 0.28125 1.71875l0 7.3125l-1.453125 0l0 -7.0625q0 -0.921875 -0.109375 -1.328125q-0.109375 -0.421875 -0.640625 -0.421875q-0.4375 0 -0.875 0.28125q-0.4375 0.28125 -0.84375 0.90625l0 7.625l-1.46875 0l0 -7.0625q0 -0.921875 -0.109375 -1.328125q-0.109375 -0.421875 -0.640625 -0.421875q-0.46875 0 -0.890625 0.28125q-0.421875 0.28125 -0.828125 0.90625l0 7.625l-1.453125 0l0 -9.828125l1.234375 0l0.09375 1.140625q0.40625 -0.5625 0.90625 -0.953125q0.5 -0.390625 1.234375 -0.390625q0.5625 0 1.046875 0.265625q0.5 0.265625 0.734375 1.03125q0.390625 -0.578125 0.890625 -0.9375q0.515625 -0.359375 1.265625 -0.359375z" fill-rule="nonzero"/><path fill="#f3f3f3" d="m405.9239 318.51443l110.01575 0l0 28.818909l-110.01575 0z" fill-rule="evenodd"/><path stroke="#000000" stroke-width="1.0" stroke-linejoin="round" stroke-linecap="butt" d="m405.9239 318.51443l110.01575 0l0 28.818909l-110.01575 0z" fill-rule="evenodd"/><path fill="#000000" d="m424.1895 327.00012l0 1.296875l-2.84375 0l0 10.25l2.84375 0l0 1.296875l-7.34375 0l0 -1.296875l2.859375 0l0 -10.25l-2.859375 0l0 -1.296875l7.34375 0zm11.600006 12.34375q-0.5 0.34375 -1.21875 0.53125q-0.71875 0.1875 -1.40625 0.1875q-1.59375 0 -2.453125 -0.828125q-0.859375 -0.84375 -0.859375 -2.140625l0 -5.859375l-2.25 0l0 -1.21875l2.25 0l0 -2.21875l1.578125 -0.1875l0 2.40625l3.390625 0l-0.1875 1.21875l-3.203125 0l0 5.84375q0 0.8125 0.421875 1.25q0.4375 0.421875 1.453125 0.421875q0.546875 0 1.015625 -0.125q0.46875 -0.140625 0.859375 -0.34375l0.609375 1.0625zm4.631256 -3.859375q0.046875 1.140625 0.4375 1.875q0.390625 0.71875 1.03125 1.0625q0.640625 0.328125 1.40625 0.328125q0.75 0 1.359375 -0.21875q0.609375 -0.234375 1.25 -0.671875l0.75 1.046875q-0.703125 0.53125 -1.578125 0.84375q-0.875 0.3125 -1.8125 0.3125q-1.421875 0 -2.4375 -0.640625q-1.0 -0.65625 -1.53125 -1.796875q-0.515625 -1.15625 -0.515625 -2.671875q0 -1.5 0.53125 -2.65625q0.53125 -1.15625 1.484375 -1.8125q0.96875 -0.671875 2.265625 -0.671875q1.25 0 2.140625 0.59375q0.890625 0.578125 1.375 1.65625q0.484375 1.078125 0.484375 2.5625q0 0.25 -0.015625 0.46875q0 0.21875 -0.03125 0.390625l-6.59375 0zm2.671875 -4.375q-1.09375 0 -1.828125 0.78125q-0.734375 0.765625 -0.84375 2.390625l5.125 0q-0.03125 -1.578125 -0.6875 -2.375q-0.65625 -0.796875 -1.765625 -0.796875zm13.756256 -1.296875q0.484375 0 0.90625 0.203125q0.4375 0.203125 0.71875 0.796875q0.28125 0.59375 0.28125 1.71875l0 7.3125l-1.453125 0l0 -7.0625q0 -0.921875 -0.109375 -1.328125q-0.109375 -0.421875 -0.640625 -0.421875q-0.4375 0 -0.875 0.28125q-0.4375 0.28125 -0.84375 0.90625l0 7.625l-1.46875 0l0 -7.0625q0 -0.921875 -0.109375 -1.328125q-0.109375 -0.421875 -0.640625 -0.421875q-0.46875 0 -0.890625 0.28125q-0.421875 0.28125 -0.828125 0.90625l0 7.625l-1.453125 0l0 -9.828125l1.234375 0l0.09375 1.140625q0.40625 -0.5625 0.90625 -0.953125q0.5 -0.390625 1.234375 -0.390625q0.5625 0 1.046875 0.265625q0.5 0.265625 0.734375 1.03125q0.390625 -0.578125 0.890625 -0.9375q0.515625 -0.359375 1.265625 -0.359375z" fill-rule="nonzero"/><path fill="#f3f3f3" d="m644.98425 318.51443l110.01575 0l0 28.818909l-110.01575 0z" fill-rule="evenodd"/><path stroke="#000000" stroke-width="1.0" stroke-linejoin="round" stroke-linecap="butt" d="m644.98425 318.51443l110.01575 0l0 28.818909l-110.01575 0z" fill-rule="evenodd"/><path fill="#000000" d="m663.2499 327.00012l0 1.296875l-2.84375 0l0 10.25l2.84375 0l0 1.296875l-7.34375 0l0 -1.296875l2.859375 0l0 -10.25l-2.859375 0l0 -1.296875l7.34375 0zm11.599976 12.34375q-0.5 0.34375 -1.21875 0.53125q-0.71875 0.1875 -1.40625 0.1875q-1.59375 0 -2.453125 -0.828125q-0.859375 -0.84375 -0.859375 -2.140625l0 -5.859375l-2.25 0l0 -1.21875l2.25 0l0 -2.21875l1.578125 -0.1875l0 2.40625l3.390625 0l-0.1875 1.21875l-3.203125 0l0 5.84375q0 0.8125 0.421875 1.25q0.4375 0.421875 1.453125 0.421875q0.546875 0 1.015625 -0.125q0.46875 -0.140625 0.859375 -0.34375l0.609375 1.0625zm4.6312866 -3.859375q0.046875 1.140625 0.4375 1.875q0.390625 0.71875 1.03125 1.0625q0.640625 0.328125 1.40625 0.328125q0.75 0 1.359375 -0.21875q0.609375 -0.234375 1.25 -0.671875l0.75 1.046875q-0.703125 0.53125 -1.578125 0.84375q-0.875 0.3125 -1.8125 0.3125q-1.421875 0 -2.4375 -0.640625q-1.0 -0.65625 -1.53125 -1.796875q-0.515625 -1.15625 -0.515625 -2.671875q0 -1.5 0.53125 -2.65625q0.53125 -1.15625 1.484375 -1.8125q0.96875 -0.671875 2.265625 -0.671875q1.25 0 2.140625 0.59375q0.890625 0.578125 1.375 1.65625q0.484375 1.078125 0.484375 2.5625q0 0.25 -0.015625 0.46875q0 0.21875 -0.03125 0.390625l-6.59375 0zm2.671875 -4.375q-1.09375 0 -1.828125 0.78125q-0.734375 0.765625 -0.84375 2.390625l5.125 0q-0.03125 -1.578125 -0.6875 -2.375q-0.65625 -0.796875 -1.765625 -0.796875zm13.756226 -1.296875q0.484375 0 0.90625 0.203125q0.4375 0.203125 0.71875 0.796875q0.28125 0.59375 0.28125 1.71875l0 7.3125l-1.453125 0l0 -7.0625q0 -0.921875 -0.109375 -1.328125q-0.109375 -0.421875 -0.640625 -0.421875q-0.4375 0 -0.875 0.28125q-0.4375 0.28125 -0.84375 0.90625l0 7.625l-1.46875 0l0 -7.0625q0 -0.921875 -0.109375 -1.328125q-0.109375 -0.421875 -0.640625 -0.421875q-0.46875 0 -0.890625 0.28125q-0.421875 0.28125 -0.828125 0.90625l0 7.625l-1.453125 0l0 -9.828125l1.234375 0l0.09375 1.140625q0.40625 -0.5625 0.90625 -0.953125q0.5 -0.390625 1.234375 -0.390625q0.5625 0 1.046875 0.265625q0.5 0.265625 0.734375 1.03125q0.390625 -0.578125 0.890625 -0.9375q0.515625 -0.359375 1.265625 -0.359375z" fill-rule="nonzero"/><path fill="#f3f3f3" d="m525.45404 318.51443l110.01575 0l0 28.818909l-110.01575 0z" fill-rule="evenodd"/><path stroke="#000000" stroke-width="1.0" stroke-linejoin="round" stroke-linecap="butt" d="m525.45404 318.51443l110.01575 0l0 28.818909l-110.01575 0z" fill-rule="evenodd"/><path fill="#000000" d="m543.71967 327.00012l0 1.296875l-2.84375 0l0 10.25l2.84375 0l0 1.296875l-7.34375 0l0 -1.296875l2.859375 0l0 -10.25l-2.859375 0l0 -1.296875l7.34375 0zm11.600037 12.34375q-0.5 0.34375 -1.21875 0.53125q-0.71875 0.1875 -1.40625 0.1875q-1.59375 0 -2.453125 -0.828125q-0.859375 -0.84375 -0.859375 -2.140625l0 -5.859375l-2.25 0l0 -1.21875l2.25 0l0 -2.21875l1.578125 -0.1875l0 2.40625l3.390625 0l-0.1875 1.21875l-3.203125 0l0 5.84375q0 0.8125 0.421875 1.25q0.4375 0.421875 1.453125 0.421875q0.546875 0 1.015625 -0.125q0.46875 -0.140625 0.859375 -0.34375l0.609375 1.0625zm4.6312256 -3.859375q0.046875 1.140625 0.4375 1.875q0.390625 0.71875 1.03125 1.0625q0.640625 0.328125 1.40625 0.328125q0.75 0 1.359375 -0.21875q0.609375 -0.234375 1.25 -0.671875l0.75 1.046875q-0.703125 0.53125 -1.578125 0.84375q-0.875 0.3125 -1.8125 0.3125q-1.421875 0 -2.4375 -0.640625q-1.0 -0.65625 -1.53125 -1.796875q-0.515625 -1.15625 -0.515625 -2.671875q0 -1.5 0.53125 -2.65625q0.53125 -1.15625 1.484375 -1.8125q0.96875 -0.671875 2.265625 -0.671875q1.25 0 2.140625 0.59375q0.890625 0.578125 1.375 1.65625q0.484375 1.078125 0.484375 2.5625q0 0.25 -0.015625 0.46875q0 0.21875 -0.03125 0.390625l-6.59375 0zm2.671875 -4.375q-1.09375 0 -1.828125 0.78125q-0.734375 0.765625 -0.84375 2.390625l5.125 0q-0.03125 -1.578125 -0.6875 -2.375q-0.65625 -0.796875 -1.765625 -0.796875zm13.756287 -1.296875q0.484375 0 0.90625 0.203125q0.4375 0.203125 0.71875 0.796875q0.28125 0.59375 0.28125 1.71875l0 7.3125l-1.453125 0l0 -7.0625q0 -0.921875 -0.109375 -1.328125q-0.109375 -0.421875 -0.640625 -0.421875q-0.4375 0 -0.875 0.28125q-0.4375 0.28125 -0.84375 0.90625l0 7.625l-1.46875 0l0 -7.0625q0 -0.921875 -0.109375 -1.328125q-0.109375 -0.421875 -0.640625 -0.421875q-0.46875 0 -0.890625 0.28125q-0.421875 0.28125 -0.828125 0.90625l0 7.625l-1.453125 0l0 -9.828125l1.234375 0l0.09375 1.140625q0.40625 -0.5625 0.90625 -0.953125q0.5 -0.390625 1.234375 -0.390625q0.5625 0 1.046875 0.265625q0.5 0.265625 0.734375 1.03125q0.390625 -0.578125 0.890625 -0.9375q0.515625 -0.359375 1.265625 -0.359375z" fill-rule="nonzero"/><path fill="#f3f3f3" d="m405.9239 356.31235l110.01575 0l0 28.818878l-110.01575 0z" fill-rule="evenodd"/><path stroke="#000000" stroke-width="1.0" stroke-linejoin="round" stroke-linecap="butt" d="m405.9239 356.31235l110.01575 0l0 28.818878l-110.01575 0z" fill-rule="evenodd"/><path fill="#000000" d="m424.1895 364.79803l0 1.296875l-2.84375 0l0 10.25l2.84375 0l0 1.296875l-7.34375 0l0 -1.296875l2.859375 0l0 -10.25l-2.859375 0l0 -1.296875l7.34375 0zm11.600006 12.34375q-0.5 0.34375 -1.21875 0.53125q-0.71875 0.1875 -1.40625 0.1875q-1.59375 0 -2.453125 -0.828125q-0.859375 -0.84375 -0.859375 -2.140625l0 -5.859375l-2.25 0l0 -1.21875l2.25 0l0 -2.21875l1.578125 -0.1875l0 2.40625l3.390625 0l-0.1875 1.21875l-3.203125 0l0 5.84375q0 0.8125 0.421875 1.25q0.4375 0.421875 1.453125 0.421875q0.546875 0 1.015625 -0.125q0.46875 -0.140625 0.859375 -0.34375l0.609375 1.0625zm4.631256 -3.859375q0.046875 1.140625 0.4375 1.875q0.390625 0.71875 1.03125 1.0625q0.640625 0.328125 1.40625 0.328125q0.75 0 1.359375 -0.21875q0.609375 -0.234375 1.25 -0.671875l0.75 1.046875q-0.703125 0.53125 -1.578125 0.84375q-0.875 0.3125 -1.8125 0.3125q-1.421875 0 -2.4375 -0.640625q-1.0 -0.65625 -1.53125 -1.796875q-0.515625 -1.15625 -0.515625 -2.671875q0 -1.5 0.53125 -2.65625q0.53125 -1.15625 1.484375 -1.8125q0.96875 -0.671875 2.265625 -0.671875q1.25 0 2.140625 0.59375q0.890625 0.578125 1.375 1.65625q0.484375 1.078125 0.484375 2.5625q0 0.25 -0.015625 0.46875q0 0.21875 -0.03125 0.390625l-6.59375 0zm2.671875 -4.375q-1.09375 0 -1.828125 0.78125q-0.734375 0.765625 -0.84375 2.390625l5.125 0q-0.03125 -1.578125 -0.6875 -2.375q-0.65625 -0.796875 -1.765625 -0.796875zm13.756256 -1.296875q0.484375 0 0.90625 0.203125q0.4375 0.203125 0.71875 0.796875q0.28125 0.59375 0.28125 1.71875l0 7.3125l-1.453125 0l0 -7.0625q0 -0.921875 -0.109375 -1.328125q-0.109375 -0.421875 -0.640625 -0.421875q-0.4375 0 -0.875 0.28125q-0.4375 0.28125 -0.84375 0.90625l0 7.625l-1.46875 0l0 -7.0625q0 -0.921875 -0.109375 -1.328125q-0.109375 -0.421875 -0.640625 -0.421875q-0.46875 0 -0.890625 0.28125q-0.421875 0.28125 -0.828125 0.90625l0 7.625l-1.453125 0l0 -9.828125l1.234375 0l0.09375 1.140625q0.40625 -0.5625 0.90625 -0.953125q0.5 -0.390625 1.234375 -0.390625q0.5625 0 1.046875 0.265625q0.5 0.265625 0.734375 1.03125q0.390625 -0.578125 0.890625 -0.9375q0.515625 -0.359375 1.265625 -0.359375z" fill-rule="nonzero"/><path fill="#f3f3f3" d="m644.98425 356.31235l110.01575 0l0 28.818878l-110.01575 0z" fill-rule="evenodd"/><path stroke="#000000" stroke-width="1.0" stroke-linejoin="round" stroke-linecap="butt" d="m644.98425 356.31235l110.01575 0l0 28.818878l-110.01575 0z" fill-rule="evenodd"/><path fill="#000000" d="m663.2499 364.79803l0 1.296875l-2.84375 0l0 10.25l2.84375 0l0 1.296875l-7.34375 0l0 -1.296875l2.859375 0l0 -10.25l-2.859375 0l0 -1.296875l7.34375 0zm11.599976 12.34375q-0.5 0.34375 -1.21875 0.53125q-0.71875 0.1875 -1.40625 0.1875q-1.59375 0 -2.453125 -0.828125q-0.859375 -0.84375 -0.859375 -2.140625l0 -5.859375l-2.25 0l0 -1.21875l2.25 0l0 -2.21875l1.578125 -0.1875l0 2.40625l3.390625 0l-0.1875 1.21875l-3.203125 0l0 5.84375q0 0.8125 0.421875 1.25q0.4375 0.421875 1.453125 0.421875q0.546875 0 1.015625 -0.125q0.46875 -0.140625 0.859375 -0.34375l0.609375 1.0625zm4.6312866 -3.859375q0.046875 1.140625 0.4375 1.875q0.390625 0.71875 1.03125 1.0625q0.640625 0.328125 1.40625 0.328125q0.75 0 1.359375 -0.21875q0.609375 -0.234375 1.25 -0.671875l0.75 1.046875q-0.703125 0.53125 -1.578125 0.84375q-0.875 0.3125 -1.8125 0.3125q-1.421875 0 -2.4375 -0.640625q-1.0 -0.65625 -1.53125 -1.796875q-0.515625 -1.15625 -0.515625 -2.671875q0 -1.5 0.53125 -2.65625q0.53125 -1.15625 1.484375 -1.8125q0.96875 -0.671875 2.265625 -0.671875q1.25 0 2.140625 0.59375q0.890625 0.578125 1.375 1.65625q0.484375 1.078125 0.484375 2.5625q0 0.25 -0.015625 0.46875q0 0.21875 -0.03125 0.390625l-6.59375 0zm2.671875 -4.375q-1.09375 0 -1.828125 0.78125q-0.734375 0.765625 -0.84375 2.390625l5.125 0q-0.03125 -1.578125 -0.6875 -2.375q-0.65625 -0.796875 -1.765625 -0.796875zm13.756226 -1.296875q0.484375 0 0.90625 0.203125q0.4375 0.203125 0.71875 0.796875q0.28125 0.59375 0.28125 1.71875l0 7.3125l-1.453125 0l0 -7.0625q0 -0.921875 -0.109375 -1.328125q-0.109375 -0.421875 -0.640625 -0.421875q-0.4375 0 -0.875 0.28125q-0.4375 0.28125 -0.84375 0.90625l0 7.625l-1.46875 0l0 -7.0625q0 -0.921875 -0.109375 -1.328125q-0.109375 -0.421875 -0.640625 -0.421875q-0.46875 0 -0.890625 0.28125q-0.421875 0.28125 -0.828125 0.90625l0 7.625l-1.453125 0l0 -9.828125l1.234375 0l0.09375 1.140625q0.40625 -0.5625 0.90625 -0.953125q0.5 -0.390625 1.234375 -0.390625q0.5625 0 1.046875 0.265625q0.5 0.265625 0.734375 1.03125q0.390625 -0.578125 0.890625 -0.9375q0.515625 -0.359375 1.265625 -0.359375z" fill-rule="nonzero"/><path fill="#f3f3f3" d="m525.45404 356.31235l110.01575 0l0 28.818878l-110.01575 0z" fill-rule="evenodd"/><path stroke="#000000" stroke-width="1.0" stroke-linejoin="round" stroke-linecap="butt" d="m525.45404 356.31235l110.01575 0l0 28.818878l-110.01575 0z" fill-rule="evenodd"/><path fill="#000000" d="m543.71967 364.79803l0 1.296875l-2.84375 0l0 10.25l2.84375 0l0 1.296875l-7.34375 0l0 -1.296875l2.859375 0l0 -10.25l-2.859375 0l0 -1.296875l7.34375 0zm11.600037 12.34375q-0.5 0.34375 -1.21875 0.53125q-0.71875 0.1875 -1.40625 0.1875q-1.59375 0 -2.453125 -0.828125q-0.859375 -0.84375 -0.859375 -2.140625l0 -5.859375l-2.25 0l0 -1.21875l2.25 0l0 -2.21875l1.578125 -0.1875l0 2.40625l3.390625 0l-0.1875 1.21875l-3.203125 0l0 5.84375q0 0.8125 0.421875 1.25q0.4375 0.421875 1.453125 0.421875q0.546875 0 1.015625 -0.125q0.46875 -0.140625 0.859375 -0.34375l0.609375 1.0625zm4.6312256 -3.859375q0.046875 1.140625 0.4375 1.875q0.390625 0.71875 1.03125 1.0625q0.640625 0.328125 1.40625 0.328125q0.75 0 1.359375 -0.21875q0.609375 -0.234375 1.25 -0.671875l0.75 1.046875q-0.703125 0.53125 -1.578125 0.84375q-0.875 0.3125 -1.8125 0.3125q-1.421875 0 -2.4375 -0.640625q-1.0 -0.65625 -1.53125 -1.796875q-0.515625 -1.15625 -0.515625 -2.671875q0 -1.5 0.53125 -2.65625q0.53125 -1.15625 1.484375 -1.8125q0.96875 -0.671875 2.265625 -0.671875q1.25 0 2.140625 0.59375q0.890625 0.578125 1.375 1.65625q0.484375 1.078125 0.484375 2.5625q0 0.25 -0.015625 0.46875q0 0.21875 -0.03125 0.390625l-6.59375 0zm2.671875 -4.375q-1.09375 0 -1.828125 0.78125q-0.734375 0.765625 -0.84375 2.390625l5.125 0q-0.03125 -1.578125 -0.6875 -2.375q-0.65625 -0.796875 -1.765625 -0.796875zm13.756287 -1.296875q0.484375 0 0.90625 0.203125q0.4375 0.203125 0.71875 0.796875q0.28125 0.59375 0.28125 1.71875l0 7.3125l-1.453125 0l0 -7.0625q0 -0.921875 -0.109375 -1.328125q-0.109375 -0.421875 -0.640625 -0.421875q-0.4375 0 -0.875 0.28125q-0.4375 0.28125 -0.84375 0.90625l0 7.625l-1.46875 0l0 -7.0625q0 -0.921875 -0.109375 -1.328125q-0.109375 -0.421875 -0.640625 -0.421875q-0.46875 0 -0.890625 0.28125q-0.421875 0.28125 -0.828125 0.90625l0 7.625l-1.453125 0l0 -9.828125l1.234375 0l0.09375 1.140625q0.40625 -0.5625 0.90625 -0.953125q0.5 -0.390625 1.234375 -0.390625q0.5625 0 1.046875 0.265625q0.5 0.265625 0.734375 1.03125q0.390625 -0.578125 0.890625 -0.9375q0.515625 -0.359375 1.265625 -0.359375z" fill-rule="nonzero"/><path fill="#f3f3f3" d="m405.9239 394.11023l110.01575 0l0 28.818909l-110.01575 0z" fill-rule="evenodd"/><path stroke="#000000" stroke-width="1.0" stroke-linejoin="round" stroke-linecap="butt" d="m405.9239 394.11023l110.01575 0l0 28.818909l-110.01575 0z" fill-rule="evenodd"/><path fill="#000000" d="m424.1895 402.59595l0 1.296875l-2.84375 0l0 10.25l2.84375 0l0 1.296875l-7.34375 0l0 -1.296875l2.859375 0l0 -10.25l-2.859375 0l0 -1.296875l7.34375 0zm11.600006 12.34375q-0.5 0.34375 -1.21875 0.53125q-0.71875 0.1875 -1.40625 0.1875q-1.59375 0 -2.453125 -0.828125q-0.859375 -0.84375 -0.859375 -2.140625l0 -5.859375l-2.25 0l0 -1.21875l2.25 0l0 -2.21875l1.578125 -0.1875l0 2.40625l3.390625 0l-0.1875 1.21875l-3.203125 0l0 5.84375q0 0.8125 0.421875 1.25q0.4375 0.421875 1.453125 0.421875q0.546875 0 1.015625 -0.125q0.46875 -0.140625 0.859375 -0.34375l0.609375 1.0625zm4.631256 -3.859375q0.046875 1.140625 0.4375 1.875q0.390625 0.71875 1.03125 1.0625q0.640625 0.328125 1.40625 0.328125q0.75 0 1.359375 -0.21875q0.609375 -0.234375 1.25 -0.671875l0.75 1.046875q-0.703125 0.53125 -1.578125 0.84375q-0.875 0.3125 -1.8125 0.3125q-1.421875 0 -2.4375 -0.640625q-1.0 -0.65625 -1.53125 -1.796875q-0.515625 -1.15625 -0.515625 -2.671875q0 -1.5 0.53125 -2.65625q0.53125 -1.15625 1.484375 -1.8125q0.96875 -0.671875 2.265625 -0.671875q1.25 0 2.140625 0.59375q0.890625 0.578125 1.375 1.65625q0.484375 1.078125 0.484375 2.5625q0 0.25 -0.015625 0.46875q0 0.21875 -0.03125 0.390625l-6.59375 0zm2.671875 -4.375q-1.09375 0 -1.828125 0.78125q-0.734375 0.765625 -0.84375 2.390625l5.125 0q-0.03125 -1.578125 -0.6875 -2.375q-0.65625 -0.796875 -1.765625 -0.796875zm13.756256 -1.296875q0.484375 0 0.90625 0.203125q0.4375 0.203125 0.71875 0.796875q0.28125 0.59375 0.28125 1.71875l0 7.3125l-1.453125 0l0 -7.0625q0 -0.921875 -0.109375 -1.328125q-0.109375 -0.421875 -0.640625 -0.421875q-0.4375 0 -0.875 0.28125q-0.4375 0.28125 -0.84375 0.90625l0 7.625l-1.46875 0l0 -7.0625q0 -0.921875 -0.109375 -1.328125q-0.109375 -0.421875 -0.640625 -0.421875q-0.46875 0 -0.890625 0.28125q-0.421875 0.28125 -0.828125 0.90625l0 7.625l-1.453125 0l0 -9.828125l1.234375 0l0.09375 1.140625q0.40625 -0.5625 0.90625 -0.953125q0.5 -0.390625 1.234375 -0.390625q0.5625 0 1.046875 0.265625q0.5 0.265625 0.734375 1.03125q0.390625 -0.578125 0.890625 -0.9375q0.515625 -0.359375 1.265625 -0.359375z" fill-rule="nonzero"/><path fill="#f3f3f3" d="m644.98425 394.11023l110.01575 0l0 28.818909l-110.01575 0z" fill-rule="evenodd"/><path stroke="#000000" stroke-width="1.0" stroke-linejoin="round" stroke-linecap="butt" d="m644.98425 394.11023l110.01575 0l0 28.818909l-110.01575 0z" fill-rule="evenodd"/><path fill="#000000" d="m663.2499 402.59595l0 1.296875l-2.84375 0l0 10.25l2.84375 0l0 1.296875l-7.34375 0l0 -1.296875l2.859375 0l0 -10.25l-2.859375 0l0 -1.296875l7.34375 0zm11.599976 12.34375q-0.5 0.34375 -1.21875 0.53125q-0.71875 0.1875 -1.40625 0.1875q-1.59375 0 -2.453125 -0.828125q-0.859375 -0.84375 -0.859375 -2.140625l0 -5.859375l-2.25 0l0 -1.21875l2.25 0l0 -2.21875l1.578125 -0.1875l0 2.40625l3.390625 0l-0.1875 1.21875l-3.203125 0l0 5.84375q0 0.8125 0.421875 1.25q0.4375 0.421875 1.453125 0.421875q0.546875 0 1.015625 -0.125q0.46875 -0.140625 0.859375 -0.34375l0.609375 1.0625zm4.6312866 -3.859375q0.046875 1.140625 0.4375 1.875q0.390625 0.71875 1.03125 1.0625q0.640625 0.328125 1.40625 0.328125q0.75 0 1.359375 -0.21875q0.609375 -0.234375 1.25 -0.671875l0.75 1.046875q-0.703125 0.53125 -1.578125 0.84375q-0.875 0.3125 -1.8125 0.3125q-1.421875 0 -2.4375 -0.640625q-1.0 -0.65625 -1.53125 -1.796875q-0.515625 -1.15625 -0.515625 -2.671875q0 -1.5 0.53125 -2.65625q0.53125 -1.15625 1.484375 -1.8125q0.96875 -0.671875 2.265625 -0.671875q1.25 0 2.140625 0.59375q0.890625 0.578125 1.375 1.65625q0.484375 1.078125 0.484375 2.5625q0 0.25 -0.015625 0.46875q0 0.21875 -0.03125 0.390625l-6.59375 0zm2.671875 -4.375q-1.09375 0 -1.828125 0.78125q-0.734375 0.765625 -0.84375 2.390625l5.125 0q-0.03125 -1.578125 -0.6875 -2.375q-0.65625 -0.796875 -1.765625 -0.796875zm13.756226 -1.296875q0.484375 0 0.90625 0.203125q0.4375 0.203125 0.71875 0.796875q0.28125 0.59375 0.28125 1.71875l0 7.3125l-1.453125 0l0 -7.0625q0 -0.921875 -0.109375 -1.328125q-0.109375 -0.421875 -0.640625 -0.421875q-0.4375 0 -0.875 0.28125q-0.4375 0.28125 -0.84375 0.90625l0 7.625l-1.46875 0l0 -7.0625q0 -0.921875 -0.109375 -1.328125q-0.109375 -0.421875 -0.640625 -0.421875q-0.46875 0 -0.890625 0.28125q-0.421875 0.28125 -0.828125 0.90625l0 7.625l-1.453125 0l0 -9.828125l1.234375 0l0.09375 1.140625q0.40625 -0.5625 0.90625 -0.953125q0.5 -0.390625 1.234375 -0.390625q0.5625 0 1.046875 0.265625q0.5 0.265625 0.734375 1.03125q0.390625 -0.578125 0.890625 -0.9375q0.515625 -0.359375 1.265625 -0.359375z" fill-rule="nonzero"/><path fill="#f3f3f3" d="m525.45404 394.11023l110.01575 0l0 28.818909l-110.01575 0z" fill-rule="evenodd"/><path stroke="#000000" stroke-width="1.0" stroke-linejoin="round" stroke-linecap="butt" d="m525.45404 394.11023l110.01575 0l0 28.818909l-110.01575 0z" fill-rule="evenodd"/><path fill="#000000" d="m543.71967 402.59595l0 1.296875l-2.84375 0l0 10.25l2.84375 0l0 1.296875l-7.34375 0l0 -1.296875l2.859375 0l0 -10.25l-2.859375 0l0 -1.296875l7.34375 0zm11.600037 12.34375q-0.5 0.34375 -1.21875 0.53125q-0.71875 0.1875 -1.40625 0.1875q-1.59375 0 -2.453125 -0.828125q-0.859375 -0.84375 -0.859375 -2.140625l0 -5.859375l-2.25 0l0 -1.21875l2.25 0l0 -2.21875l1.578125 -0.1875l0 2.40625l3.390625 0l-0.1875 1.21875l-3.203125 0l0 5.84375q0 0.8125 0.421875 1.25q0.4375 0.421875 1.453125 0.421875q0.546875 0 1.015625 -0.125q0.46875 -0.140625 0.859375 -0.34375l0.609375 1.0625zm4.6312256 -3.859375q0.046875 1.140625 0.4375 1.875q0.390625 0.71875 1.03125 1.0625q0.640625 0.328125 1.40625 0.328125q0.75 0 1.359375 -0.21875q0.609375 -0.234375 1.25 -0.671875l0.75 1.046875q-0.703125 0.53125 -1.578125 0.84375q-0.875 0.3125 -1.8125 0.3125q-1.421875 0 -2.4375 -0.640625q-1.0 -0.65625 -1.53125 -1.796875q-0.515625 -1.15625 -0.515625 -2.671875q0 -1.5 0.53125 -2.65625q0.53125 -1.15625 1.484375 -1.8125q0.96875 -0.671875 2.265625 -0.671875q1.25 0 2.140625 0.59375q0.890625 0.578125 1.375 1.65625q0.484375 1.078125 0.484375 2.5625q0 0.25 -0.015625 0.46875q0 0.21875 -0.03125 0.390625l-6.59375 0zm2.671875 -4.375q-1.09375 0 -1.828125 0.78125q-0.734375 0.765625 -0.84375 2.390625l5.125 0q-0.03125 -1.578125 -0.6875 -2.375q-0.65625 -0.796875 -1.765625 -0.796875zm13.756287 -1.296875q0.484375 0 0.90625 0.203125q0.4375 0.203125 0.71875 0.796875q0.28125 0.59375 0.28125 1.71875l0 7.3125l-1.453125 0l0 -7.0625q0 -0.921875 -0.109375 -1.328125q-0.109375 -0.421875 -0.640625 -0.421875q-0.4375 0 -0.875 0.28125q-0.4375 0.28125 -0.84375 0.90625l0 7.625l-1.46875 0l0 -7.0625q0 -0.921875 -0.109375 -1.328125q-0.109375 -0.421875 -0.640625 -0.421875q-0.46875 0 -0.890625 0.28125q-0.421875 0.28125 -0.828125 0.90625l0 7.625l-1.453125 0l0 -9.828125l1.234375 0l0.09375 1.140625q0.40625 -0.5625 0.90625 -0.953125q0.5 -0.390625 1.234375 -0.390625q0.5625 0 1.046875 0.265625q0.5 0.265625 0.734375 1.03125q0.390625 -0.578125 0.890625 -0.9375q0.515625 -0.359375 1.265625 -0.359375z" fill-rule="nonzero"/><path fill="#f3f3f3" d="m405.9239 431.90814l110.01575 0l0 28.818878l-110.01575 0z" fill-rule="evenodd"/><path stroke="#000000" stroke-width="1.0" stroke-linejoin="round" stroke-linecap="butt" d="m405.9239 431.90814l110.01575 0l0 28.818878l-110.01575 0z" fill-rule="evenodd"/><path fill="#000000" d="m424.1895 440.39383l0 1.296875l-2.84375 0l0 10.25l2.84375 0l0 1.296875l-7.34375 0l0 -1.296875l2.859375 0l0 -10.25l-2.859375 0l0 -1.296875l7.34375 0zm11.600006 12.34375q-0.5 0.34375 -1.21875 0.53125q-0.71875 0.1875 -1.40625 0.1875q-1.59375 0 -2.453125 -0.828125q-0.859375 -0.84375 -0.859375 -2.140625l0 -5.859375l-2.25 0l0 -1.21875l2.25 0l0 -2.21875l1.578125 -0.1875l0 2.40625l3.390625 0l-0.1875 1.21875l-3.203125 0l0 5.84375q0 0.8125 0.421875 1.25q0.4375 0.421875 1.453125 0.421875q0.546875 0 1.015625 -0.125q0.46875 -0.140625 0.859375 -0.34375l0.609375 1.0625zm4.631256 -3.859375q0.046875 1.140625 0.4375 1.875q0.390625 0.71875 1.03125 1.0625q0.640625 0.328125 1.40625 0.328125q0.75 0 1.359375 -0.21875q0.609375 -0.234375 1.25 -0.671875l0.75 1.046875q-0.703125 0.53125 -1.578125 0.84375q-0.875 0.3125 -1.8125 0.3125q-1.421875 0 -2.4375 -0.640625q-1.0 -0.65625 -1.53125 -1.796875q-0.515625 -1.15625 -0.515625 -2.671875q0 -1.5 0.53125 -2.65625q0.53125 -1.15625 1.484375 -1.8125q0.96875 -0.671875 2.265625 -0.671875q1.25 0 2.140625 0.59375q0.890625 0.578125 1.375 1.65625q0.484375 1.078125 0.484375 2.5625q0 0.25 -0.015625 0.46875q0 0.21875 -0.03125 0.390625l-6.59375 0zm2.671875 -4.375q-1.09375 0 -1.828125 0.78125q-0.734375 0.765625 -0.84375 2.390625l5.125 0q-0.03125 -1.578125 -0.6875 -2.375q-0.65625 -0.796875 -1.765625 -0.796875zm13.756256 -1.296875q0.484375 0 0.90625 0.203125q0.4375 0.203125 0.71875 0.796875q0.28125 0.59375 0.28125 1.71875l0 7.3125l-1.453125 0l0 -7.0625q0 -0.921875 -0.109375 -1.328125q-0.109375 -0.421875 -0.640625 -0.421875q-0.4375 0 -0.875 0.28125q-0.4375 0.28125 -0.84375 0.90625l0 7.625l-1.46875 0l0 -7.0625q0 -0.921875 -0.109375 -1.328125q-0.109375 -0.421875 -0.640625 -0.421875q-0.46875 0 -0.890625 0.28125q-0.421875 0.28125 -0.828125 0.90625l0 7.625l-1.453125 0l0 -9.828125l1.234375 0l0.09375 1.140625q0.40625 -0.5625 0.90625 -0.953125q0.5 -0.390625 1.234375 -0.390625q0.5625 0 1.046875 0.265625q0.5 0.265625 0.734375 1.03125q0.390625 -0.578125 0.890625 -0.9375q0.515625 -0.359375 1.265625 -0.359375z" fill-rule="nonzero"/><path fill="#f3f3f3" d="m644.98425 431.90814l110.01575 0l0 28.818878l-110.01575 0z" fill-rule="evenodd"/><path stroke="#000000" stroke-width="1.0" stroke-linejoin="round" stroke-linecap="butt" d="m644.98425 431.90814l110.01575 0l0 28.818878l-110.01575 0z" fill-rule="evenodd"/><path fill="#000000" d="m663.2499 440.39383l0 1.296875l-2.84375 0l0 10.25l2.84375 0l0 1.296875l-7.34375 0l0 -1.296875l2.859375 0l0 -10.25l-2.859375 0l0 -1.296875l7.34375 0zm11.599976 12.34375q-0.5 0.34375 -1.21875 0.53125q-0.71875 0.1875 -1.40625 0.1875q-1.59375 0 -2.453125 -0.828125q-0.859375 -0.84375 -0.859375 -2.140625l0 -5.859375l-2.25 0l0 -1.21875l2.25 0l0 -2.21875l1.578125 -0.1875l0 2.40625l3.390625 0l-0.1875 1.21875l-3.203125 0l0 5.84375q0 0.8125 0.421875 1.25q0.4375 0.421875 1.453125 0.421875q0.546875 0 1.015625 -0.125q0.46875 -0.140625 0.859375 -0.34375l0.609375 1.0625zm4.6312866 -3.859375q0.046875 1.140625 0.4375 1.875q0.390625 0.71875 1.03125 1.0625q0.640625 0.328125 1.40625 0.328125q0.75 0 1.359375 -0.21875q0.609375 -0.234375 1.25 -0.671875l0.75 1.046875q-0.703125 0.53125 -1.578125 0.84375q-0.875 0.3125 -1.8125 0.3125q-1.421875 0 -2.4375 -0.640625q-1.0 -0.65625 -1.53125 -1.796875q-0.515625 -1.15625 -0.515625 -2.671875q0 -1.5 0.53125 -2.65625q0.53125 -1.15625 1.484375 -1.8125q0.96875 -0.671875 2.265625 -0.671875q1.25 0 2.140625 0.59375q0.890625 0.578125 1.375 1.65625q0.484375 1.078125 0.484375 2.5625q0 0.25 -0.015625 0.46875q0 0.21875 -0.03125 0.390625l-6.59375 0zm2.671875 -4.375q-1.09375 0 -1.828125 0.78125q-0.734375 0.765625 -0.84375 2.390625l5.125 0q-0.03125 -1.578125 -0.6875 -2.375q-0.65625 -0.796875 -1.765625 -0.796875zm13.756226 -1.296875q0.484375 0 0.90625 0.203125q0.4375 0.203125 0.71875 0.796875q0.28125 0.59375 0.28125 1.71875l0 7.3125l-1.453125 0l0 -7.0625q0 -0.921875 -0.109375 -1.328125q-0.109375 -0.421875 -0.640625 -0.421875q-0.4375 0 -0.875 0.28125q-0.4375 0.28125 -0.84375 0.90625l0 7.625l-1.46875 0l0 -7.0625q0 -0.921875 -0.109375 -1.328125q-0.109375 -0.421875 -0.640625 -0.421875q-0.46875 0 -0.890625 0.28125q-0.421875 0.28125 -0.828125 0.90625l0 7.625l-1.453125 0l0 -9.828125l1.234375 0l0.09375 1.140625q0.40625 -0.5625 0.90625 -0.953125q0.5 -0.390625 1.234375 -0.390625q0.5625 0 1.046875 0.265625q0.5 0.265625 0.734375 1.03125q0.390625 -0.578125 0.890625 -0.9375q0.515625 -0.359375 1.265625 -0.359375z" fill-rule="nonzero"/><path fill="#f3f3f3" d="m525.45404 431.90814l110.01575 0l0 28.818878l-110.01575 0z" fill-rule="evenodd"/><path stroke="#000000" stroke-width="1.0" stroke-linejoin="round" stroke-linecap="butt" d="m525.45404 431.90814l110.01575 0l0 28.818878l-110.01575 0z" fill-rule="evenodd"/><path fill="#000000" d="m543.71967 440.39383l0 1.296875l-2.84375 0l0 10.25l2.84375 0l0 1.296875l-7.34375 0l0 -1.296875l2.859375 0l0 -10.25l-2.859375 0l0 -1.296875l7.34375 0zm11.600037 12.34375q-0.5 0.34375 -1.21875 0.53125q-0.71875 0.1875 -1.40625 0.1875q-1.59375 0 -2.453125 -0.828125q-0.859375 -0.84375 -0.859375 -2.140625l0 -5.859375l-2.25 0l0 -1.21875l2.25 0l0 -2.21875l1.578125 -0.1875l0 2.40625l3.390625 0l-0.1875 1.21875l-3.203125 0l0 5.84375q0 0.8125 0.421875 1.25q0.4375 0.421875 1.453125 0.421875q0.546875 0 1.015625 -0.125q0.46875 -0.140625 0.859375 -0.34375l0.609375 1.0625zm4.6312256 -3.859375q0.046875 1.140625 0.4375 1.875q0.390625 0.71875 1.03125 1.0625q0.640625 0.328125 1.40625 0.328125q0.75 0 1.359375 -0.21875q0.609375 -0.234375 1.25 -0.671875l0.75 1.046875q-0.703125 0.53125 -1.578125 0.84375q-0.875 0.3125 -1.8125 0.3125q-1.421875 0 -2.4375 -0.640625q-1.0 -0.65625 -1.53125 -1.796875q-0.515625 -1.15625 -0.515625 -2.671875q0 -1.5 0.53125 -2.65625q0.53125 -1.15625 1.484375 -1.8125q0.96875 -0.671875 2.265625 -0.671875q1.25 0 2.140625 0.59375q0.890625 0.578125 1.375 1.65625q0.484375 1.078125 0.484375 2.5625q0 0.25 -0.015625 0.46875q0 0.21875 -0.03125 0.390625l-6.59375 0zm2.671875 -4.375q-1.09375 0 -1.828125 0.78125q-0.734375 0.765625 -0.84375 2.390625l5.125 0q-0.03125 -1.578125 -0.6875 -2.375q-0.65625 -0.796875 -1.765625 -0.796875zm13.756287 -1.296875q0.484375 0 0.90625 0.203125q0.4375 0.203125 0.71875 0.796875q0.28125 0.59375 0.28125 1.71875l0 7.3125l-1.453125 0l0 -7.0625q0 -0.921875 -0.109375 -1.328125q-0.109375 -0.421875 -0.640625 -0.421875q-0.4375 0 -0.875 0.28125q-0.4375 0.28125 -0.84375 0.90625l0 7.625l-1.46875 0l0 -7.0625q0 -0.921875 -0.109375 -1.328125q-0.109375 -0.421875 -0.640625 -0.421875q-0.46875 0 -0.890625 0.28125q-0.421875 0.28125 -0.828125 0.90625l0 7.625l-1.453125 0l0 -9.828125l1.234375 0l0.09375 1.140625q0.40625 -0.5625 0.90625 -0.953125q0.5 -0.390625 1.234375 -0.390625q0.5625 0 1.046875 0.265625q0.5 0.265625 0.734375 1.03125q0.390625 -0.578125 0.890625 -0.9375q0.515625 -0.359375 1.265625 -0.359375z" fill-rule="nonzero"/><path fill="#000000" fill-opacity="0.0" d="m180.81364 183.31496l187.02364 0l0 31.84253l-187.02364 0z" fill-rule="evenodd"/><path fill="#000000" d="m205.13544 204.15808l0 -1.265625l6.953125 0l0 1.265625l-6.953125 0z" fill-rule="nonzero"/><path fill="#000000" d="m244.6574 208.95496l-4.203125 -10.5q0.015625 0.203125 0.046875 0.671875q0.03125 0.46875 0.0625 1.109375q0.046875 0.625 0.0625 1.34375q0.03125 0.703125 0.03125 1.390625l0 5.984375l-1.390625 0l0 -11.9375l2.03125 0l4.265625 10.546875q0 -0.25 -0.0625 -0.921875q-0.046875 -0.671875 -0.09375 -1.625q-0.03125 -0.953125 -0.03125 -2.015625l0 -5.984375l1.390625 0l0 11.9375l-2.109375 0zm11.834457 -2.0q0 0.546875 0.171875 0.8125q0.1875 0.25 0.5625 0.359375l-0.34375 1.03125q-0.59375 -0.078125 -1.046875 -0.375q-0.4375 -0.296875 -0.640625 -0.90625q-0.484375 0.625 -1.21875 0.953125q-0.734375 0.328125 -1.640625 0.328125q-1.359375 0 -2.15625 -0.765625q-0.78125 -0.78125 -0.78125 -2.046875q0 -1.421875 1.09375 -2.171875q1.109375 -0.75 3.1875 -0.75l1.34375 0l0 -0.765625q0 -0.984375 -0.578125 -1.390625q-0.578125 -0.421875 -1.59375 -0.421875q-0.453125 0 -1.0625 0.109375q-0.609375 0.109375 -1.3125 0.359375l-0.390625 -1.09375q0.84375 -0.3125 1.578125 -0.4375q0.734375 -0.140625 1.40625 -0.140625q1.703125 0 2.5625 0.796875q0.859375 0.78125 0.859375 2.140625l0 4.375zm-3.78125 1.09375q0.6875 0 1.296875 -0.34375q0.609375 -0.34375 1.015625 -0.953125l0 -2.34375l-1.3125 0q-1.515625 0 -2.140625 0.515625q-0.609375 0.515625 -0.609375 1.390625q0 0.859375 0.4375 1.296875q0.4375 0.4375 1.3125 0.4375zm15.240723 -8.21875l-3.3125 9.125l-1.6875 0l-3.296875 -9.125l1.546875 0l2.640625 7.796875l2.609375 -7.796875l1.5 0zm20.05954 -2.8125l0 1.21875l-2.65625 0l0 9.515625l2.65625 0l0 1.203125l-6.828125 0l0 -1.203125l2.65625 0l0 -9.515625l-2.65625 0l0 -1.21875l6.828125 0zm10.771942 11.484375q-0.46875 0.3125 -1.140625 0.484375q-0.65625 0.171875 -1.296875 0.171875q-1.484375 0 -2.28125 -0.765625q-0.796875 -0.78125 -0.796875 -2.0l0 -5.4375l-2.09375 0l0 -1.125l2.09375 0l0 -2.0625l1.46875 -0.1875l0 2.25l3.140625 0l-0.171875 1.125l-2.96875 0l0 5.421875q0 0.765625 0.390625 1.171875q0.40625 0.390625 1.34375 0.390625q0.515625 0 0.9375 -0.109375q0.4375 -0.125 0.8125 -0.328125l0.5625 1.0zm4.3032227 -3.59375q0.03125 1.0625 0.390625 1.734375q0.375 0.671875 0.96875 0.984375q0.609375 0.3125 1.296875 0.3125q0.703125 0 1.265625 -0.203125q0.578125 -0.203125 1.171875 -0.625l0.6875 0.96875q-0.640625 0.5 -1.46875 0.796875q-0.8125 0.28125 -1.671875 0.28125q-1.328125 0 -2.265625 -0.59375q-0.921875 -0.609375 -1.421875 -1.671875q-0.484375 -1.078125 -0.484375 -2.484375q0 -1.390625 0.484375 -2.453125q0.5 -1.078125 1.390625 -1.6875q0.890625 -0.625 2.109375 -0.625q1.15625 0 1.984375 0.546875q0.828125 0.53125 1.265625 1.53125q0.453125 1.0 0.453125 2.390625q0 0.234375 -0.015625 0.4375q0 0.203125 -0.015625 0.359375l-6.125 0zm2.46875 -4.078125q-1.015625 0 -1.703125 0.71875q-0.671875 0.71875 -0.765625 2.234375l4.765625 0q-0.03125 -1.46875 -0.65625 -2.203125q-0.609375 -0.75 -1.640625 -0.75zm12.787567 -1.1875q0.453125 0 0.84375 0.1875q0.40625 0.1875 0.65625 0.734375q0.265625 0.546875 0.265625 1.59375l0 6.796875l-1.34375 0l0 -6.5625q0 -0.859375 -0.109375 -1.234375q-0.09375 -0.375 -0.59375 -0.375q-0.40625 0 -0.8125 0.25q-0.40625 0.25 -0.78125 0.828125l0 7.09375l-1.359375 0l0 -6.5625q0 -0.859375 -0.109375 -1.234375q-0.09375 -0.375 -0.59375 -0.375q-0.421875 0 -0.828125 0.25q-0.390625 0.25 -0.765625 0.828125l0 7.09375l-1.34375 0l0 -9.125l1.140625 0l0.09375 1.0625q0.375 -0.53125 0.828125 -0.890625q0.46875 -0.359375 1.15625 -0.359375q0.515625 0 0.96875 0.25q0.46875 0.25 0.6875 0.953125q0.359375 -0.53125 0.828125 -0.859375q0.46875 -0.34375 1.171875 -0.34375z" fill-rule="nonzero"/><path fill="#000000" d="m205.13544 225.15808l0 -1.265625l6.953125 0l0 1.265625l-6.953125 0z" fill-rule="nonzero"/><path fill="#000000" d="m244.6574 229.95496l-4.203125 -10.5q0.015625 0.203125 0.046875 0.671875q0.03125 0.46875 0.0625 1.109375q0.046875 0.625 0.0625 1.34375q0.03125 0.703125 0.03125 1.390625l0 5.984375l-1.390625 0l0 -11.9375l2.03125 0l4.265625 10.546875q0 -0.25 -0.0625 -0.921875q-0.046875 -0.671875 -0.09375 -1.625q-0.03125 -0.953125 -0.03125 -2.015625l0 -5.984375l1.390625 0l0 11.9375l-2.109375 0zm11.834457 -2.0q0 0.546875 0.171875 0.8125q0.1875 0.25 0.5625 0.359375l-0.34375 1.03125q-0.59375 -0.078125 -1.046875 -0.375q-0.4375 -0.296875 -0.640625 -0.90625q-0.484375 0.625 -1.21875 0.953125q-0.734375 0.328125 -1.640625 0.328125q-1.359375 0 -2.15625 -0.765625q-0.78125 -0.78125 -0.78125 -2.046875q0 -1.421875 1.09375 -2.171875q1.109375 -0.75 3.1875 -0.75l1.34375 0l0 -0.765625q0 -0.984375 -0.578125 -1.390625q-0.578125 -0.421875 -1.59375 -0.421875q-0.453125 0 -1.0625 0.109375q-0.609375 0.109375 -1.3125 0.359375l-0.390625 -1.09375q0.84375 -0.3125 1.578125 -0.4375q0.734375 -0.140625 1.40625 -0.140625q1.703125 0 2.5625 0.796875q0.859375 0.78125 0.859375 2.140625l0 4.375zm-3.78125 1.09375q0.6875 0 1.296875 -0.34375q0.609375 -0.34375 1.015625 -0.953125l0 -2.34375l-1.3125 0q-1.515625 0 -2.140625 0.515625q-0.609375 0.515625 -0.609375 1.390625q0 0.859375 0.4375 1.296875q0.4375 0.4375 1.3125 0.4375zm15.240723 -8.21875l-3.3125 9.125l-1.6875 0l-3.296875 -9.125l1.546875 0l2.640625 7.796875l2.609375 -7.796875l1.5 0zm20.05954 -2.8125l0 1.21875l-2.65625 0l0 9.515625l2.65625 0l0 1.203125l-6.828125 0l0 -1.203125l2.65625 0l0 -9.515625l-2.65625 0l0 -1.21875l6.828125 0zm10.771942 11.484375q-0.46875 0.3125 -1.140625 0.484375q-0.65625 0.171875 -1.296875 0.171875q-1.484375 0 -2.28125 -0.765625q-0.796875 -0.78125 -0.796875 -2.0l0 -5.4375l-2.09375 0l0 -1.125l2.09375 0l0 -2.0625l1.46875 -0.1875l0 2.25l3.140625 0l-0.171875 1.125l-2.96875 0l0 5.421875q0 0.765625 0.390625 1.171875q0.40625 0.390625 1.34375 0.390625q0.515625 0 0.9375 -0.109375q0.4375 -0.125 0.8125 -0.328125l0.5625 1.0zm4.3032227 -3.59375q0.03125 1.0625 0.390625 1.734375q0.375 0.671875 0.96875 0.984375q0.609375 0.3125 1.296875 0.3125q0.703125 0 1.265625 -0.203125q0.578125 -0.203125 1.171875 -0.625l0.6875 0.96875q-0.640625 0.5 -1.46875 0.796875q-0.8125 0.28125 -1.671875 0.28125q-1.328125 0 -2.265625 -0.59375q-0.921875 -0.609375 -1.421875 -1.671875q-0.484375 -1.078125 -0.484375 -2.484375q0 -1.390625 0.484375 -2.453125q0.5 -1.078125 1.390625 -1.6875q0.890625 -0.625 2.109375 -0.625q1.15625 0 1.984375 0.546875q0.828125 0.53125 1.265625 1.53125q0.453125 1.0 0.453125 2.390625q0 0.234375 -0.015625 0.4375q0 0.203125 -0.015625 0.359375l-6.125 0zm2.46875 -4.078125q-1.015625 0 -1.703125 0.71875q-0.671875 0.71875 -0.765625 2.234375l4.765625 0q-0.03125 -1.46875 -0.65625 -2.203125q-0.609375 -0.75 -1.640625 -0.75zm12.787567 -1.1875q0.453125 0 0.84375 0.1875q0.40625 0.1875 0.65625 0.734375q0.265625 0.546875 0.265625 1.59375l0 6.796875l-1.34375 0l0 -6.5625q0 -0.859375 -0.109375 -1.234375q-0.09375 -0.375 -0.59375 -0.375q-0.40625 0 -0.8125 0.25q-0.40625 0.25 -0.78125 0.828125l0 7.09375l-1.359375 0l0 -6.5625q0 -0.859375 -0.109375 -1.234375q-0.09375 -0.375 -0.59375 -0.375q-0.421875 0 -0.828125 0.25q-0.390625 0.25 -0.765625 0.828125l0 7.09375l-1.34375 0l0 -9.125l1.140625 0l0.09375 1.0625q0.375 -0.53125 0.828125 -0.890625q0.46875 -0.359375 1.15625 -0.359375q0.515625 0 0.96875 0.25q0.46875 0.25 0.6875 0.953125q0.359375 -0.53125 0.828125 -0.859375q0.46875 -0.34375 1.171875 -0.34375z" fill-rule="nonzero"/><path fill="#000000" d="m205.13544 246.15808l0 -1.265625l6.953125 0l0 1.265625l-6.953125 0z" fill-rule="nonzero"/><path fill="#000000" d="m244.6574 250.95496l-4.203125 -10.5q0.015625 0.203125 0.046875 0.671875q0.03125 0.46875 0.0625 1.109375q0.046875 0.625 0.0625 1.34375q0.03125 0.703125 0.03125 1.390625l0 5.984375l-1.390625 0l0 -11.9375l2.03125 0l4.265625 10.546875q0 -0.25 -0.0625 -0.921875q-0.046875 -0.671875 -0.09375 -1.625q-0.03125 -0.953125 -0.03125 -2.015625l0 -5.984375l1.390625 0l0 11.9375l-2.109375 0zm11.834457 -2.0q0 0.546875 0.171875 0.8125q0.1875 0.25 0.5625 0.359375l-0.34375 1.03125q-0.59375 -0.078125 -1.046875 -0.375q-0.4375 -0.296875 -0.640625 -0.90625q-0.484375 0.625 -1.21875 0.953125q-0.734375 0.328125 -1.640625 0.328125q-1.359375 0 -2.15625 -0.765625q-0.78125 -0.78125 -0.78125 -2.046875q0 -1.421875 1.09375 -2.171875q1.109375 -0.75 3.1875 -0.75l1.34375 0l0 -0.765625q0 -0.984375 -0.578125 -1.390625q-0.578125 -0.421875 -1.59375 -0.421875q-0.453125 0 -1.0625 0.109375q-0.609375 0.109375 -1.3125 0.359375l-0.390625 -1.09375q0.84375 -0.3125 1.578125 -0.4375q0.734375 -0.140625 1.40625 -0.140625q1.703125 0 2.5625 0.796875q0.859375 0.78125 0.859375 2.140625l0 4.375zm-3.78125 1.09375q0.6875 0 1.296875 -0.34375q0.609375 -0.34375 1.015625 -0.953125l0 -2.34375l-1.3125 0q-1.515625 0 -2.140625 0.515625q-0.609375 0.515625 -0.609375 1.390625q0 0.859375 0.4375 1.296875q0.4375 0.4375 1.3125 0.4375zm15.240723 -8.21875l-3.3125 9.125l-1.6875 0l-3.296875 -9.125l1.546875 0l2.640625 7.796875l2.609375 -7.796875l1.5 0zm20.05954 -2.8125l0 1.21875l-2.65625 0l0 9.515625l2.65625 0l0 1.203125l-6.828125 0l0 -1.203125l2.65625 0l0 -9.515625l-2.65625 0l0 -1.21875l6.828125 0zm10.771942 11.484375q-0.46875 0.3125 -1.140625 0.484375q-0.65625 0.171875 -1.296875 0.171875q-1.484375 0 -2.28125 -0.765625q-0.796875 -0.78125 -0.796875 -2.0l0 -5.4375l-2.09375 0l0 -1.125l2.09375 0l0 -2.0625l1.46875 -0.1875l0 2.25l3.140625 0l-0.171875 1.125l-2.96875 0l0 5.421875q0 0.765625 0.390625 1.171875q0.40625 0.390625 1.34375 0.390625q0.515625 0 0.9375 -0.109375q0.4375 -0.125 0.8125 -0.328125l0.5625 1.0zm4.3032227 -3.59375q0.03125 1.0625 0.390625 1.734375q0.375 0.671875 0.96875 0.984375q0.609375 0.3125 1.296875 0.3125q0.703125 0 1.265625 -0.203125q0.578125 -0.203125 1.171875 -0.625l0.6875 0.96875q-0.640625 0.5 -1.46875 0.796875q-0.8125 0.28125 -1.671875 0.28125q-1.328125 0 -2.265625 -0.59375q-0.921875 -0.609375 -1.421875 -1.671875q-0.484375 -1.078125 -0.484375 -2.484375q0 -1.390625 0.484375 -2.453125q0.5 -1.078125 1.390625 -1.6875q0.890625 -0.625 2.109375 -0.625q1.15625 0 1.984375 0.546875q0.828125 0.53125 1.265625 1.53125q0.453125 1.0 0.453125 2.390625q0 0.234375 -0.015625 0.4375q0 0.203125 -0.015625 0.359375l-6.125 0zm2.46875 -4.078125q-1.015625 0 -1.703125 0.71875q-0.671875 0.71875 -0.765625 2.234375l4.765625 0q-0.03125 -1.46875 -0.65625 -2.203125q-0.609375 -0.75 -1.640625 -0.75zm12.787567 -1.1875q0.453125 0 0.84375 0.1875q0.40625 0.1875 0.65625 0.734375q0.265625 0.546875 0.265625 1.59375l0 6.796875l-1.34375 0l0 -6.5625q0 -0.859375 -0.109375 -1.234375q-0.09375 -0.375 -0.59375 -0.375q-0.40625 0 -0.8125 0.25q-0.40625 0.25 -0.78125 0.828125l0 7.09375l-1.359375 0l0 -6.5625q0 -0.859375 -0.109375 -1.234375q-0.09375 -0.375 -0.59375 -0.375q-0.421875 0 -0.828125 0.25q-0.390625 0.25 -0.765625 0.828125l0 7.09375l-1.34375 0l0 -9.125l1.140625 0l0.09375 1.0625q0.375 -0.53125 0.828125 -0.890625q0.46875 -0.359375 1.15625 -0.359375q0.515625 0 0.96875 0.25q0.46875 0.25 0.6875 0.953125q0.359375 -0.53125 0.828125 -0.859375q0.46875 -0.34375 1.171875 -0.34375z" fill-rule="nonzero"/><path fill="#000000" d="m205.13544 267.15808l0 -1.265625l6.953125 0l0 1.265625l-6.953125 0z" fill-rule="nonzero"/><path fill="#000000" d="m244.6574 271.95496l-4.203125 -10.5q0.015625 0.203125 0.046875 0.671875q0.03125 0.46875 0.0625 1.109375q0.046875 0.625 0.0625 1.34375q0.03125 0.703125 0.03125 1.390625l0 5.984375l-1.390625 0l0 -11.9375l2.03125 0l4.265625 10.546875q0 -0.25 -0.0625 -0.921875q-0.046875 -0.671875 -0.09375 -1.625q-0.03125 -0.953125 -0.03125 -2.015625l0 -5.984375l1.390625 0l0 11.9375l-2.109375 0zm11.834457 -2.0q0 0.546875 0.171875 0.8125q0.1875 0.25 0.5625 0.359375l-0.34375 1.03125q-0.59375 -0.078125 -1.046875 -0.375q-0.4375 -0.296875 -0.640625 -0.90625q-0.484375 0.625 -1.21875 0.953125q-0.734375 0.328125 -1.640625 0.328125q-1.359375 0 -2.15625 -0.765625q-0.78125 -0.78125 -0.78125 -2.046875q0 -1.421875 1.09375 -2.171875q1.109375 -0.75 3.1875 -0.75l1.34375 0l0 -0.765625q0 -0.984375 -0.578125 -1.390625q-0.578125 -0.421875 -1.59375 -0.421875q-0.453125 0 -1.0625 0.109375q-0.609375 0.109375 -1.3125 0.359375l-0.390625 -1.09375q0.84375 -0.3125 1.578125 -0.4375q0.734375 -0.140625 1.40625 -0.140625q1.703125 0 2.5625 0.796875q0.859375 0.78125 0.859375 2.140625l0 4.375zm-3.78125 1.09375q0.6875 0 1.296875 -0.34375q0.609375 -0.34375 1.015625 -0.953125l0 -2.34375l-1.3125 0q-1.515625 0 -2.140625 0.515625q-0.609375 0.515625 -0.609375 1.390625q0 0.859375 0.4375 1.296875q0.4375 0.4375 1.3125 0.4375zm15.240723 -8.21875l-3.3125 9.125l-1.6875 0l-3.296875 -9.125l1.546875 0l2.640625 7.796875l2.609375 -7.796875l1.5 0zm20.05954 -2.8125l0 1.21875l-2.65625 0l0 9.515625l2.65625 0l0 1.203125l-6.828125 0l0 -1.203125l2.65625 0l0 -9.515625l-2.65625 0l0 -1.21875l6.828125 0zm10.771942 11.484375q-0.46875 0.3125 -1.140625 0.484375q-0.65625 0.171875 -1.296875 0.171875q-1.484375 0 -2.28125 -0.765625q-0.796875 -0.78125 -0.796875 -2.0l0 -5.4375l-2.09375 0l0 -1.125l2.09375 0l0 -2.0625l1.46875 -0.1875l0 2.25l3.140625 0l-0.171875 1.125l-2.96875 0l0 5.421875q0 0.765625 0.390625 1.171875q0.40625 0.390625 1.34375 0.390625q0.515625 0 0.9375 -0.109375q0.4375 -0.125 0.8125 -0.328125l0.5625 1.0zm4.3032227 -3.59375q0.03125 1.0625 0.390625 1.734375q0.375 0.671875 0.96875 0.984375q0.609375 0.3125 1.296875 0.3125q0.703125 0 1.265625 -0.203125q0.578125 -0.203125 1.171875 -0.625l0.6875 0.96875q-0.640625 0.5 -1.46875 0.796875q-0.8125 0.28125 -1.671875 0.28125q-1.328125 0 -2.265625 -0.59375q-0.921875 -0.609375 -1.421875 -1.671875q-0.484375 -1.078125 -0.484375 -2.484375q0 -1.390625 0.484375 -2.453125q0.5 -1.078125 1.390625 -1.6875q0.890625 -0.625 2.109375 -0.625q1.15625 0 1.984375 0.546875q0.828125 0.53125 1.265625 1.53125q0.453125 1.0 0.453125 2.390625q0 0.234375 -0.015625 0.4375q0 0.203125 -0.015625 0.359375l-6.125 0zm2.46875 -4.078125q-1.015625 0 -1.703125 0.71875q-0.671875 0.71875 -0.765625 2.234375l4.765625 0q-0.03125 -1.46875 -0.65625 -2.203125q-0.609375 -0.75 -1.640625 -0.75zm12.787567 -1.1875q0.453125 0 0.84375 0.1875q0.40625 0.1875 0.65625 0.734375q0.265625 0.546875 0.265625 1.59375l0 6.796875l-1.34375 0l0 -6.5625q0 -0.859375 -0.109375 -1.234375q-0.09375 -0.375 -0.59375 -0.375q-0.40625 0 -0.8125 0.25q-0.40625 0.25 -0.78125 0.828125l0 7.09375l-1.359375 0l0 -6.5625q0 -0.859375 -0.109375 -1.234375q-0.09375 -0.375 -0.59375 -0.375q-0.421875 0 -0.828125 0.25q-0.390625 0.25 -0.765625 0.828125l0 7.09375l-1.34375 0l0 -9.125l1.140625 0l0.09375 1.0625q0.375 -0.53125 0.828125 -0.890625q0.46875 -0.359375 1.15625 -0.359375q0.515625 0 0.96875 0.25q0.46875 0.25 0.6875 0.953125q0.359375 -0.53125 0.828125 -0.859375q0.46875 -0.34375 1.171875 -0.34375z" fill-rule="nonzero"/><path fill="#000000" d="m205.13544 288.15808l0 -1.265625l6.953125 0l0 1.265625l-6.953125 0z" fill-rule="nonzero"/><path fill="#000000" d="m244.6574 292.95496l-4.203125 -10.5q0.015625 0.203125 0.046875 0.671875q0.03125 0.46875 0.0625 1.109375q0.046875 0.625 0.0625 1.34375q0.03125 0.703125 0.03125 1.390625l0 5.984375l-1.390625 0l0 -11.9375l2.03125 0l4.265625 10.546875q0 -0.25 -0.0625 -0.921875q-0.046875 -0.671875 -0.09375 -1.625q-0.03125 -0.953125 -0.03125 -2.015625l0 -5.984375l1.390625 0l0 11.9375l-2.109375 0zm11.834457 -2.0q0 0.546875 0.171875 0.8125q0.1875 0.25 0.5625 0.359375l-0.34375 1.03125q-0.59375 -0.078125 -1.046875 -0.375q-0.4375 -0.296875 -0.640625 -0.90625q-0.484375 0.625 -1.21875 0.953125q-0.734375 0.328125 -1.640625 0.328125q-1.359375 0 -2.15625 -0.765625q-0.78125 -0.78125 -0.78125 -2.046875q0 -1.421875 1.09375 -2.171875q1.109375 -0.75 3.1875 -0.75l1.34375 0l0 -0.765625q0 -0.984375 -0.578125 -1.390625q-0.578125 -0.421875 -1.59375 -0.421875q-0.453125 0 -1.0625 0.109375q-0.609375 0.109375 -1.3125 0.359375l-0.390625 -1.09375q0.84375 -0.3125 1.578125 -0.4375q0.734375 -0.140625 1.40625 -0.140625q1.703125 0 2.5625 0.796875q0.859375 0.78125 0.859375 2.140625l0 4.375zm-3.78125 1.09375q0.6875 0 1.296875 -0.34375q0.609375 -0.34375 1.015625 -0.953125l0 -2.34375l-1.3125 0q-1.515625 0 -2.140625 0.515625q-0.609375 0.515625 -0.609375 1.390625q0 0.859375 0.4375 1.296875q0.4375 0.4375 1.3125 0.4375zm15.240723 -8.21875l-3.3125 9.125l-1.6875 0l-3.296875 -9.125l1.546875 0l2.640625 7.796875l2.609375 -7.796875l1.5 0zm20.05954 -2.8125l0 1.21875l-2.65625 0l0 9.515625l2.65625 0l0 1.203125l-6.828125 0l0 -1.203125l2.65625 0l0 -9.515625l-2.65625 0l0 -1.21875l6.828125 0zm10.771942 11.484375q-0.46875 0.3125 -1.140625 0.484375q-0.65625 0.171875 -1.296875 0.171875q-1.484375 0 -2.28125 -0.765625q-0.796875 -0.78125 -0.796875 -2.0l0 -5.4375l-2.09375 0l0 -1.125l2.09375 0l0 -2.0625l1.46875 -0.1875l0 2.25l3.140625 0l-0.171875 1.125l-2.96875 0l0 5.421875q0 0.765625 0.390625 1.171875q0.40625 0.390625 1.34375 0.390625q0.515625 0 0.9375 -0.109375q0.4375 -0.125 0.8125 -0.328125l0.5625 1.0zm4.3032227 -3.59375q0.03125 1.0625 0.390625 1.734375q0.375 0.671875 0.96875 0.984375q0.609375 0.3125 1.296875 0.3125q0.703125 0 1.265625 -0.203125q0.578125 -0.203125 1.171875 -0.625l0.6875 0.96875q-0.640625 0.5 -1.46875 0.796875q-0.8125 0.28125 -1.671875 0.28125q-1.328125 0 -2.265625 -0.59375q-0.921875 -0.609375 -1.421875 -1.671875q-0.484375 -1.078125 -0.484375 -2.484375q0 -1.390625 0.484375 -2.453125q0.5 -1.078125 1.390625 -1.6875q0.890625 -0.625 2.109375 -0.625q1.15625 0 1.984375 0.546875q0.828125 0.53125 1.265625 1.53125q0.453125 1.0 0.453125 2.390625q0 0.234375 -0.015625 0.4375q0 0.203125 -0.015625 0.359375l-6.125 0zm2.46875 -4.078125q-1.015625 0 -1.703125 0.71875q-0.671875 0.71875 -0.765625 2.234375l4.765625 0q-0.03125 -1.46875 -0.65625 -2.203125q-0.609375 -0.75 -1.640625 -0.75zm12.787567 -1.1875q0.453125 0 0.84375 0.1875q0.40625 0.1875 0.65625 0.734375q0.265625 0.546875 0.265625 1.59375l0 6.796875l-1.34375 0l0 -6.5625q0 -0.859375 -0.109375 -1.234375q-0.09375 -0.375 -0.59375 -0.375q-0.40625 0 -0.8125 0.25q-0.40625 0.25 -0.78125 0.828125l0 7.09375l-1.359375 0l0 -6.5625q0 -0.859375 -0.109375 -1.234375q-0.09375 -0.375 -0.59375 -0.375q-0.421875 0 -0.828125 0.25q-0.390625 0.25 -0.765625 0.828125l0 7.09375l-1.34375 0l0 -9.125l1.140625 0l0.09375 1.0625q0.375 -0.53125 0.828125 -0.890625q0.46875 -0.359375 1.15625 -0.359375q0.515625 0 0.96875 0.25q0.46875 0.25 0.6875 0.953125q0.359375 -0.53125 0.828125 -0.859375q0.46875 -0.34375 1.171875 -0.34375z" fill-rule="nonzero"/><path fill="#000000" d="m205.13544 309.15808l0 -1.265625l6.953125 0l0 1.265625l-6.953125 0z" fill-rule="nonzero"/><path fill="#000000" d="m244.6574 313.95496l-4.203125 -10.5q0.015625 0.203125 0.046875 0.671875q0.03125 0.46875 0.0625 1.109375q0.046875 0.625 0.0625 1.34375q0.03125 0.703125 0.03125 1.390625l0 5.984375l-1.390625 0l0 -11.9375l2.03125 0l4.265625 10.546875q0 -0.25 -0.0625 -0.921875q-0.046875 -0.671875 -0.09375 -1.625q-0.03125 -0.953125 -0.03125 -2.015625l0 -5.984375l1.390625 0l0 11.9375l-2.109375 0zm11.834457 -2.0q0 0.546875 0.171875 0.8125q0.1875 0.25 0.5625 0.359375l-0.34375 1.03125q-0.59375 -0.078125 -1.046875 -0.375q-0.4375 -0.296875 -0.640625 -0.90625q-0.484375 0.625 -1.21875 0.953125q-0.734375 0.328125 -1.640625 0.328125q-1.359375 0 -2.15625 -0.765625q-0.78125 -0.78125 -0.78125 -2.046875q0 -1.421875 1.09375 -2.171875q1.109375 -0.75 3.1875 -0.75l1.34375 0l0 -0.765625q0 -0.984375 -0.578125 -1.390625q-0.578125 -0.421875 -1.59375 -0.421875q-0.453125 0 -1.0625 0.109375q-0.609375 0.109375 -1.3125 0.359375l-0.390625 -1.09375q0.84375 -0.3125 1.578125 -0.4375q0.734375 -0.140625 1.40625 -0.140625q1.703125 0 2.5625 0.796875q0.859375 0.78125 0.859375 2.140625l0 4.375zm-3.78125 1.09375q0.6875 0 1.296875 -0.34375q0.609375 -0.34375 1.015625 -0.953125l0 -2.34375l-1.3125 0q-1.515625 0 -2.140625 0.515625q-0.609375 0.515625 -0.609375 1.390625q0 0.859375 0.4375 1.296875q0.4375 0.4375 1.3125 0.4375zm15.240723 -8.21875l-3.3125 9.125l-1.6875 0l-3.296875 -9.125l1.546875 0l2.640625 7.796875l2.609375 -7.796875l1.5 0zm20.05954 -2.8125l0 1.21875l-2.65625 0l0 9.515625l2.65625 0l0 1.203125l-6.828125 0l0 -1.203125l2.65625 0l0 -9.515625l-2.65625 0l0 -1.21875l6.828125 0zm10.771942 11.484375q-0.46875 0.3125 -1.140625 0.484375q-0.65625 0.171875 -1.296875 0.171875q-1.484375 0 -2.28125 -0.765625q-0.796875 -0.78125 -0.796875 -2.0l0 -5.4375l-2.09375 0l0 -1.125l2.09375 0l0 -2.0625l1.46875 -0.1875l0 2.25l3.140625 0l-0.171875 1.125l-2.96875 0l0 5.421875q0 0.765625 0.390625 1.171875q0.40625 0.390625 1.34375 0.390625q0.515625 0 0.9375 -0.109375q0.4375 -0.125 0.8125 -0.328125l0.5625 1.0zm4.3032227 -3.59375q0.03125 1.0625 0.390625 1.734375q0.375 0.671875 0.96875 0.984375q0.609375 0.3125 1.296875 0.3125q0.703125 0 1.265625 -0.203125q0.578125 -0.203125 1.171875 -0.625l0.6875 0.96875q-0.640625 0.5 -1.46875 0.796875q-0.8125 0.28125 -1.671875 0.28125q-1.328125 0 -2.265625 -0.59375q-0.921875 -0.609375 -1.421875 -1.671875q-0.484375 -1.078125 -0.484375 -2.484375q0 -1.390625 0.484375 -2.453125q0.5 -1.078125 1.390625 -1.6875q0.890625 -0.625 2.109375 -0.625q1.15625 0 1.984375 0.546875q0.828125 0.53125 1.265625 1.53125q0.453125 1.0 0.453125 2.390625q0 0.234375 -0.015625 0.4375q0 0.203125 -0.015625 0.359375l-6.125 0zm2.46875 -4.078125q-1.015625 0 -1.703125 0.71875q-0.671875 0.71875 -0.765625 2.234375l4.765625 0q-0.03125 -1.46875 -0.65625 -2.203125q-0.609375 -0.75 -1.640625 -0.75zm12.787567 -1.1875q0.453125 0 0.84375 0.1875q0.40625 0.1875 0.65625 0.734375q0.265625 0.546875 0.265625 1.59375l0 6.796875l-1.34375 0l0 -6.5625q0 -0.859375 -0.109375 -1.234375q-0.09375 -0.375 -0.59375 -0.375q-0.40625 0 -0.8125 0.25q-0.40625 0.25 -0.78125 0.828125l0 7.09375l-1.359375 0l0 -6.5625q0 -0.859375 -0.109375 -1.234375q-0.09375 -0.375 -0.59375 -0.375q-0.421875 0 -0.828125 0.25q-0.390625 0.25 -0.765625 0.828125l0 7.09375l-1.34375 0l0 -9.125l1.140625 0l0.09375 1.0625q0.375 -0.53125 0.828125 -0.890625q0.46875 -0.359375 1.15625 -0.359375q0.515625 0 0.96875 0.25q0.46875 0.25 0.6875 0.953125q0.359375 -0.53125 0.828125 -0.859375q0.46875 -0.34375 1.171875 -0.34375z" fill-rule="nonzero"/><path fill="#000000" fill-opacity="0.0" d="m180.81364 145.72966l189.85826 0l0 40.220474l-189.85826 0z" fill-rule="evenodd"/><path fill="#000000" d="m201.9699 169.7874q0 1.328125 -0.671875 2.375q-0.671875 1.03125 -1.9375 1.625q-1.265625 0.578125 -3.09375 0.578125q-1.703125 0 -3.09375 -0.515625q-1.390625 -0.53125 -2.375 -1.484375l1.171875 -1.3125q0.8125 0.765625 1.859375 1.21875q1.0625 0.4375 2.46875 0.4375q0.953125 0 1.78125 -0.3125q0.828125 -0.3125 1.328125 -0.953125q0.515625 -0.640625 0.515625 -1.625q0 -0.765625 -0.296875 -1.296875q-0.28125 -0.53125 -1.03125 -0.9375q-0.75 -0.421875 -2.09375 -0.8125q-1.53125 -0.453125 -2.65625 -1.015625q-1.125 -0.578125 -1.75 -1.421875q-0.609375 -0.84375 -0.609375 -2.078125q0 -1.15625 0.640625 -2.0625q0.640625 -0.90625 1.78125 -1.421875q1.140625 -0.515625 2.625 -0.515625q1.625 0 2.8125 0.453125q1.203125 0.453125 2.171875 1.328125l-1.15625 1.265625q-0.84375 -0.734375 -1.8125 -1.0625q-0.953125 -0.34375 -1.953125 -0.34375q-0.84375 0 -1.5625 0.25q-0.703125 0.25 -1.125 0.765625q-0.421875 0.5 -0.421875 1.28125q0 0.671875 0.359375 1.15625q0.359375 0.484375 1.21875 0.890625q0.875 0.40625 2.34375 0.84375q1.21875 0.34375 2.25 0.875q1.046875 0.53125 1.671875 1.4375q0.640625 0.890625 0.640625 2.390625zm9.750122 -7.609375l0 10.421875l3.359375 0l0 1.5l-8.9375 0l0 -1.5l3.671875 0l0 -8.921875l-3.5625 0l0 -1.5l5.46875 0zm-1.515625 -5.59375q0.640625 0 1.015625 0.390625q0.375 0.375 0.375 0.9375q0 0.578125 -0.375 0.96875q-0.375 0.390625 -1.015625 0.390625q-0.59375 0 -0.984375 -0.390625q-0.390625 -0.390625 -0.390625 -0.96875q0 -0.5625 0.390625 -0.9375q0.390625 -0.390625 0.984375 -0.390625zm16.203247 0.546875l1.90625 0.234375l0 16.734375l-1.65625 0l-0.1875 -1.578125q-0.671875 0.953125 -1.546875 1.40625q-0.859375 0.4375 -1.84375 0.4375q-1.546875 0 -2.5625 -0.78125q-1.0 -0.78125 -1.484375 -2.171875q-0.484375 -1.40625 -0.484375 -3.265625q0 -1.78125 0.546875 -3.1875q0.5625 -1.421875 1.609375 -2.21875q1.046875 -0.8125 2.515625 -0.8125q1.03125 0 1.8125 0.359375q0.78125 0.34375 1.375 1.046875l0 -6.203125zm-2.6875 6.3125q-1.5 0 -2.3125 1.171875q-0.796875 1.171875 -0.796875 3.53125q0 1.546875 0.328125 2.59375q0.328125 1.03125 0.96875 1.5625q0.640625 0.515625 1.578125 0.515625q1.015625 0 1.734375 -0.578125q0.71875 -0.578125 1.1875 -1.296875l0 -5.96875q-0.484375 -0.71875 -1.171875 -1.125q-0.6875 -0.40625 -1.515625 -0.40625zm10.640747 5.359375q0.0625 1.390625 0.53125 2.265625q0.484375 0.875 1.265625 1.296875q0.78125 0.40625 1.703125 0.40625q0.90625 0 1.640625 -0.265625q0.75 -0.28125 1.53125 -0.8125l0.90625 1.265625q-0.84375 0.65625 -1.921875 1.03125q-1.0625 0.375 -2.1875 0.375q-1.734375 0 -2.953125 -0.78125q-1.21875 -0.78125 -1.859375 -2.171875q-0.640625 -1.40625 -0.640625 -3.265625q0 -1.8125 0.640625 -3.203125q0.640625 -1.40625 1.8125 -2.203125q1.171875 -0.8125 2.75 -0.8125q1.515625 0 2.59375 0.703125q1.09375 0.703125 1.671875 2.015625q0.59375 1.3125 0.59375 3.125q0 0.296875 -0.015625 0.5625q-0.015625 0.265625 -0.03125 0.46875l-8.03125 0zm3.25 -5.3125q-1.328125 0 -2.21875 0.9375q-0.890625 0.9375 -1.015625 2.90625l6.21875 0q-0.03125 -1.90625 -0.84375 -2.875q-0.796875 -0.96875 -2.140625 -0.96875zm10.765747 0.234375q0.65625 -0.859375 1.5 -1.328125q0.859375 -0.46875 1.890625 -0.46875q1.59375 0 2.578125 0.765625q0.984375 0.765625 1.4375 2.171875q0.45314026 1.390625 0.45314026 3.265625q0 1.796875 -0.54689026 3.21875q-0.53125 1.40625 -1.578125 2.21875q-1.046875 0.796875 -2.59375 0.796875q-2.078125 0 -3.25 -1.5l-0.140625 1.234375l-1.65625 0l0 -16.734375l1.90625 -0.234375l0 6.59375zm2.6875 9.09375q1.5 0 2.296875 -1.15625q0.8125 -1.15625 0.8125 -3.546875q0 -1.5625 -0.328125 -2.59375q-0.3125 -1.046875 -0.9375 -1.5625q-0.625 -0.515625 -1.546875 -0.515625q-1.0 0 -1.75 0.609375q-0.75 0.59375 -1.234375 1.3125l0 5.90625q0.453125 0.703125 1.15625 1.125q0.71875 0.421875 1.53125 0.421875zm17.531387 -1.328125q0 0.71875 0.234375 1.046875q0.25 0.328125 0.75 0.484375l-0.46875 1.34375q-0.765625 -0.109375 -1.34375 -0.5q-0.578125 -0.390625 -0.84375 -1.1875q-0.640625 0.828125 -1.609375 1.265625q-0.953125 0.421875 -2.125 0.421875q-1.796875 0 -2.828125 -1.0q-1.03125 -1.015625 -1.03125 -2.6875q0 -1.84375 1.4375 -2.828125q1.4375 -0.984375 4.15625 -0.984375l1.765625 0l0 -1.0q0 -1.296875 -0.765625 -1.828125q-0.75 -0.546875 -2.078125 -0.546875q-0.59375 0 -1.390625 0.15625q-0.78125 0.140625 -1.71875 0.46875l-0.5 -1.453125q1.109375 -0.40625 2.0625 -0.5625q0.96875 -0.171875 1.84375 -0.171875q2.234375 0 3.34375 1.03125q1.109375 1.03125 1.109375 2.8125l0 5.71875zm-4.921875 1.421875q0.890625 0 1.6875 -0.4375q0.8125 -0.453125 1.328125 -1.25l0 -3.078125l-1.71875 0q-1.96875 0 -2.78125 0.6875q-0.8125 0.671875 -0.8125 1.828125q0 1.109375 0.5625 1.6875q0.578125 0.5625 1.734375 0.5625zm10.093872 1.1875l0 -1.46875l1.859375 0l0 -9.0l-1.859375 0l0 -1.453125l3.3125 0l0.34375 2.8125q0.6875 -1.46875 1.671875 -2.265625q1.0 -0.8125 2.609375 -0.8125q0.5 0 0.890625 0.078125q0.390625 0.0625 0.796875 0.1875l-0.546875 1.6875q-0.375 -0.09375 -0.6875 -0.140625q-0.296875 -0.0625 -0.703125 -0.0625q-1.359375 0 -2.359375 0.984375q-0.984375 0.96875 -1.5625 2.9375l0 5.046875l2.421875 0l0 1.46875l-6.1875 0zm7.796875 -7.890625l0 -2.59375l0.1875 -1.4375l1.640625 0l-0.265625 4.03125l-1.5625 0zm19.281494 7.890625l0 -11.921875l1.609375 0l0.15625 1.640625q0.71875 -0.90625 1.8125 -1.390625q1.09375 -0.5 2.125 -0.5q1.765625 0 2.5625 0.9375q0.796875 0.921875 0.796875 2.5625l0 8.671875l-1.90625 0l0 -7.265625q0 -1.21875 -0.140625 -1.96875q-0.125 -0.75 -0.5625 -1.09375q-0.4375 -0.359375 -1.34375 -0.359375q-0.703125 0 -1.328125 0.3125q-0.609375 0.296875 -1.09375 0.765625q-0.46875 0.453125 -0.78125 0.921875l0 8.6875l-1.90625 0zm22.125122 -2.609375q0 0.71875 0.234375 1.046875q0.25 0.328125 0.75 0.484375l-0.46875 1.34375q-0.765625 -0.109375 -1.34375 -0.5q-0.578125 -0.390625 -0.84375 -1.1875q-0.640625 0.828125 -1.609375 1.265625q-0.953125 0.421875 -2.125 0.421875q-1.796875 0 -2.828125 -1.0q-1.03125 -1.015625 -1.03125 -2.6875q0 -1.84375 1.4375 -2.828125q1.4375 -0.984375 4.15625 -0.984375l1.765625 0l0 -1.0q0 -1.296875 -0.765625 -1.828125q-0.75 -0.546875 -2.078125 -0.546875q-0.59375 0 -1.390625 0.15625q-0.78125 0.140625 -1.71875 0.46875l-0.5 -1.453125q1.109375 -0.40625 2.0625 -0.5625q0.96875 -0.171875 1.84375 -0.171875q2.234375 0 3.34375 1.03125q1.109375 1.03125 1.109375 2.8125l0 5.71875zm-4.921875 1.421875q0.890625 0 1.6875 -0.4375q0.8125 -0.453125 1.328125 -1.25l0 -3.078125l-1.71875 0q-1.96875 0 -2.78125 0.6875q-0.8125 0.671875 -0.8125 1.828125q0 1.109375 0.5625 1.6875q0.578125 0.5625 1.734375 0.5625zm19.921997 -10.734375l-4.328125 11.921875l-2.21875 0l-4.296875 -11.921875l2.015625 0l3.453125 10.1875l3.40625 -10.1875l1.96875 0z" fill-rule="nonzero"/><path fill="#d9d9d9" d="m654.60895 81.102455l0 0c0 -2.6527557 2.1504517 -4.8032455 4.8032227 -4.8032455l90.771484 0c1.2738647 0 2.4956055 0.50605774 3.3963623 1.4068375c0.9008179 0.90078735 1.4068604 2.1225128 1.4068604 3.396408l0 19.21241c0 2.6527557 -2.1505127 4.8032455 -4.8032227 4.8032455l-90.771484 0c-2.652771 0 -4.8032227 -2.1504898 -4.8032227 -4.8032455z" fill-rule="evenodd"/><path stroke="#595959" stroke-width="1.0" stroke-linejoin="round" stroke-linecap="butt" d="m654.60895 81.102455l0 0c0 -2.6527557 2.1504517 -4.8032455 4.8032227 -4.8032455l90.771484 0c1.2738647 0 2.4956055 0.50605774 3.3963623 1.4068375c0.9008179 0.90078735 1.4068604 2.1225128 1.4068604 3.396408l0 19.21241c0 2.6527557 -2.1505127 4.8032455 -4.8032227 4.8032455l-90.771484 0c-2.652771 0 -4.8032227 -2.1504898 -4.8032227 -4.8032455z" fill-rule="evenodd"/><path fill="#000000" d="m673.74786 97.62866l0 -12.84375l1.625 0l0 11.390625l5.859375 0l-0.1875 1.453125l-7.296875 0zm14.271912 -10.03125q1.390625 0 2.328125 0.640625q0.9375 0.625 1.40625 1.78125q0.484375 1.140625 0.484375 2.6875q0 1.5 -0.484375 2.671875q-0.484375 1.15625 -1.421875 1.8125q-0.9375 0.65625 -2.328125 0.65625q-1.375 0 -2.328125 -0.625q-0.9375 -0.640625 -1.421875 -1.796875q-0.46875 -1.15625 -0.46875 -2.6875q0 -1.53125 0.484375 -2.6875q0.484375 -1.15625 1.421875 -1.796875q0.953125 -0.65625 2.328125 -0.65625zm0 1.28125q-1.265625 0 -1.921875 0.9375q-0.640625 0.9375 -0.640625 2.921875q0 1.9375 0.640625 2.875q0.640625 0.9375 1.90625 0.9375q1.265625 0 1.90625 -0.9375q0.640625 -0.9375 0.640625 -2.90625q0 -1.953125 -0.640625 -2.890625q-0.625 -0.9375 -1.890625 -0.9375zm15.443726 -2.125l0.484375 1.484375q-0.625 0.1875 -1.34375 0.234375q-0.703125 0.046875 -1.53125 0.046875q0.859375 0.390625 1.28125 1.015625q0.421875 0.625 0.421875 1.46875q0 0.96875 -0.4375 1.71875q-0.4375 0.75 -1.265625 1.1875q-0.8125 0.421875 -1.984375 0.421875q-0.5 0 -0.828125 -0.046875q-0.328125 -0.046875 -0.640625 -0.140625q-0.21875 0.15625 -0.375 0.421875q-0.140625 0.25 -0.140625 0.53125q0 0.359375 0.28125 0.59375q0.28125 0.234375 1.046875 0.234375l1.765625 0q0.984375 0 1.765625 0.359375q0.796875 0.34375 1.25 0.953125q0.453125 0.59375 0.453125 1.34375q0 1.453125 -1.234375 2.21875q-1.21875 0.78125 -3.453125 0.78125q-1.5625 0 -2.46875 -0.328125q-0.90625 -0.3125 -1.296875 -0.96875q-0.390625 -0.65625 -0.390625 -1.65625l1.421875 0q0 0.5625 0.21875 0.9375q0.234375 0.375 0.8125 0.546875q0.59375 0.1875 1.6875 0.1875q1.09375 0 1.765625 -0.1875q0.6875 -0.171875 1.015625 -0.53125q0.34375 -0.359375 0.34375 -0.890625q0 -0.703125 -0.640625 -1.0625q-0.640625 -0.34375 -1.578125 -0.34375l-1.765625 0q-1.265625 0 -1.875 -0.5625q-0.59375 -0.5625 -0.59375 -1.28125q0 -0.484375 0.265625 -0.921875q0.28125 -0.453125 0.8125 -0.796875q-0.84375 -0.453125 -1.25 -1.109375q-0.390625 -0.671875 -0.390625 -1.609375q0 -1.0 0.484375 -1.765625q0.5 -0.765625 1.375 -1.203125q0.890625 -0.4375 2.046875 -0.4375q1.25 -0.015625 2.015625 -0.109375q0.78125 -0.109375 1.328125 -0.28125q0.5625 -0.1875 1.140625 -0.453125zm-4.484375 1.984375q-1.171875 0 -1.75 0.640625q-0.5625 0.640625 -0.5625 1.625q0 1.0 0.578125 1.640625q0.578125 0.640625 1.78125 0.640625q1.046875 0 1.59375 -0.59375q0.546875 -0.609375 0.546875 -1.6875q0 -1.125 -0.546875 -1.6875q-0.546875 -0.578125 -1.640625 -0.578125zm11.428162 -1.140625q1.390625 0 2.328125 0.640625q0.9375 0.625 1.40625 1.78125q0.484375 1.140625 0.484375 2.6875q0 1.5 -0.484375 2.671875q-0.484375 1.15625 -1.421875 1.8125q-0.9375 0.65625 -2.328125 0.65625q-1.375 0 -2.328125 -0.625q-0.9375 -0.640625 -1.421875 -1.796875q-0.46875 -1.15625 -0.46875 -2.6875q0 -1.53125 0.484375 -2.6875q0.484375 -1.15625 1.421875 -1.796875q0.953125 -0.65625 2.328125 -0.65625zm0 1.28125q-1.265625 0 -1.921875 0.9375q-0.640625 0.9375 -0.640625 2.921875q0 1.9375 0.640625 2.875q0.640625 0.9375 1.90625 0.9375q1.265625 0 1.90625 -0.9375q0.640625 -0.9375 0.640625 -2.90625q0 -1.953125 -0.640625 -2.890625q-0.625 -0.9375 -1.890625 -0.9375zm9.021851 -1.078125l0 6.96875q0 0.96875 0.40625 1.40625q0.40625 0.421875 1.25 0.421875q0.8125 0 1.53125 -0.453125q0.71875 -0.46875 1.125 -1.109375l0 -7.234375l1.5625 0l0 9.828125l-1.328125 0l-0.125 -1.328125q-0.578125 0.75 -1.4375 1.15625q-0.84375 0.390625 -1.71875 0.390625q-1.421875 0 -2.125 -0.765625q-0.703125 -0.765625 -0.703125 -2.125l0 -7.15625l1.5625 0zm17.428162 9.328125q-0.5 0.34375 -1.21875 0.53125q-0.71875 0.1875 -1.40625 0.1875q-1.59375 0 -2.453125 -0.828125q-0.859375 -0.84375 -0.859375 -2.140625l0 -5.859375l-2.25 0l0 -1.21875l2.25 0l0 -2.21875l1.578125 -0.1875l0 2.40625l3.390625 0l-0.1875 1.21875l-3.203125 0l0 5.84375q0 0.8125 0.421875 1.25q0.4375 0.421875 1.453125 0.421875q0.546875 0 1.015625 -0.125q0.46875 -0.140625 0.859375 -0.34375l0.609375 1.0625z" fill-rule="nonzero"/></g></svg>